/* XPM */
static char *_9ad28c66cd0461ee206d0aaa917634b5DKEOtseiQSTpd1h[] = {
/* columns rows colors chars-per-pixel */
"50 50 203 2 ",
"   c #221D1F",
".  c #322D2F",
"X  c #393435",
"o  c #3D3839",
"O  c #423D3D",
"+  c #4B4646",
"@  c #554F4F",
"#  c #5A5555",
"$  c #5F5B5A",
"%  c #634C41",
"&  c #6A5449",
"*  c #775541",
"=  c #635D5D",
"-  c #785F51",
";  c #65605F",
":  c #7B6457",
">  c #6E6867",
",  c #776A67",
"<  c #7B706E",
"1  c #777272",
"2  c #7B7878",
"3  c #7D7A7A",
"4  c #8A5D43",
"5  c #835F4B",
"6  c #8E644C",
"7  c #94664A",
"8  c #98674A",
"9  c #97694D",
"0  c #9D6D51",
"q  c #9D755E",
"w  c #A66D49",
"e  c #AB714D",
"r  c #B1734D",
"t  c #A16F50",
"y  c #A57252",
"u  c #AB7451",
"i  c #AA795B",
"p  c #B17753",
"a  c #B47955",
"s  c #BB7B53",
"d  c #85726B",
"f  c #827977",
"g  c #827E7C",
"h  c #947E73",
"j  c #A37D66",
"k  c #C37F53",
"l  c #8A827E",
"z  c #9A8579",
"x  c #AB836B",
"c  c #A5867A",
"v  c #B08C77",
"b  c #B8947E",
"n  c #CB8354",
"m  c #C48359",
"M  c #C98458",
"N  c #D68855",
"B  c #DB8E5D",
"V  c #DC905F",
"C  c #F38F4E",
"Z  c #E18C55",
"A  c #E48F58",
"S  c #E4925E",
"D  c #ED955B",
"F  c #F39354",
"G  c #F3965A",
"H  c #F4995E",
"J  c #FD9C5C",
"K  c #C78D68",
"L  c #C99472",
"P  c #EA9660",
"I  c #EB9761",
"U  c #F39C63",
"Y  c #FA9E63",
"T  c #F29F69",
"R  c #FEA265",
"E  c #F3A16C",
"W  c #FFA668",
"Q  c #FFA96B",
"!  c #EFA77F",
"~  c #F3A573",
"^  c #F0A67C",
"/  c #F3AB7C",
"(  c #F9AA78",
")  c #FFB17A",
"_  c #848283",
"`  c #888381",
"'  c #8A898A",
"]  c #978C86",
"[  c #938E8C",
"{  c #97918E",
"}  c #9F948D",
"|  c #949394",
" . c #9A9593",
".. c #9D9896",
"X. c #9E9C9B",
"o. c #A18983",
"O. c #B89788",
"+. c #A29C9A",
"@. c #B19E93",
"#. c #A6A09D",
"$. c #A9A29F",
"%. c #B3A59C",
"&. c #A4A2A3",
"*. c #ABA7A6",
"=. c #AEA9A6",
"-. c #ABA9A9",
";. c #B1AAA6",
":. c #B2ADAA",
">. c #B6B0AD",
",. c #B9B3AF",
"<. c #B5B2B1",
"1. c #BBB5B2",
"2. c #BEB9B5",
"3. c #BCBBBB",
"4. c #C99D91",
"5. c #CAA186",
"6. c #D5AB8F",
"7. c #CEA397",
"8. c #ECAC88",
"9. c #F3AE81",
"0. c #E8B28E",
"q. c #F5B387",
"w. c #F3B48B",
"e. c #EDAE90",
"r. c #ECB89D",
"t. c #F4BB96",
"y. c #F8BD96",
"u. c #F3BE9B",
"i. c #C7AFA0",
"p. c #CDBAAD",
"a. c #C0B7B1",
"s. c #C0BAB6",
"d. c #C3BEBB",
"f. c #E9B4A3",
"g. c #E5B8A6",
"h. c #E8B7A9",
"j. c #E8B9AC",
"k. c #FFC49A",
"l. c #C6C0BD",
"z. c #C9C2BF",
"x. c #DBC9BC",
"c. c #EFC4A8",
"v. c #F5C4A4",
"b. c #F9C5A4",
"n. c #FEC8A4",
"m. c #F3C6A9",
"M. c #F7CBAD",
"N. c #F8C9AB",
"B. c #E9C1B4",
"V. c #EECBB4",
"C. c #ECCCBB",
"Z. c #FACAB4",
"A. c #F8CEB4",
"S. c #EED1BE",
"D. c #F1D2BD",
"F. c #F9D6BF",
"G. c #C4C3C2",
"H. c #CBC6C3",
"J. c #CDC9C5",
"K. c #CECBCA",
"L. c #D2CAC5",
"P. c #D2CECB",
"I. c #D6D0CC",
"U. c #D9D3CE",
"Y. c #D5D5D4",
"T. c #DBD5D1",
"R. c #DED8D4",
"E. c #D9D7D8",
"W. c #DFDDDC",
"Q. c #EACFC6",
"!. c #EBD1C5",
"~. c #ECD6CA",
"^. c #F9D9C3",
"/. c #F6DFCF",
"(. c #FADECB",
"). c #E1DBD6",
"_. c #ECDDD3",
"`. c #E3DDD9",
"'. c #F0DED2",
"]. c #FDE1CE",
"[. c #E6E0DB",
"{. c #EAE4DE",
"}. c #F3E2D6",
"|. c #FBE7D9",
" X c #E6E5E5",
".X c #ECE6E1",
"XX c #EDE9E5",
"oX c #E6E8E9",
"OX c #ECEBE9",
"+X c #F1EBE6",
"@X c #FCEEE4",
"#X c #F2EDEA",
"$X c #F4EEE9",
"%X c #F6F1EC",
"&X c #FBF3ED",
"*X c #EBF2F6",
"=X c #F6F4F2",
"-X c #FCF6F2",
";X c #FDF9F5",
":X c #FDFBFA",
">X c #FEFDFD",
",X c #FEFEFE",
"<X c white",
/* pixels */
"<X<X<X<X<X<X<X<X<X<X<X<X<X<X<X<X<X:X<X<X<X<X<X<X<X<X<X<X<X<X<X<X<X<X<X<X<X<X<X<X<X<X<X<X<X<X<X<X<X<X",
"<X<X<X<X<X<X<X<X<X<X<X:X$X=X<X<X<X<X<X<X<X<X<X<X<X<X<X<X<X<X<X<X<X<X<X<X<X<X<X<X<X<X<X<X<X<X<X<X<X<X",
"<X<X<X<X<X<X<X<X<X<X<XOX[.{.+X:X<X>X<X<X:X<X<X<X<X<X<X<X<X<X<X<X<X<X<X<X<X<X<X<X<X<X<X<X<X<X<X<X<X<X",
"<X<X<X<X<X<X<X<X<X<X<X.X.XXX{..X=X<X<X<X<X<X<X<X<X<X<X<X<X<X<X<X<X<X<X<X<X<X<X<X<X<X<X<X<X<X<X<X<X<X",
"<X<X<X<X<X<X<X<X>X<X>XXX.XXXXX.X`.#X<X<X<X<X<X<X<X>X<X<X<X<X<X<X<X<X<X<X<X<X<X<X<X<X<X<X<X<X<X<X<X<X",
"<X<X<X<X<X<X<X<X>X>X<XOX X!.Q..XXX{.XX:X<X<X<X<X<X<X<X<X:X<X<X:X<X<X<X<X<X<X<X<X<X<X<X<X:X<X<X<X:X<X",
"<X<X<X<X<X<X<X<X<X<X<X=X{.j.f.B.{.XX{.XX:X<X<X:X:X>X<X<X<X<X<X:X:X<X<X<X<X<X:X:X<X<X<X<X<X<X<X<X<X<X",
"<X<X<X<X<X<X<X<X<X<X<X%X.XQ.f.f.j.XX.X{.XX#XXXXX.X.XXXD.v.(.;X<X<X<X:X:X<X<X<X<X<X;X|.^.A.-X<X<X<X<X",
"<X<X<X<X<X<X<X<X<X<X<X;XXXQ.f.h.r.!..XXX{.{.{.{..X{.OXc.C H ~ b.&X<X<X<X<X&X(.m.w.~ H H F t.>X<X<X<X",
"<X<X<X<X<X<X<X<X<X<X<X:XXX_.f.j.Q.{.XX{..X{.XXXX.X{.oXV.H U H G U A.].m.9.U G F G H ! E H / :X<X<X<X",
"<X<X<X<X<X<X<X<X:X<X<X<XXX{.~.{.XX.XXX{..X+XXX{..XXXXXV.H U U U U G G G H T ! e.r.f.j.! F M.<X<X<X<X",
"<X<X<X<X<X<X<X<X<X<X<X<XOX.XXX.X{..X{.XX{.{.{.{..X{.XX~.U U U U U Y U U ^ h.j.h.h.j.f.H ~ ;X<X<X<X<X",
"<X<X<X<X<X<X<X:X<X<X<X-X.X.X.X{..X.X.X.XXX{.XXXX{.XX.X{.T U U U U U U U T r.g.f.h.h.T T @X<X<X<X<X<X",
"<X<X<X<X<X<X<X<X>X<X<XXX{..X.X.X.X.XXX`.{..X{.{..X.X{.XXw.H U U U U U U H ~ f.j.f.U ~ @X<X:X<X<X<X<X",
"<X<X<X<X<X<X<X<X>X>X%X{..X.X.X.X.XXX_.~ ~ _.XXXX.X.X{.OXm.G U U H U U H U U ! 8.G / -X<X:X<X<X:X<X<X",
"<X<X<X<X<X<X<X<X<X:X X{..X.X.X.X.XXXV.F F V.XX{..X{.{..X{.T U H 9./.h.U U U U G t.:X<X:X<X<X<X<X<X<X",
"<X<X<X<X<X<X<X<X<X#X{.{.{.{.XX{.`..X.Xu.r.{..XXX{.{.{.{.#Xu.H H V.*X.XE H R U U @X>X:X>X<X<X<X<X<X<X",
"<X<X<X<X<X<X:X<X<XXX{.XX{.XX{.+X-X.X`.OX%X.XXX{.XX.X{.XX.X_.E G / !.r.U U U U G k.>X>X>X<X<X<X<X<X<X",
"<X<X<X>X<X<X<X<X/._.XX{.XX{.+XP. .` < > ,.+X{.XX{.{.XX.X{.OXv.G Y R Y U P Y U H U @X<X>X<X<X<X<X<X<X",
">X<X>X>X>X:X<X<X( ( }.$X+X$XI.g +.T.`.J.= s.$X{.XX{.{.{.{..X{.q.N y s P W D U E G M.<X>X<X<X<X<X<X<X",
">X>X:X>X<X<X<X_.B n L d.z.T.).+X:X+X{.-X1.f $X{..X.X.X.X.X{.%X} 5 w 6 % p R U U H ~ :X<X<X:X<X<X<X<X",
"<X<X<XOXG.&.| h 7 0 w j | [ [ [ 1.`.#X{.[.1.{.XX.X.X.X.X{.%X,._ }.Q J V % 0 Y H U U }.<X<X<X<X<X<X<X",
":XK.&.| -.K.*Xk.G W W ) &X&X`.L.;.[ 1.XXXX.X+X[.[.{.{.`.{.&Xd.).%X_.) R W B R U U G A.<X:X<X<X<X<X<X",
"W.3. X<X<X<X<Xn.G B m w z X.+.+.;.s.[ 1.XX+X=.+ @ # # # $ 1.&X.X).G.%.i e s M S E J t.<X<X<X<X:X<X<X",
"<X<X>X>X<X<XoXb 8 9 a k 6.W.).).J.;.:.`.XX$X`   o X X o   g &X+XH.$.>.d.p.K w 6 7 e 8.<X>X>X<X<X>X<X",
"<X<X>X<X X&.&.O.A Y R J n. XH.:.,.d.).).H.+X).< X O o . > T..XR.R.=.,.+.$.a.N.) N w - -.=X>X>X>X<X>X",
">X>X>X<XW.W.<X|.H P Y U v | :.I.`..X&Xd.+.;X$X;X[ . + +.#X-XT.+.[.>.2.[.P..._ =.^.k.0.&.1 G.<X<X:X>X",
">X>X<X>X<X<X<X-X~ Y B 4 @..X$X+X+X{..X`.g :.d.+.f , = d.`.H.g d.%X{.2.{ R.-XT.{ 3 Y.;X<XoX_ ' >X<X>X",
"<X>X>X<X<X<X:X<Xb.N t P ].XX`..X{..X{.+XI.[ > c f.Z.7., @ ` z.$X[..X%XP.l L.%X&Xs.> l.<X>X>X-.1 oX>X",
"<X<X<X<X<X<X:X<X;XK k N x.&X.X{..X.X.X{..X-XH.o.4.4.O.< 1.&X+X{..X.X{.%XT.1 U..X%X).1 <.>X>X>XP.2 E.",
"<X<X<X<X<X<X<X-Xc.i a u & ' XXXX.X.X.X.X{.{.+XJ. .{ ..K.$X{.{..X.X{..X.X%Xd.2 +X[.%X<X' -.>X:X<XOX' ",
"<X>X<X<X:X<X].E D Y P y 0 4 ] +X`..X.X.X.X.X{.+X%X%X&X+X{.{.XX{..X.X.X.X[.&X .=.=X;X<X<XX.3.>X:X<X>X",
">X>X>X>X<XF.H H E D 0 B W R * 1.%X{.{..X{..XXX{.{.{.{..X.X.X.X{.{..X{..X.X.X). .:X<X>X>X<X X>X>X>X<X",
">X<X:X<X(.G U U U P P W M 0 w } %X{..X.X{.XX{.XX{.{.{..X{.{.XX+X+X{.{..X{..X%X#X:X<X<X<X<X<X>X<X<X>X",
"<X<X<X&XE H U U U U Y S 7 Y N [ &X{.{.XXXX{..X{..X{.XX{.%XXXY.Y.Y.{.%X.X{.OX<X<X<X<X<X<X>X>X<X>X>X<X",
"<X:X<Xu.G U U U U U Y B B Q e ,.%X{..X.X{.XXXX{.{..X{.$XG.l q y i x i.{.XX{.=X<X<X<X:X<X<X<X<X<X<X<X",
":X<X@XU U U U U U H Y R D s ] XX{..X.X{..X.X.X.XXX{.+Xz.: B R R R D Z ~ S.OXOX<X<X>X>X<X<X<X<X<X<X<X",
"<X<XZ.F U U U U U R S y z 1..XXX.X.X.XXX.X.X.X.X.X{.XX< N R I U U U E H H t._.=X<X>X<X>X<X<X<X<X<X<X",
"<X<Xq.H U U U U Y n z l.XXOX{..X.X.X.X.X.XXX.X.X{.%X>.9 W U R U U U H U U G E w.-X<X>X<X<X<X<X<X<X<X",
"<X;XE H Y U U U K *.XX$XXX{..X.X.X{..X.X.X.X{..X{.%Xd n R H I U U U U U U U H F m.<X:X>X>X<X<X<X<X<X",
"<X@XU H Y Y H w.R.+X{.{.{.{.XX{..X.X.X.X.X.X.X{.OXx.6 R U U U U U U U U U U U U U &X<X<X<X<X<X<X<X<X",
"<X|.E U U H 8.XXXX{.XX{.XX{.+X{..XXX.X.X.X.X{.{.%X] t R H U U U U U U U U U U U G N.<X<X<X<X<X<X<X<X",
"<X&XE U U ~ _.XX{.XX{.{.XX{.{.XX.X.X.X.X.X.X{.+XR.- D Y U U U U U U Y U U U U U H / :X<X:X<X<X<X<X<X",
"<X:XE H H C.XX{.XX{.{.XX{.XX{.{..X.X.X.X.X.X{.&X[ e Q I U U U H U Y s a R U U U U U |.<X<X<X<X<X<X<X",
"<X<Xq.G q.{.{.XXXX{.{.+X.X.X+X{..X.X.X.X{.{.OXK.: E H Y U U U R U U * B Y U U U Y D ^.<X:X<X<X<X<X<X",
":X<XN.F V.XX{..X{.{.XX.X.X.X{.XX.X.X.X.X{.{.+X_ 5.R S U U U U H R 0 y R U U U U U G F.<X<X<X<X<X<X<X",
"<X<X|.U _.XX{..X{..X.X.X{.XX{..X.X.X.X.X{.%Xl.l !.7 M R Z D Y R y 6 Y U U U U U U D F.<X:X<X<X<X<X<X",
"<X<X:Xv.{.+X.X.X.X.X{.{.XX{.+X.X.X.X.X{.{.&X+.$.&.b Q M c ].g.9 0 Y U U U U U U U U |.<X<X<X<X<X<X<X",
":X<X<X%X{..X.X.XXX{.{.XX{.XX.X.X.X.X{.XX{.%X1.= $.:X}.] Y.>.3 : R U H U U U U U H / >X<X>X<X<X<X<X<X",
"<X<X<X<X.X{.{.XX{.XXXX{.{.{.{.XXXX.XXX{.{.{.%X` > ;...; l $..X+.k Y U U U U U Y G A.<X>X>X<X<X<X<X<X"
};
