/* XPM */
static char *e7082d3175e04e9dd4e0cf8c93f79dd11DU1Y41YVZxYSFko[] = {
/* columns rows colors chars-per-pixel */
"50 50 188 2 ",
"   c #2A2526",
".  c #332E2F",
"X  c #332F30",
"o  c #373133",
"O  c #3B3637",
"+  c #3F3A3B",
"@  c #423C3D",
"#  c #494445",
"$  c #595657",
"%  c #5F5A5A",
"&  c #6C5244",
"*  c #775746",
"=  c #695C56",
"-  c #645D5C",
";  c #6B6565",
":  c #736D6C",
">  c #736F70",
",  c #737273",
"<  c #7B7574",
"1  c #945E3D",
"2  c #825E49",
"3  c #8E6146",
"4  c #85604B",
"5  c #8F654C",
"6  c #916044",
"7  c #95684E",
"8  c #9B6B4D",
"9  c #876552",
"0  c #9C6D51",
"q  c #916F5B",
"w  c #A56A47",
"e  c #A46E4C",
"r  c #AC704C",
"t  c #BA784F",
"y  c #A36F50",
"u  c #A77658",
"i  c #B47955",
"p  c #B77A54",
"a  c #BA7B53",
"s  c #997864",
"d  c #897B76",
"f  c #837C7B",
"g  c #987A73",
"h  c #A57B62",
"j  c #CB7F4F",
"k  c #86817F",
"l  c #8A827F",
"z  c #9E897D",
"x  c #A2816E",
"c  c #AD866E",
"v  c #B78769",
"b  c #A98C7B",
"n  c #CD8253",
"m  c #CA865B",
"M  c #CC885C",
"N  c #D18554",
"B  c #DB8954",
"V  c #D68A5B",
"C  c #DD8F5D",
"Z  c #F58F4E",
"A  c #E28D56",
"S  c #E88F55",
"D  c #E3915D",
"F  c #EE955D",
"G  c #F39456",
"H  c #F3965A",
"J  c #F4995E",
"K  c #FC9C5D",
"L  c #D99265",
"P  c #D19975",
"I  c #E69561",
"U  c #EB9761",
"Y  c #EE9962",
"T  c #F39C63",
"R  c #F99E63",
"E  c #F39E69",
"W  c #FDA265",
"Q  c #F4A26D",
"!  c #FDA569",
"~  c #F3A574",
"^  c #F3A877",
"/  c #F3AA7A",
"(  c #FFB37F",
")  c #848182",
"_  c #8A8382",
"`  c #8F8987",
"'  c #8B898A",
"]  c #928C8A",
"[  c #9B8F89",
"{  c #97918F",
"}  c #9D928E",
"|  c #959394",
" . c #9A9492",
".. c #9F9997",
"X. c #9A999A",
"o. c #B6938A",
"O. c #A59891",
"+. c #A19D9B",
"@. c #A6A19E",
"#. c #A9A09B",
"$. c #A4A2A3",
"%. c #AAA5A2",
"&. c #AEA9A6",
"*. c #AAA7A8",
"=. c #ACAAAA",
"-. c #B3ABA7",
";. c #B3AEAC",
":. c #B6B0AD",
">. c #BBB5B1",
",. c #BBB7B7",
"<. c #CAA994",
"1. c #DCAC9E",
"2. c #EDAD8E",
"3. c #F3AE81",
"4. c #EDB28B",
"5. c #F6B286",
"6. c #F3B48B",
"7. c #ECAF93",
"8. c #EFB995",
"9. c #EBB29B",
"0. c #F0B792",
"q. c #F5BA93",
"w. c #F5BE9B",
"e. c #C3B6AF",
"r. c #C1BAB6",
"t. c #C2BEBB",
"y. c #E9B5A6",
"u. c #E8B7A9",
"i. c #E9B9AC",
"p. c #E7BAB1",
"a. c #FBC49D",
"s. c #FEC49D",
"d. c #C6C1BE",
"f. c #C9C3BF",
"g. c #D4C1B5",
"h. c #EFC1A4",
"j. c #E7C4AD",
"k. c #EEC8AF",
"l. c #F5C3A3",
"z. c #F7C7A8",
"x. c #F8CAAC",
"c. c #EECAB1",
"v. c #E6C7B8",
"b. c #F8CDB1",
"n. c #EDD1BE",
"m. c #FED1B3",
"M. c #F9D2BA",
"N. c #C6C2C0",
"B. c #CCC6C2",
"V. c #CFC9C5",
"C. c #CDCCCC",
"Z. c #D1CBC7",
"A. c #D3CECA",
"S. c #D8CEC8",
"D. c #D6D0CC",
"F. c #DAD3CD",
"G. c #D5D4D3",
"H. c #DED8D4",
"J. c #DCDBDB",
"K. c #EED3C1",
"L. c #EAD5CD",
"P. c #EDDACD",
"I. c #F5D9C6",
"U. c #F9D9C5",
"Y. c #E1DBD6",
"T. c #ECDCD2",
"R. c #E3DDD9",
"E. c #E6E1DD",
"W. c #EAE4DE",
"Q. c #FAE5D8",
"!. c #E4E3E1",
"~. c #ECE6E1",
"^. c #EDE9E5",
"/. c #EBEBEA",
"(. c #F2EBE6",
"). c #FBEEE5",
"_. c #F3EEE9",
"`. c #F6F1EC",
"'. c #FAF3ED",
"]. c #FFF9EE",
"[. c #F5F3F2",
"{. c #FAF7F2",
"}. c #FAF8F6",
"|. c #F1F6FA",
" X c #FBFBFA",
".X c #FEFCFB",
"XX c #FEFDFD",
"oX c white",
/* pixels */
"oXoXoXoXoXoXoXoXoXoXoXoXoXoXoXoXXXoX X~.~.W.[.oXXXoXXXoXoXoXoXoXoXoXoXoXoXoXoXoXoXoXoXoXoXoXoXoXoXoX",
"oXoXoXoXoXoXoXoXoXoXoXoXoXoXoXoXXXoX[.W.~.~.W.{.oXoXoXXXoXoXoXoXoXoXoXoXoXoXoXoXoXoXoXoXoXoXoXoXoXoX",
"oXoXoXoXoXoXoXoXoXoXoXoXoXoXoXoXXXoX`.W.~.^.W.~.}.oXXXoXoXoXoXoXoXoXoXoXoXoXoXoXoXoXoXoXoXoXoXoXoXoX",
"oXoXoXoXoXoXoXoXoXoXoXoXoXoXoXXXXXoX`.W.v.L.^.~.^.oXoXoXoXXXoXoXoXoXoXoXoXoXoXoXoXoXoXoXoXoXoXoXoXoX",
"oXoXoXoXoXoXoXoXoXoXoXoXoXoXoXoXXXoX/.W.y.y.L.~.~._.oXoXXXXXoXoXoXoXoXoXoXoXoXoXoXoXoXoXoXoXoXoXoXoX",
"oXoXoXoXoXoXoXoXoXoXoXoXoXoXoXXXoXXX^.T.u.y.i.W.~.~.{.oXXXoXXXXXXXoXXXoXoXoXoXoXoXoXoXoXoXoXoXoXoXoX",
"oXoXoXoXoXoXoXoXoXoXoXoXoXoXXXXXoXXX^.T.y.u.y.L.^.!.^.oXoXoXoXoXXXoXXXoXoX XoXoXoXoXoXoXoXoXoXoXoXoX",
"oXoXoXoXoXoXoXoXoXoXoXoXoXXXoXXXoXXX^.L.y.i.i.L.~.~.~.^._.`.[. XoXoXXXoXoXoXoXoXoXoXoXoXoXoXoXoXoXoX",
"oXoXoXoXoXoXoXoXoXoXoXoXXXXXoXXXoX}.~.W.T.R.~.~.~.~.~.~.W.W.W.~./.{.oXoX XoXoX.XoXoXoXoXoXoXoXoXoXoX",
"oXoXoXoXoXoXoXoXoXoXoXoXoXoXoXoX.X^.~.~.^.~.~.~.~.~.~.~.~.~.~.~.^.8.5.).oXoX.XoXoXoXoXoXoXoXoXoXoXoX",
"oXoXoXoXoXoXoXoXoXoXoXoXoXXXoX}.~.W.~.W.~.~.~.~.~.~.~.W.~.~.~.~.~./ G T M.oXoXoXoX.XoX.X.XoXoXoXoXXX",
"oXoXoXoXoXoXoXoXoXoXoXoXXXoX}.~.~.~.~.~.~.~.~.~.~.~.~.~.~.~.W.^.T.T T T H a.oXoXoXoXoXoXoXoXoXoX XXX",
"oXoXoXoXoXoXoXoXoXoXoX.XoX{.W.~.~.~.~.~.~.~.~.^.~.^.~.~.~.~.~.^.K.T T T T G l.oX.XoX X.XoXoXoXoXoXoX",
"oXoXoXoXoXoXoXoX.XoXoXoXoX~.~.~.~.~.~.~.~.~.W.4.3.T.~.~.~.~.W./.c.H T R T T H ~ / ^ ^ / 5.q.w.z.b.U.",
"oXoXoX XoX X X X X X.X{.K.~.~.~.~.~.~.R.W.^.K.H Z w./.W.~.~.W./.k.J T T T T T T H H T T H H H Z G H ",
"oXoXoXoXoXoXoXoXoXoXoXa.T P.~.W.~.~._.'.'.`.~.4.3.L.^.~.~.~.~.^.k.T T T T T T T T 7.y.y.9.9.9.7.T T ",
"XXXXoXJ.:.$...$.X.*.-.m B 4.`.(.~.R.V.%.+.&.Y._.W.~.(.W.~.~.W./.k.J R T T T Q H J 4.i.u.u.u.p.9.H T ",
"oXXXoX/.G.G.C.C.C.C.v e 7 5 { d.(.W.{ ..+.+.; &._.W.~.W.~.~.W.^.n.J T J Q T H Q T ~ u.u.i.i.2.H T U.",
"oXoXXXoXoXoXoXoXoX].! ! ! F <.| l >.}.].).{.G.- G.(.W.~.~.~.~.^.E.R J ~ L.P.~ J T T 9.y.2.E H w.'.oX",
"XXXXoXXXXXXXoX}.|.j.B L C S l..XR.{ l Y.(.R.{._ %.'.W.W.~.~.~.~.W.~ G 8././.0.H T T T T T q.Q.oXoXoX",
"oXoXoXXXoXoX,.*.$.x 3 7 5 8 s | ;.R.t.` A.(.(.&.r.(.W.W.~.~.W.W.^.8.F Q h.h.T T T T H a.(.oXoX.XoXoX",
"oXoXoXoXoXXX[.|.oXq.J W W F j.G.>. .&.t.] S.(.W.(.(.~.W.W.~.~.~.^.I.W J K J J R T T T Q.oX.X XoXoXoX",
"oXoXoXoXXXoXoXoXoX5.H R W ! L.R.R.R.t.%.&.B.(.^.H.A.(._.(.W.W.W.`.r.7 * 0 U W F T T H M.oX.XoXoXoXoX",
"oXoXoXXXoXoXoXoXoXq.J I t h +.+.&.-.r.r.H._.~.Y.$ @ ; ..B.(.(._.:.f <.C 0 & C W T E H z.oXoXoXoXoXoX",
"oXoXXXXXoXXXXXoXoXm.j e i g.E.(._._.W.R.E.:.(.H.# o o . + % %.(.d.W.).~ W u & T T T H q.oXoXoXoXoXoX",
"oXXXoXoXoXoXoXXXoXv.r V 5._.~.W.W.W.W._.t.+.'.(.;.O @ @ +   # R.(.W.E.I.W ! 7 p W T H 5.oXoX XoXoXoX",
"oXoXXXXXoX XI.5.Q m i r s F.(.W.~.W.~.(.D.f R.~._.f . . O - &.~.(.A.&.=.c n W W T T H 6.oXoXoXoXoXoX",
"oXXXoXoXQ./ H H T W D i * $ R.(.~.~.W.W.(.;.: < d f # f V.~.'.~.H.Y.@.:.V.b 2 a T ! F 6. XoX.XoXoXoX",
"oXoXoXb.H H T T R V e M F r  ._.W.W.~.~.W.'.t.g y.i.o.< A.~.Y.] B.Z.>.>.{ F.0.w 2 m K q.oXoXoXoXoXoX",
"oXoXz.G T R T T R U T ! I j : W.~.~.~.~.~.W.~. .o.1.i.g # _ _ ;.(.W.@.Z.H.k -.s.A 2 w m.oX.XoXoXoXoX",
"oXI.H T T T T T T T T i 7 a 9 R.(.W.~.~.~.~.^.E.#._ d _ t.R.~._.W.^.W.] R.(.] | m.W 1 l oXoX XoX XoX",
").T T T T T T T T R V i ! A d (.W.~.~.~.~.~.~.^.).~.R.(._.^.~.~.^.W.(.V.` (.`.] X.Q.s. .' oXoXoXoXoX",
"q.H T T T T T T ! W W R F 5 N.(.W.~.^.~.W.~.^.W.W.^.(.W.W.~.W.~.~.~.W.`. .>.`.(.< ;.oXoXX.] oXoXoXoX",
"T T R T T Y R H n i u h z t.(.~.~.~.~.~.~.~.W.~.W.W.W.W.~.~.~.~.W.~.~.^.A.k (.~.R.: !.oXoXf =.oX XoX",
"T T T T F R L b ..d.G.H.~._.~.~.~.W.~.~.~.W.W.W.^.W.W.W.~.W.W.W.~.~.~.W.(._ V.^.`.d.) oXoXoX: G.oX X",
"T T T H / n.D.!.`._.(.(.~.!.~.~.~.~.~.~.~.^.~.^.W.W.`.(.~.`.`.W.W.~.~.W.`.@.&._.`.oX| ,.oXoXJ., oXoX",
"T T J w.~./.(.~.W.W.W.~.~.~.~.~.~.~.^.~.~.~.~.W.(.^.:.] [ } >.~.^.~.W.~.(.B.;.oXoX X[.) [.oXoX=.$.oX",
"T H k./.~.W.~.W.~.~.~.~.~.~.~.~.~.~.~.~.~.~.~.~.W.f 8 V F B t x D.^.W.^.}.oX XoX.XoXoXC.J.oXoXoX=.[.",
"T l./.W.W.~.~.~.~.~.~.~.~.~.~.~.~.~.~.~.~.W.W._.d r ! W R W ! C M P.~.W.oXoXoXoXoXoX XoXoXoXoXoXoX X",
"4./.W.W.~.~.~.~.~.~.~.^.~.~.~.~.~.~.W.~.~.W.'.O.6 ! T J H T Y W R Q T.^.[.oXoXoX XoXoXoXoXoXoXoXoXoX",
"W.~.(.~.~.~.W.(.~.~.~.^.W.W.W.~.~.~.W.~.E.`.e.* T T T T T T T T T H / T.[.oXoX.XoXoXoXoXoXoX XoX.XoX",
"W.W.W.W.~.~.W.W.~.~.~.~.~.(.^.~.~.~.~.W.`.A.* D W T T T T T T T T T H ~ P.oXoXoXoXoXoXoXoXoXoXoXoXoX",
"W.~.~.~.~.~.~.^.~.~.~.~.W.(.W.~.~.~.W.(.D.= N ! Y T T T T T T T T T T T Q '.oXoX.XoXoXoXoXoXoXoXoXoX",
"~.~.~.W.W.(.~.W.^.~.~.~.W.W.^.W.~.W._.D.= n ! Y T T T H T T T T T T T T H U.oXoXoXoXoXoXoXoXoXoXoXoX",
"~.~.~.~.W.~.^.W.W.^.W.W.~.~.^.W.~.(.D.> P ! T T T T T T T T W R T T T T G x.oX.XoXoXoXoXoXoXoXoXoXoX",
"_.W.~.W.^.~.W.(.~.~.~.(.^.W.(.W.~.~.: f.4.t Y R T T T T T W i N W Y R E H w.oXoXoXoXoXoXoXoXoXoXoXoX",
"{.~.~.~.W.~.W.^.(.W.^.W.~.~.W.W.`.:.` N.q n W T H T T T ! i * U T T T T H 6.oXoX.XoXoXoXoXoXoXoXoXoX",
"`.W.~.~.W.(.~.~.~.W.~.W.^.~.~.W.`.:.; &.P.( m u 3.! W D 7 2 T R T T T T H 6. XoXoXoXoXoXoXoXoXoXoXoX",
"_.~.~.~.~.~.~.~.~.~.~.~.^.~.~.~.~.W.; ..(.B.` J.R.<.e 4 i W T T T T T T H q.oXoXoXoXoXoXoXoXoXoXoXoX",
"[.W.~.~.~.~.~.~.~.~.~.~.~.~.~.~.W.(.R.{ _ - < ] _ , 0 T W R T T T T T T H b.oXoXoXoXoXoXoXoXoXoXoXoX"
};
