/* XPM */
static char *_20019ef0d90434f818d090142fa5901BvbeKMm6wyRpMeyv[] = {
/* columns rows colors chars-per-pixel */
"50 50 197 2 ",
"   c #2A2527",
".  c #342F31",
"X  c #363233",
"o  c #393435",
"O  c #3D3738",
"+  c #3F3A3B",
"@  c #413C3D",
"#  c #484344",
"$  c #5F4B43",
"%  c #544F4F",
"&  c #555050",
"*  c #5A5555",
"=  c #6C5244",
"-  c #765746",
";  c #7C5B48",
":  c #635E5D",
">  c #776459",
",  c #696362",
"<  c #7A6B67",
"1  c #7C6C65",
"2  c #726D6D",
"3  c #777272",
"4  c #7B7574",
"5  c #7B7778",
"6  c #7C797B",
"7  c #845B44",
"8  c #905E41",
"9  c #8C6148",
"0  c #9B6646",
"q  c #93664C",
"w  c #96694E",
"e  c #9D6B4D",
"r  c #886652",
"t  c #9D6E52",
"y  c #A26D4C",
"u  c #AE7049",
"i  c #B3754E",
"p  c #A57152",
"a  c #AC7452",
"s  c #A5775B",
"d  c #BC7A52",
"f  c #856E62",
"g  c #84706B",
"h  c #817B79",
"j  c #8A827E",
"k  c #9E8373",
"l  c #AB846D",
"z  c #B68364",
"x  c #A4847B",
"c  c #BC8F73",
"v  c #C58155",
"b  c #CA865B",
"n  c #D38554",
"m  c #D78956",
"M  c #DB8A55",
"N  c #D38A5B",
"B  c #DA8D5D",
"V  c #E48E56",
"C  c #E4935F",
"Z  c #EB945C",
"A  c #F39356",
"S  c #F3965A",
"D  c #F4995D",
"F  c #F99A5D",
"G  c #CF946F",
"H  c #C89A7E",
"J  c #E59562",
"K  c #E99661",
"L  c #EB9964",
"P  c #F39C63",
"I  c #FA9E63",
"U  c #F29E6A",
"Y  c #E39D70",
"T  c #FDA265",
"R  c #F3A16B",
"E  c #F9A269",
"W  c #FFA868",
"Q  c #EAA67A",
"!  c #F2A473",
"~  c #F1A678",
"^  c #F3AB7C",
"/  c #FFB27E",
"(  c #8B8583",
")  c #888586",
"_  c #8E8887",
"`  c #9A8983",
"'  c #938D8C",
"]  c #96918E",
"[  c #98918E",
"{  c #969494",
"}  c #9A9492",
"|  c #9E9B9B",
" . c #A89083",
".. c #A59892",
"X. c #AC9C93",
"o. c #A29D9C",
"O. c #A6A09E",
"+. c #AAA29F",
"@. c #B8A79D",
"#. c #A5A2A2",
"$. c #AAA5A3",
"%. c #AEA9A6",
"&. c #A6A6A9",
"*. c #B5AAA4",
"=. c #B3ADAA",
"-. c #B6B1AD",
";. c #BBB3AD",
":. c #B6B5B5",
">. c #BBB5B2",
",. c #BCBBBA",
"<. c #C59C91",
"1. c #CEA68D",
"2. c #DCAC8D",
"3. c #CBA397",
"4. c #D2A295",
"5. c #EEA985",
"6. c #F3AE81",
"7. c #F3B085",
"8. c #F4B58C",
"9. c #FBB689",
"0. c #EDAF93",
"q. c #E8B69C",
"w. c #F5BA93",
"e. c #F4BA95",
"r. c #D8BCA9",
"t. c #C1BBB7",
"y. c #C3BDBA",
"u. c #E9B5A5",
"i. c #E5B5A8",
"p. c #E8B7A9",
"a. c #E8B8AB",
"s. c #FBC199",
"d. c #C6C1BD",
"f. c #DEC2B0",
"g. c #EFC2A4",
"h. c #EEC8AE",
"j. c #F4C3A2",
"k. c #F8C7A8",
"l. c #FBCAA8",
"z. c #EECAB2",
"x. c #EBC7B8",
"c. c #E5CCBA",
"v. c #F7CBB3",
"b. c #EDD1BD",
"n. c #F9D2B8",
"m. c #F8D5BD",
"M. c #C6C4C3",
"N. c #CBC5C2",
"B. c #CFC9C5",
"V. c #CECCCB",
"C. c #D1CAC5",
"Z. c #D4CECA",
"A. c #D5D1CD",
"S. c #D9D3CF",
"D. c #D5D4D4",
"F. c #DCD7D2",
"G. c #DCD9D6",
"H. c #DEDDDC",
"J. c #EACBC1",
"K. c #EDD5C3",
"L. c #E3D5CC",
"P. c #EBD6CA",
"I. c #EDDACC",
"U. c #F1D5C2",
"Y. c #F9D7C1",
"T. c #F7D9C5",
"R. c #F9DCCA",
"E. c #E1DBD6",
"W. c #ECDCD3",
"Q. c #E4DEDA",
"!. c #EBDFD9",
"~. c #E6E1DC",
"^. c #EAE4DE",
"/. c #FAE4D4",
"(. c #F5E5DA",
"). c #FEEADB",
"_. c #E7E6E5",
"`. c #ECE6E1",
"'. c #EDE9E5",
"]. c #E4E6E8",
"[. c #ECEBEA",
"{. c #F1EBE5",
"}. c #FCEEE5",
"|. c #F1EDE9",
" X c #F4EEE9",
".X c #FEF0E7",
"XX c #F5F1EC",
"oX c #FAF3ED",
"OX c #EAEEF0",
"+X c #F5F4F4",
"@X c #FAF6F3",
"#X c #FEFAF5",
"$X c #F7F9F9",
"%X c #FBFAF9",
"&X c #FDFDFD",
"*X c #FEFDFC",
"=X c white",
/* pixels */
"=X=X=X=X=X=X=X=X=X=X=X&X=X&X%X=X=X=X=X=X&X=X=X=X=X=X=X=X=X=X=X=X=X=X=X=X=X=X=X=X=X=X=X=X=X=X=X=X=X=X",
"=X=X=X=X=X=X=X=X=X=X=X=X=X'.`.{.%X=X=X&X=X=X=X=X=X=X=X=X=X=X=X=X=X=X=X=X=X=X=X=X=X=X=X=X=X=X=X=X=X=X",
"=X=X=X=X=X=X=X=X=X=X=X=X@X`.`.^.`.+X=X=X&X=X&X=X=X=X=X=X=X=X=X=X=X=X=X=X=X=X=X=X=X=X=X=X=X=X=X=X=X=X",
"=X=X=X=X=X=X=X=X=X=X&X=X@X`.`._.^.`.|.=X=X=X=X&X=X=X=X=X=X=X=X=X=X=X=X=X=X=X=X=X=X=X=X=X=X=X=X=X=X=X",
"=X=X=X=X=X=X=X=X=X=X&X=X%X`.!.W.`.`.^.|.=X=X=X=X=X&X=X=X=X=X=X=X=X=X=X=X=X=X=X=X=X=X=X=X=X=X=X=X=X=X",
"=X=X=X=X=X=X=X=X=X=X=X=X=X[.P.u.x.^.'.^.'.=X=X=X=X=X=X=X&X&X=X&X=X=X&X=X=X=X=X=X=X=X=X=X=X=X=X=X=X=X",
"=X=X=X=X=X=X=X=X=X=X=X=X&X'.P.a.u.a._.'.^.|.=X=X&X&X&X&X=X=X=X&X&X&X=X&X&X=X=X=X=X=X=X=X&X&X=X=X=X&X",
"=X=X=X=X=X=X=X=X=X=X=X=X=X'.W.a.a.u.b.'.`.`.`.'.`.`.`.'.{.m.}.=X=X=X=X=X&X=X&X&X%X=X=X=X=X=X=X&X=X=X",
"=X=X=X=X=X=X=X=X=X=X=X=X=X[.^.a.u.p.J.`.`.`.`.`.`.`.^._.P.D P w./.=X=X=X=X=X=X=X=X=X=X%X}./.#X=X&X=X",
"=X=X=X=X=X=X=X=X=X=X=X&X=X|.^.x.b.Q.`.`.^.`.`.`.`.`.`.'.P.P P S D 8.}.=X=X@X(.Y.k.8.^ E P S 8.=X=X=X",
"=X=X=X=X=X=X=X=X=X=X=X=X=X X^.`.'.`.`.`.`.`.`.`.`.`.`.'.I.P P P P S R e.6.U D S A S P U U D P oX=X&X",
"=X=X=X=X=X=X=X=X&X=X&X=X=X'.`.`.`.`.`.`.^.^.`.`.`.`.`.`.^.U P P P P I S D P ! 6.0.q.u.a.5.A ^ =X=X=X",
"=X=X=X=X=X=X=X=X=X&X=X=X|.^.`.`.`.`.`.`.'.'.^.`.`.`.`.`.^.! P P P P P P P ! a.a.a.a.a.u.R S /.=X&X=X",
"=X=X=X=X=X=X=X=X=X=X=XXX^.`.`.`.`.^.`.`.K.K.'.`.`.`.`.`.`.6.D P P P P P P P 0.a.u.a.a.! S R.=X=X=X=X",
"=X=X=X=X=X=X=X=X&X=X%X`.`.`.`.`.`.^.[.x.D U I.'.`.`.`.^.[.s.S P P P S P P P U u.a.u.P U /.=X&X=X&X&X",
"=X=X=X=X=X=X=X=X=X&X'.^.`.`.`.`.`.^.'.z.A P P.'.^.`.`.`.].U.P P P U 8.U P P S ~ 5.S ^ }.=X%X=X=X=X=X",
"=X=X=X=X=X=X=X=X=X$X^.`.`.^.`.^.`.{. XXXb.b.`.`.`.`.`.`.`.^.^ D D b.OXb.D P P D D k.&X=X&X=X=X&X=X=X",
"=X=X=X&X=X=X=X=X=XK.'.`.`.`.^. X'.A.y.>.H.XX^.`.`.`.`.`.^.[.j.S E b.OXb.P P U D ! =X=X&X=X&X=X=X=X=X",
"=X=X=X&X%X&X=X=X).F j.{.'.`.`.d.4 h o.[ : >.|.^.`.`.`.`.`.'.^.R S R e.E D P P P S m.=X&X&X=X=X=X=X=X",
"&X&X=X=X=X=X=XOX0.M m r.G.~.oXC.C.{.XXoXN.: E.`.`.`.`.`.`.`.'.h.I P S T T L P P S 7.=X=X=X=X=X=X=X=X",
"=X=X+XD.>.| { { r w y w j _ _ -.E. X`.~.oX] -.XX^.`.`.`.`.`.`.`.z ; 9 q C T P P P P }.=X=X=X=X=X=X=X",
"&X:.$.&.,.H.[.XXE T W T v.XXS.%.( { Z. X`.S.S.{.`.`.`.^.~.^.|.} ) Y M t $ v T P P S n.=X&X=X=X=X=X=X",
"=X[.%X=X=X=X=X).T Z N d c %.-.N.C.;._ =.{.`. X~.Q.^.^.{. XoXE.} XXT.E T N = N P U S w.=X=X&X=X=X=X=X",
"=X=X=X&X=X=X].@.q w e i z %.>.-.$.=.=.$.~.{.C.& # & : 2 5 -.'.`.`.`.c.K F U T T P S ^ =X=X=X=X=X=X=X",
"=X&X&X=X].$.&.;.B P T F / #X'.E.S.t.$.^.{.'.y.. o o X o   # ^.'.F.%.$.X.s 0 a b P T E #X=X=X=X=X=X=X",
"=X=X=X=X+X[.=X#XE P P I G O...$.>.N.E.E.>.{.'.o.O @ @ X @ o.`.{.Q.=.$.>.A.q.b 0 9 p L #X=X%X=X=X=X=X",
"=X=X=X&X=X=X=X&X6.F P y k N.~.XX{.{.{.F._ {. X#X=.o @ 3 C.|. X=.F.-.N.-.] O.f.s.Z u ; +.=X=X%X=X=X=X",
"=X=X=X=X=X=X&X=Xv.V e v m.OX^.^.^.^.^.{.} ' >.} h 1 % y.XX`.*.'  XA.o.C.XX>.) { K.l.Q | 6 H.=X=X=X=X",
"=X=X&X=X=X=X%X=X=XG v C J. X^.`.^.`.`.`.`.>.3 x i.v.3.< , h ' ~.`.{.^.[ %.#X`.+.4 D.oX=XD.2 :.=X%X=X",
"=X=X=X=X&X=X=X}.q.s a y 1 :.{.^.`.`.`.`.`.@XF.` <.4.<.g } Q. X`.`.`.`.XX_ %.oXXXd., N.=X=X+X6 | =X=X",
"=X&X=X=X=X=Xv.U S P K a 7 $ >.{.^.`.`.`.`.Q.|.Z..._ ' ,.|.{.`.^.`.`.`.`.`.4 N.{.|.G.2 M.=X=X=X' | =X",
"=X=X=X=X%X8.A D P J e N W Z > Q.`.`.`.`.`.`.`.{. X|.oX{.^.`.`.`.^.`.`.^.|.N.h {.^.+X+X3 D.=X&X=Xo.o.",
"=X&X=X=X8.A E P P Z K T N p 7 ;. X^.^.^.^.'.^.^.^.^.^.^.^.^.^.`.^.'.^.'.^.XX] ;.oX&X=X+X) H.=X%X=X:.",
"&X=X=Xk.A P P P P P T N q L i *.XX^.^.'.'.^.^.{.'.^.^.'.^.^.^.`.^.^.^.^.^.{.B.#.=X&X&X=X].D.=X=X=X=X",
"&X=X).L P P P P P P T v C W w B. X^.`.^.^.'.^.^.^.'.^.^.XXXX'.[.oX X^.'.`.[.+X+X=X=X=X&X=X=X&X=X&X&X",
"=X=Xw.S U D P P P P E T D d } '.^.^.'.'.'.^.^.'.^.^.^. XM.} ` ` +.d.'.'.^.oX=X=X&X=X&X=X=X&X=X=X=X=X",
"=X}.U P P P P P P T n p k %.`.`.^.'.^.`.`.`.`.`.'.^.XX#.> M V V n i 2.(._.^.&X=X=X&X&X=X=X=X=X=X=X=X",
"=Xn.D P P P U P Z s ..V._.XX^.`.`.`.'.^.`.`.`.`.^. X,.9 I T T E T T S ! K.'.+X=X&X=X=X=X=X=X=X=X=X=X",
"=Xw.S P P P F L  .A.oX{.`.^.`.`.`.`.`.`.`.`.^.`.^.'.1 M T D L P D L E D E j.^.&X=X=X=X=X=X=X=X=X=X=X",
"=X8.D P P S ^ L._.{.^.^.`.^.`.`.^.'.`.`.`.`.^.^.oX;.9 T D E D P T D D L P S P m.=X&X=X&X=X=X=X=X=X=X",
"&X^ S U S ^ ^.[.^.^.`.^.`.`.`.`.`.`.`.`.`.`.^._.{.f n E D P P P P P P P P E S ! @X=X=X=X=X=X=X=X=X=X",
"=X7.D P E ~.`.^.`.`.`.`.`.`.`.`.`.`.`.`.`.`.^.oX;.7 T P P L T D P P P P P P P S Y.=X%X=X=X=X=X=X=X=X",
"=X8.S D z.'.(.'.`.`.`.`.`.`.`.`.`.`.`.`.`.`.`.'.1 m E D P P P P D P I P P P P S 8.=X=X=X=X=X=X=X=X=X",
"=Xk.A 7.'.`.^.`.`.`.`.`.`.`.`.`.`.`.`.`.`.^.oX| e T P P P P P P P L B P P P P P R oX=X=X=X=X=X=X=X=X",
"=XT.A b.[.^.`.`.{.`.`.`.`.`.`.'.`.`.`.`.^.{.V.> T P D P P P P L T e p T P P P P P R.=X&X=X=X=X=X=X=X",
"=X}.^ ^.`.^.`.`.`.`.`.'.`.`.`.`.`.`.`.`.^.'.6 1.E C P T P U D T N ; D P S P P P S m.=X&X=X=X=X=X=X=X",
"=X&Xb.^.`.`.`.`.`.`.`.`.`.`.`.`.`.`.`.^.XX-.' K.8 N T Z S S T B - B E P P P P P S m.=X&X=X=X=X=X=X=X",
"&X=X@X^.`.`.`.`.`.`.`.`.`.`.`.`.`.`.`.^.oX] %.{ H T v l l.9.d ; N T D P P P P U S R.=X=X=X=X=X=X=X=X",
"=X=X=X^.^.`.`.`.`.`.`.`.`.`.`.`.`.`.`.^.oX$.* y.=Xc._ ~.M.6 ; D T P P P P P P D R oX=X=X=X=X=X=X=X=X",
"=X&X=X@X`.`.`.`.`.`.`.`.`.`.'.`.`.`.`.`.`.`.5 4 >.} 2 j [ ,.k D P P P P P P P S w.=X&X&X=X=X=X=X=X=X"
};
