/* XPM */
static char *_ab9ad86eb314636c16ce81f17f915d0dnT7cjREP7QiVsKz[] = {
/* columns rows colors chars-per-pixel */
"50 50 191 2 ",
"   c #322D2E",
".  c #3A3536",
"X  c #423D3E",
"o  c #785039",
"O  c #4A4344",
"+  c #584B47",
"@  c #524F50",
"#  c #5A5555",
"$  c #664F44",
"%  c #785745",
"&  c #7C5B49",
"*  c #635D5D",
"=  c #796255",
"-  c #6B6565",
";  c #736D6C",
":  c #757172",
">  c #797575",
",  c #7E7A7A",
"<  c #855D47",
"1  c #85624D",
"2  c #8E644C",
"3  c #94674C",
"4  c #9A6648",
"5  c #95684D",
"6  c #82685A",
"7  c #926A51",
"8  c #9A6E53",
"9  c #A46E4C",
"0  c #A9724F",
"q  c #B6764E",
"w  c #A37152",
"e  c #AB7452",
"r  c #A6785C",
"t  c #B47854",
"y  c #B77B56",
"u  c #BA7D56",
"i  c #837976",
"p  c #817B79",
"a  c #8C7E78",
"s  c #9C7E76",
"d  c #A97E63",
"f  c #C47C4E",
"g  c #BE815B",
"h  c #85807E",
"j  c #8A807E",
"k  c #9A8079",
"l  c #AA836B",
"z  c #BE8866",
"x  c #A28B7D",
"c  c #BD9378",
"v  c #CF8557",
"b  c #C78459",
"n  c #D38553",
"m  c #DA8955",
"M  c #D48B5C",
"N  c #DD905F",
"B  c #F58F4D",
"V  c #E48D56",
"C  c #E28F59",
"Z  c #E6925C",
"A  c #EA935B",
"S  c #F39455",
"D  c #F3965A",
"F  c #F4995E",
"G  c #FC9C5E",
"H  c #C18F6F",
"J  c #DD986C",
"K  c #E49562",
"L  c #E99660",
"P  c #EE9961",
"I  c #F39C63",
"U  c #F99E64",
"Y  c #F29E69",
"T  c #FDA165",
"R  c #F4A26D",
"E  c #FEA569",
"W  c #EFA57C",
"Q  c #F2A472",
"!  c #F5A977",
"~  c #F3AB7C",
"^  c #868282",
"/  c #8B8584",
"(  c #8B8888",
")  c #9C8A80",
"_  c #938D8B",
"`  c #97908E",
"'  c #949191",
"]  c #9A9594",
"[  c #99989A",
"{  c #AC8B81",
"}  c #B18F85",
"|  c #A99488",
" . c #A29A96",
".. c #A39D9B",
"X. c #B89F90",
"o. c #A7A19D",
"O. c #B9A293",
"+. c #A6A3A3",
"@. c #ABA5A3",
"#. c #AEA9A5",
"$. c #ACAAAA",
"%. c #B1AAA7",
"&. c #B9ADA6",
"*. c #B2ACAA",
"=. c #B6B1AE",
"-. c #B9B1AD",
";. c #BBB6B2",
":. c #BDB9B6",
">. c #C89E84",
",. c #EDAB84",
"<. c #F3AD81",
"1. c #E9B08C",
"2. c #F5B185",
"3. c #FFB786",
"4. c #F4B68D",
"5. c #EDAE92",
"6. c #EBB69D",
"7. c #F1B791",
"8. c #F4BA93",
"9. c #F8BA92",
"0. c #F2BE9B",
"q. c #C6B9B2",
"w. c #C2BDBA",
"e. c #D3BFB3",
"r. c #E9B5A6",
"t. c #E5B6A9",
"y. c #E9B7A9",
"u. c #E8B9AB",
"i. c #F1BEAF",
"p. c #FFC597",
"a. c #F7C19E",
"s. c #C6C0BD",
"d. c #CBC4BF",
"f. c #EDC5AB",
"g. c #EFC8AE",
"h. c #F8C5A3",
"j. c #FCCCAD",
"k. c #FFD0AF",
"l. c #E9C2B6",
"z. c #EECBB3",
"x. c #EFCFB9",
"c. c #EED1BE",
"v. c #F8D5BE",
"b. c #C5C3C1",
"n. c #CAC5C2",
"m. c #CEC9C4",
"M. c #CECDCC",
"N. c #D1CAC6",
"B. c #D4CECB",
"V. c #D5D0CD",
"C. c #D8D2CE",
"Z. c #D6D4D3",
"A. c #DAD5D1",
"S. c #DED9D4",
"D. c #D4D7DA",
"F. c #DCDBDA",
"G. c #EACCC2",
"H. c #EDD4C3",
"J. c #EBD5CD",
"K. c #EDD9CB",
"L. c #FBDBC5",
"P. c #F7DBC9",
"I. c #E1DAD5",
"U. c #EBDCD3",
"Y. c #E4DED9",
"T. c #EBDFD9",
"R. c #FFE5CE",
"E. c #ECE0D6",
"W. c #E5E1DC",
"Q. c #EAE4DE",
"!. c #FCE6D6",
"~. c #FAE6D9",
"^. c #FBE9DD",
"/. c #E5E4E4",
"(. c #ECE6E1",
"). c #EDE9E4",
"_. c #ECEBEA",
"`. c #F1EBE6",
"'. c #FBECE2",
"]. c #F4EEE9",
"[. c #FFF0E0",
"{. c #F6F1EC",
"}. c #FAF3ED",
"|. c #F0EFF0",
" X c #EDF2F4",
".X c #F6F4F3",
"XX c #FBF6F2",
"oX c #FEFAF6",
"OX c #FDFDFD",
"+X c #FEFDFC",
"@X c white",
/* pixels */
"@X@X@X@X@X@X@X@X@X@X@X@X@X@X@X@X@XOX@X@X@X(.Q.(.`.@X@X@X@X@X@X@X@X@X@X@X@X@X@X@X@X@X@X@X@X@X@X@X@X@X",
"@X@X@X@X@X@X@X@X@X@X@X@X@X@X@X@X@X@XOX@X.XQ.(.(./.{.@X@X@X@X@X@X@X@X@X@X@X@X@X@X@X@X@X@X@X@X@X@X@X@X",
"@X@X@X@X@X@X@X@X@X@X@X@X@X@X@X@X@X@X@X@X.XQ.Q./.(.(.oX@X@X@X@X@X@X@X@X@X@X@X@X@X@X@X@X@X@X@X@X@X@X@X",
"@X@X@X@X@X@X@X@X@X@X@X@X@X@X@X@X@X@XOX@X].Q.u.x.(.Q.).@X@XOX@X@X@X@X@X@X@X@X@X@X@X@X@X@X@X@X@X@X@X@X",
"@X@X@X@X@X@X@X@X@X@X@X@X@X@X@X@X@XOX@X@X(.U.r.r.J.(.Q..X@XOX@XOX@X@X@X@X@X@X@X@X@X@X@X@X@X@X@X@X@X@X",
"@X@X@X@X@X@X@X@X@X@X@X@X@X@X@X@XOX@X@XOX).J.y.r.l.(.(.).OX@XOX@XOX@X@XOX@X@X@X@X@X@X@X@X@X@X@X@X@X@X",
"@X@X@X@X@X@X@X@X@X@X@X@X@X@X@XOX@X@X@X.X(.G.r.r.r.U.(.Q..X@X@X@XOX@X@X@XOX@X@X@X@X@X@X@X@X@X@X@X@X@X",
"@X@X@X@X@X@X@X@X@X@X@X@X@X@X@X@X@XOX@X{./.G.y.l.l.T.(.(.Q.]..XOX@X@X@XOXOX@X@X@X@X@X@X@X@X@X@X@X@X@X",
"@X@X@X@X@X@X@X@X@X@X@X@X@X@X@XOX@X@X@X`.(.Q.Q.(.).).(.(.(.Q.Q.(._..X@X@X@X@X@X@XOX@X@X@X@X@X@X@X@X@X",
"@X@X@X@X@X@X@X@X@X@X@X@X@X@XOX@X@XXX(.Q.(.(.(.(.(.(.(.(.(.(.(.(.Q.(.Q.!.@X@XOX@X@X@X@X@X@X@X@X@X@X@X",
"@X@X@X@X@X@X@X@X@X@XOX@X@X@X@X@X{.(.(.(.(.Q.(.(./.(.(.(.(.(.(.(.(.).H.F a.@X@X@X@XOXOX@X@X@X@X@X@X@X",
"@X@X@X@X@X@X@X@X@X@XOX@X@X@X@X].Q.(.(.(.(.(.(.(.Q.(.Q.(.Q.Q.(.(.Q._.0.D D ~ }.@XOX@X@XOX@X@X@X@X@X@X",
"@X@XOX@X@X@X@X@X@XOX@XOX@X@X).Q.(.(.(.(.(.(.(.(.).(.).(.(.(.(.(.(.(.,.F I F ~ XX@XOXOXOX@XOX@XOX@XOX",
"@X@X@X@X@X@X@X@X@X@XOX@XOXK.(.(.(.(.(.(.Q.(.(.(.6.Q H.).Q.(.(.(.).U.Y I I U S 2.OX@X@X@X@X@X@X@X@X@X",
"@X@X@X@X.X_._..X.X@X@X@Xj.F K.).Q.(.(.W.Q.Q./.U.F B 7._.(.(.(.Q.).H.I I I I I F ~ 8.0.j.v.P.'.@XOXOX",
"@X@X@X@XZ...+.[ ' ' [ @.b V 8.].(.Q.(.{.`.).}.].0.~ H.).Q.(.(.^._.x.I I I I I I F S S S S S I Y ~ 9.",
"@X@X@X@X@X@X@XOX.X|.F.b w 2 7 =.(.}.S._ p / _ s.{.(.).(.(.(.(.Q._.g.D R F I I I I R ,.1.,.,.W Y F F ",
"@X@XOX@X@X@X@X@X@X@X^.T E T M k ^ *.(.m.C.C.=.* #.].Q.(.(.Q.(.(._.g.F P I F F R I F 6.u.u.u.r.r.6.I ",
"@X@XOX@XOX@XOX/./.D.>.m J Z T R.).` / W.{.(.oXV.- W.(.(.(.(.(.Q._.z.F T F Q Y F I F ,.y.r.y.y.t.,.D ",
"@X@X@X@X@X@X.X$.+...8 8 3 3 8 k :.`.m., B.`.E.(.; C.`.(.(.(.(.Q._.c.F D 7.).c.Y I I R y.u.y.5.Y D <.",
"@X@X@X@X@XOX@X@X@XOXE T U P K q.o./ =.C./ C.`.Q.] I.(.Q.(.Q.(.(.).E.R D g. XQ.R I I I ,.Q P I 4.P.@X",
"@X@X@X@X@X@X@XOXOX~.F I T G 3.XXoX].-.o.=._ Q.(.(.`.(.Q.(.(.(.(.Q.Q.! D Q f.7.F I I I I Q j.~.@X@X@X",
"@X@X@XOXOX@X@X@X@X^.I I M q x +.@.o.w.s.#.n.Y.(.(.V.Q.{.`.Q.Q.(.Q.}.a.V F G D R I I F <.@X@X@XOX@X@X",
"@XOX@X@X@XOXOX@X@XOXK w 9 c V.C.C.C.B.;.V.(.W.{.] . * ..C.{.].Q.`.;.: 2 % g T G I I F ~ @X@X@X@X@X@X",
"@XOX@X@XOX@X@X}.^.H.r u T L.].(.`.`.`.].]...B.}./   .   O p n.].A.( N.~ m $ 0 T I I I R XX@XOX@X@X@X",
"@X@X@XOX@X~.0.R I C v t 8 N.`.Q.Q.Q.Q.(.I.( `.`.S.+ . X .   . n.(.(..Xg.G L + M U I I Y OX@X@X@X@X@X",
"@XOX@X}.8.F D I I T N y < @ C.`.(.(.Q.(.`./ %.(.]...  .   . # B.`.Q.A.I.~ T g 3 T I I Y oX@XOX@X@X@X",
"@X@X~.R D I T I I N 0 M Z 9 ` {.Q.(.(.(.(.I.p ; a , O * ] ;.Y.`.).I.o.=.{ u F U I I F I oX@X@X@X@X@X",
"@X~.I F Y I I I I I T E P v 6 E.(.(.(.(.Q.].A.k r.y.} ; ].oXoXN.w.I.*.%.M.X.4 f U U P Q oX@X@X@X@X@X",
"}.R F T I I I I I I P e 8 e = Y.(.(.Q.(.(.Q.). .x t.i.s @  . ./ I.N.=.s._ N.7.4 2 K U <.OX@XOX@X@X@X",
"4.D I I Y I I I I I M u E m j ].Q.(.(.(.(.(.`.(.@.a a i  .=.;.Q.(.].%.s.Q., -.p.f < m h.OX@XOX@X@X@X",
"I I I I I I I I T G G T A 1 n.`.Q.(.(.(.Q.(.Q.Q.{./.S.W.{.{.{.(.Q.(.`._ C.].^ *.p.V o e.OXOX@X@X@X@X",
"I I I I F F A n r r r d k b.{.Q.(.Q.).Q.Q.(.).Q.Q.`.`.Q.Q.Q.Q.(.(.Q.{.d.` {.Q.> s.k.J > /.@XOX@XOX@X",
"I I I F R 1.O.=.V.F.S.F./.|.(.Q.Q.Q.Q.`.(.(.Q.(.Q.Q.Q.Q.(.Q.(.(.(.Q.Q.].( N.{.V.; W.oXZ.: @X@X@X@X@X",
"I I F 7.U.).).{.`.`.(.`.(.Q.(.(.Q.`.).(.).`.Q.Q.Q.Q.Q.Q.Q.Q.(.(.Q.(.Q.{.#...{.{.o.( @X@X*./ @XOXOXOX",
"F Q x._.).Q.(.Q.Q.(.Q.(.(.(.Q.(.Q.).Q.(.Q.Q.Q.).Q.`.{.}.{.`.Q.Q.(.Q.Q.`.N.^ `.W.`., F.@X@X^ :.@XOX@X",
"R J._.Q.Q.Q.(.(.(.(.(.(.(.(.(.(.(.(.).(.Q.(.Q.Q.{.A.$.] #.V.`.(.Q.(.(.(.W.( Y.).@XM.' @X@X_.: .X@X@X",
"K.).Q.(.(.Q.(.(.(.).(.(.(.(.(.(.(.(.Q.(.(.Q.Q.{.$.= g v b w | Y._.(.(.(.(.o.(.@X@X@X_ D.@X@X$.+.@XOX",
").(.(.(.(.(.(.(.(.(.(.(.(.(.(.(.(.(.Q.(.(.Q.{.+.1 F T T T E n l E.).Q..X@X@XOX@X@X@XZ.+.@XOX@X( /.@X",
"(.(.(.(.(.(.(.(.(.(.(.(.(.(.(.(.(.(.(.Q.Q.}.&.% G T P I P P T A ~ (.Q..X@X@XOXOX@X@X@X_.@X@X@XF./.@X",
"Q.Q.Q.`.).Q.Q.`.(.(.).Q.Q.).Q.Q.(.(.(.W.}.q.% L T I I I I I A T G r._.].@X@X@X@XOX@X@X@XOX@XOX@X@XOX",
"`.).Q.Q.Q.).Q.Q.(.(.Q.).).Q.Q.).(.(.Q.}.:.% Z T I I I I I I I I I I z. XOX@XOX@XOX@XOX@X@X@X@XOX@X@X",
"Q.Q.).Q.Q.].).Q.(.(.(.Q.).Q.).Q.(.(.}.$.% A T P I I I I I I I I I G U x.OX@XOX@X@X@X@X@X@X@X@XOXOX@X",
"Q.).Q.Q.`.Q.Q.Q.(.(.).).Q.Q.`.Q.Q.`.' 1 P R I I I I I I I I I I I P F I ].@XOX@X@X@X@X@X@X@X@X@X@X@X",
"].Q.).Q.Q.Q.).].Q.`.).Q.Q.Q.).Q.`.h ` 3.I P P T I I I I P T P I I I R F !.OXOX@X@X@X@X@X@X@X@X@X@X@X",
"Q.Q.Q.).`.Q.Q.Q.Q.Q.Q.).`.Q.Q.}.#.( Y.9 y I T I I I I P G J P I I I I D L.@XOX@X@X@X@X@X@X@X@X@X@X@X",
").Q.Q.`.).Q.Q.`.].Q.Q.Q.Q.Q.Q.{.h  .` c S I A F I P I E t % F I I I I D v.@XOX@X@X@X@X@X@X@X@X@X@X@X",
"Q.).Q.Q.Q.).Q.Q.Q.).).Q.).Q.Q.{.o.# _.[.,.8 c 3.T T Z 5 & Z T F I F R D v.@XOX@X@X@X@X@X@X@X@X@X@X@X",
"Q.`.Q.`.Q.].Q.Q.Q.).Q.Q.`.`.Q.Q.Q.j ` d.( :.W.d.z 2 1 t I T I I F I I D P.@XOX@X@X@X@X@X@X@X@X@X@X@X",
"Q.Q.Q.).Q.).Q.Q.Q.`.).Q.Q.Q.).Q.).`.=./ > / / ( = v I E I P I I I I I I ~.@X@X@X@X@X@X@X@X@X@X@X@X@X"
};
