/* XPM */
static char *d2abb2b455034d53a7b434e08fcf5d19k2BWTgtODz52EuRj[] = {
/* columns rows colors chars-per-pixel */
"50 50 195 2 ",
"   c #2B2628",
".  c #312D2E",
"X  c #353031",
"o  c #3C3738",
"O  c #3D3839",
"+  c #423D3E",
"@  c #494444",
"#  c #575253",
"$  c #595454",
"%  c #664F43",
"&  c #755747",
"*  c #625D5D",
"=  c #755E53",
"-  c #696464",
";  c #6D696A",
":  c #746660",
">  c #79706D",
",  c #767272",
"<  c #7B7473",
"1  c #7D7979",
"2  c #8A5F45",
"3  c #86604A",
"4  c #8B634B",
"5  c #976648",
"6  c #94664A",
"7  c #9E6C4E",
"8  c #876754",
"9  c #9C6D51",
"0  c #9F745B",
"q  c #A46C4B",
"w  c #AC6F4A",
"e  c #B4744C",
"r  c #BA784F",
"t  c #A47253",
"y  c #AD7553",
"u  c #A7795D",
"i  c #B07753",
"p  c #B67952",
"a  c #BB7D57",
"s  c #B47D5B",
"d  c #83736C",
"f  c #8C766C",
"g  c #987A69",
"h  c #897872",
"j  c #837D7B",
"k  c #A87E65",
"l  c #C37E52",
"z  c #BD815C",
"x  c #86807E",
"c  c #A18578",
"v  c #C2825A",
"b  c #CA8458",
"n  c #CE885B",
"m  c #D38553",
"M  c #DE8B56",
"N  c #D68B5B",
"B  c #DA8D5C",
"V  c #E18D57",
"C  c #E3925F",
"Z  c #EB935B",
"A  c #F39355",
"S  c #F3965A",
"D  c #F3995E",
"F  c #FD9B5B",
"G  c #FFA05F",
"H  c #DA996F",
"J  c #D79B73",
"K  c #E39461",
"L  c #EA9761",
"P  c #EE9862",
"I  c #F39C63",
"U  c #FA9F63",
"Y  c #F39F69",
"T  c #FEA265",
"R  c #F4A26C",
"E  c #FDA56A",
"W  c #FFA96A",
"Q  c #E7A57C",
"!  c #F2A474",
"~  c #FFAD76",
"^  c #F1A87B",
"/  c #F4AB7C",
"(  c #FFB17C",
")  c #868280",
"_  c #8B8482",
"`  c #878789",
"'  c #8F8988",
"]  c #918885",
"[  c #9C8C83",
"{  c #948E8C",
"}  c #959191",
"|  c #9A9391",
" . c #9E9896",
".. c #989798",
"X. c #9E9A99",
"o. c #B89484",
"O. c #A69C97",
"+. c #A09B99",
"@. c #ABA19B",
"#. c #A8A29F",
"$. c #A6A4A3",
"%. c #ABA6A3",
"&. c #AEA9A7",
"*. c #B0AAA7",
"=. c #B3AEAC",
"-. c #BFB0A7",
";. c #B6B1AD",
":. c #AFAEB0",
">. c #BAB6B4",
",. c #BEB8B5",
"<. c #BCBABA",
"1. c #C19C91",
"2. c #D8A98B",
"3. c #D6AC9A",
"4. c #EDAB8B",
"5. c #F0AD81",
"6. c #EDB18A",
"7. c #FBB585",
"8. c #F2B58C",
"9. c #E7B198",
"0. c #F3BA94",
"q. c #F4BD99",
"w. c #C5B6AC",
"e. c #D8BEAD",
"r. c #C3BAB4",
"t. c #C2BEBC",
"y. c #E3B0A1",
"u. c #E9B5A4",
"i. c #E8B7A9",
"p. c #E8B9AC",
"a. c #F0BDAE",
"s. c #E9BEB1",
"d. c #F7C29F",
"f. c #FFC79E",
"g. c #C6C1BD",
"h. c #C9C3BF",
"j. c #DDC5B6",
"k. c #EFC2A4",
"l. c #EEC6AA",
"z. c #F5C3A2",
"x. c #F9C6A4",
"c. c #F7CAAD",
"v. c #FCCAA8",
"b. c #EAC3B7",
"n. c #EECBB3",
"m. c #EECEB9",
"M. c #F6CFB5",
"N. c #EDD1BE",
"B. c #FBD1B5",
"V. c #FAD5BC",
"C. c #C4C4C4",
"Z. c #CBC6C3",
"A. c #CEC9C5",
"S. c #CCCAC9",
"D. c #D2CBC7",
"F. c #D6CECA",
"G. c #D6D0CC",
"H. c #D9D3CE",
"J. c #D5D3D3",
"K. c #DBD5D1",
"L. c #DFD9D5",
"P. c #DCDBDA",
"I. c #EACCC1",
"U. c #EDD5C5",
"Y. c #EBD5CB",
"T. c #EAD8CB",
"R. c #F4D8C5",
"E. c #F9DAC6",
"W. c #E1DAD5",
"Q. c #ECDCD3",
"!. c #E4DED9",
"~. c #ECE0D7",
"^. c #E6E1DC",
"/. c #EAE4DE",
"(. c #FAE2D2",
"). c #FBE6DA",
"_. c #FBE9DD",
"`. c #E5E4E4",
"'. c #ECE6E1",
"]. c #EDE9E4",
"[. c #ECEBE9",
"{. c #F2EBE6",
"}. c #FBEDE3",
"|. c #F3EEE9",
" X c #F6F1EC",
".X c #FAF2EC",
"XX c #ECF2F6",
"oX c #F5F2F0",
"OX c #F6F3F2",
"+X c #FBF7F3",
"@X c #F9F7F5",
"#X c #FCF9F6",
"$X c #F7F9F9",
"%X c #FDFDFD",
"&X c white",
/* pixels */
"&X&X&X&X&X&X&X&X&X&X&X&X&X&X&X&X%X'.'.'.@X&X&X&X&X&X&X&X&X&X&X&X&X&X&X&X&X&X&X&X&X&X&X&X&X&X&X&X&X&X",
"&X&X&X&X&X&X&X&X&X&X&X&X&X&X%X&XoX/.'././.@X&X&X&X%X%X&X&X&X&X&X&X&X&X&X&X&X&X&X&X&X&X&X&X&X&X&X&X&X",
"&X&X&X&X&X&X&X&X&X&X&X&X&X&X%X&XOX/.'.[././.@X&X&X&X%X&X&X&X&X&X&X&X&X&X&X&X&X&X&X&X&X&X&X&X&X&X&X&X",
"&X&X&X&X&X&X&X&X&X&X&X&X&X&X&X&XOX'.Y.Q.[./.'.%X&X&X&X&X&X&X&X&X&X&X&X&X&X&X&X&X&X&X&X&X&X&X&X&X&X&X",
"&X&X&X&X&X&X&X&X&X&X&X&X&X&X&X&XOX/.b.u.Y.'./.[.&X&X&X&X&X&X&X%X&X&X&X&X&X&X&X&X&X&X&X&X&X&X&X&X&X&X",
"&X&X&X&X&X&X&X&X&X&X&X&X&X&X%X&XOX/.b.u.p.Q.]./.|.&X&X&X&X%X%X&X&X&X%X&X&X&X&X&X&X&X&X&X&X&X&X&X&X&X",
"&X&X&X&X&X&X&X&X&X&X&X&X&X&X%X&X X/.s.i.i.b.'.'./.oX&X&X&X&X&X&X%X%X%X&X%X&X&X&X&X&X&X&X&X&X&X&X&X&X",
"&X&X&X&X&X&X&X&X&X&X&X&X&X%X&X&XOX/.p.u.u.s./.'.'.'.].'.].|.OX%X&X&X%X&X&X&X&X&X&X&X&X&X&X&X&X&X&X&X",
"&X&X&X&X&X&X&X&X&X&X&X%X&X&X&X&XOX/.Y.I.Q./.'.'.'.'.'.'././././.c.}.&X&X&X&X&X&X&X&X&X&X&X&X&X&X&X&X",
"&X&X&X&X&X&X&X&X&X&X%X&X&X&X&X&X].'.'.].'.'.'.'.'.'.'.'.'.'.'.Q.S I z.#X&X%X&X&X%X&X&X&X&X&X&X&X&X%X",
"&X&X&X&X&X&X&X&X&X&X&X&X&X&X&X[./.'./.'.'.'.'.'.'.'./.'.'./.[.m.U I A ! ).&X&X&X&X&X&X&X&X&X&X&X&X&X",
"&X&X&X&X&X&X&X&X&X&X&X%X&X&X{./.'.'.'.'.'.'.'.'.'.'.'.'.'./.[.n.D I R D I R.&X#X#X@X}.}.}.}.}..X%X&X",
"&X&X&X&X&X&X&X&X%X&X&X&X&X]./.'.'.'.'.'.'.'.].`.].'.'.'.'./.{.l.D I I I I I / R I I I I I I I I Y (.",
"&X&X&X&X&X&X&X&X&X&X&X&X|./.'.'.'.'.'.'.'./.q.8.Q.'.'.'.'./.[.z.A Y I I I I D I I ! ! ! ! ! ! I A 0.",
"&X&X&X&X&X&X&X%X&X%X&X$X/.'.'.'.'./.'./.].N.A A l.[./.'.'.'.[.l.A I I I I I I I 9.i.i.i.u.p.y.I A V.",
"&X&X&X&X&X&X&X%X%X%X Xm.]./.'.'.'./.'.[.|.~.5.^ Y.].'.'.'.'.[.n.D I I I I I I I 4.p.i.u.p.p./ A 8.&X",
"&X&X&X&X&X&X&X&X&X&Xx.F N.]././.'.|.W.G.G./.|./.].'.'.'.'./.[.U.I I I I I D I I R u.i.p.9.! A z.%X&X",
"%X&X%X].P.C.t.<.:.>.z b H ^. X X'.{ < j ) - *.|./.'.'.'.'.'.'.Q.R D I z.U./ S I D 4.9./ S ^ ).&X&X%X",
"%X&XP.$.:.=.:.t.C.c w t 6 f } ,.!.W.!.'.{.G.* t.|././.'.'./.'.[.6.S ! [.XXn.S R I I D R B.%X&X%X&X&X",
"&X&X&X&X&X&X&X&X@Xf.G W G 6.A. .j =.{.{./.+X&.j .X/.'.'.'././.[.l.S I l.T./ S I I A 0.&X&X&X%X&X&X%X",
"&X&X&X%X&X&X&X&X_.C B n b J W.{.'.#.) H.|.{.D.| {./././.'.'.'.'.Q.R T T T D I P Y A q.&X&X&X&X&X&X&X",
"%X&X&X%X&X[.:.$.[ 6 9 9 7 t { } | h.g._ t.{././.{.{.'.^./.'.'./. X2.w y B T I T I I ! #X&X&X%X&X&X&X",
"&X&X&X%X&X[.P.XXR.I T T G 7. X'.K.=.&.;.| !.].].F.L.{..X|.{./.|.&., s t % i T D I I Y }.&X%X&X&X&X&X",
"&X&X&X&X&X&X&X&X(.D P T S 9.S.,.,.g.r.;.!.'.|.=.O @ ; { ;.K.{.!.} ^.v.G K % i T I I A R.&X%X%X&X&X&X",
"&X&X&X%X&X%X%X&X}.Y I n 7 [ &.r.Z.G.A.L.W.D..X#.. o X X O O $.|./.|.{.8.G L % C I Y A B.&X%X&X&X&X&X",
"&X&X&X&X&X&X%X&X&X/ p e J /. X{.{.].]..X%.g.{.].j X + + X   x |./.D.>.r.n Z T T I Y A x.&X&X%X&X&X&X",
"&X&X%X&X&X&X&X&X&X3.e M z.|.^.`./.'./.|.*.+..X|.'.* X O # O.^.{.{.h.#.<.;.0 5 v I T A q.&X%X&X&X&X&X",
"&X%X&X%X&X&X_.d.! a a q f G.{.'.'.'.'.'.'._ j ' < h @ X..X+X+Xt.h.D.;.#.;.Y.Q q 4 v F x.&X%X%X&X&X&X",
"&X&X&X&X@Xx.I A P U B i & $ W.]./.'.'.'.'. X#.g u.a.1.< &.t.&.x !.G.#.W.;.x w.f.V 6 2 M.&X%X&X%X&X&X",
"&X&X&X}.^ A I Y U n t B U l ]  X/.'.'.'.'.'.!.] o.3.y.f $ ] +.W.[.{.A.{ {.^._ ..V.~ r > `.&X%X%X%X%X",
"&X&X XR S Y I I U P U T B w = !.'./.'.'.'.'.].^.+.j j | L. X.X].'./. Xg.{ |.|.| _ /.B.F.; J.%X%X&X&X",
"%X%X5.A I I I I I I I p 7 N 8 L.].'.'.'.'.'./.]. X]./..X]./././.'.'./..X .%. X.X} _ %X&X`.; J.&X%X&X",
"&Xc.A I I I I I I I C a W Z f '.'./.'.'.'.'.'././././././.]././././.].].!.< !.'..X) %.&X&X`.; `.&X%X",
"}.R I I I I I I I T T U Z 9 t. X/.'.'.'.'.'.'.'.'.].]././././.].]./././..X .%. X'.oX1 J.&X&XJ., %X&X",
"c.A I I I I I T Z l t k [ g.{./.'.'.'.'.'.'.].'./.'./././.{./././.'./.'.|.A._ {.[.&X`.1 %X%X&X>.} &X",
"/ S I I Y D D v c =.J.P.[.{.'.'.'.'.'.].'.'./.'.'./.|.].P.P./.|.]./.]./.'./.X.[.&X%X&X<.$.&X$X&X$.C.",
"I I I I S / e.C.].|.{.{././.'.'.'.'.'.'.'.'./././. XC.x c 0 c @.W.|././. X$X X%X&X&X&X&XJ.%X&X&X%X`.",
"I I Y A 0./.[.|./././.'./.'.'.'.'.'.'.'.'./.'./.|.<.& N D D S m u j.].^. X&X&X&X%X&X%X%X&X&X&X&X&X&X",
"I I D k.[.'././.'.'.'.'.'.'.'.'.'.'.'./.'.'./.{.K.= Z T G P R T D Z m.[./.&X&X%X&X&X&X&X%X&X&X&X&X&X",
"I D 0.[./.'.'.'.'.'.'.'.'.'.'.'.'.'.'./.].'./.{.d b T D P I D I T D D m.[.#X&X&X&X&X&X&X&X&X&X&X&X&X",
"D / /./.'.'.'.'.'.'.'.'.'.'.'.'.'.'.'.]././. X@.6 E D I I I D I I I I I k.|.&X&X%X&X&X&X&X&X&X&X&X&X",
"I U.]./.'.'.'.'.'.'.{.'.'.'.'.'.'.'.'.'./.{.A.& Z I I I I I I I I I I I A 5.&X&X%X&X&X&X&X&X&X&X&X&X",
"8.[./.{.'.'.'.'.'.'.'.'.'.'.'.'.'.'.'./.]./.: N T I I I I I I I I I I I I I _.&X&X&X&X&X&X&X&X&X&X&X",
"Q.].'.'.'.'.'.'.'.'.'.'.'.'.'.'.'.'././.{.< r T I I I I I I I I I I I I Y A c.&X%X&X&X&X&X&X&X&X&X&X",
" X/.'.'.'.'.'./.'.'.'.'.{.'.'.'././.].{.` z T I I I I I I I I I Z I I I I A 0.&X%X&X&X&X&X&X&X&X&X&X",
"%X/.'.'.'.'.'.{.'.'.'.'.'.'.'.'.]./. X .} f.m P I I I I I I T 3 v T I I I D / &X&X%X&X&X&X&X&X&X&X&X",
"&X[./.'.'.'.'.'.'.'.'.{.'.'.'.'.].'.L., P.f w I U Z D P T T 6 4 U I I I I D ! &X&X&X&X&X&X&X&X&X&X&X",
"&XOX'.'.].'.'.'.'.'.'.'.'.'.'.'./.{.Z.1 X.-.( Z t Q ~ T B 3 t U I I I I I D ! @X&X%X&X&X&X&X&X&X&X&X",
"&X%X'.'.'.'.'.'.'.'.'.'.'.'.'.'./.'.'.- x %X_.[ C.'.w.9 3 v T I I I I I I I / &X&X&X&X&X&X&X&X&X&X&X",
"&XoX/./.'.'.'.'.'.'.'.'./.[./.{.'./.{.K.x j j ; { j ` 8 U T I I I D I I I A d.&X&X&X&X&X&X&X&X&X&X&X"
};
