/* XPM */
static char *result[] = {
/* columns rows colors chars-per-pixel */
"50 50 200 2 ",
"   c #2A282A",
".  c #312C2E",
"X  c #363132",
"o  c #3A3536",
"O  c #3E393A",
"+  c #423D3E",
"@  c #474243",
"#  c #575252",
"$  c #5A5555",
"%  c #765846",
"&  c #7E5B48",
"*  c #625D5C",
"=  c #695D58",
"-  c #745F56",
";  c #666160",
":  c #6B6564",
">  c #6E6968",
",  c #757577",
"<  c #7B7473",
"1  c #7F7976",
"2  c #7B7778",
"3  c #7F7B7B",
"4  c #825C47",
"5  c #915F41",
"6  c #8D6147",
"7  c #8B634B",
"8  c #936346",
"9  c #90664C",
"0  c #96694E",
"q  c #9C6A4C",
"w  c #816453",
"e  c #946C55",
"r  c #986F57",
"t  c #A46C4B",
"y  c #B27149",
"u  c #BD784D",
"i  c #A67151",
"p  c #AB7452",
"a  c #A7795C",
"s  c #B47954",
"d  c #BC7C55",
"f  c #836C63",
"g  c #877368",
"h  c #997965",
"j  c #857A76",
"k  c #817D7C",
"l  c #937D71",
"z  c #C07A4E",
"x  c #C07F56",
"c  c #89817E",
"v  c #92837B",
"b  c #AC8269",
"n  c #A0827B",
"m  c #C58156",
"M  c #CB8254",
"N  c #C1825B",
"B  c #CC8659",
"V  c #CE885C",
"C  c #D88957",
"Z  c #DE8A55",
"A  c #D48B5C",
"S  c #DC905E",
"D  c #F5904F",
"F  c #E28D56",
"G  c #EE9053",
"H  c #E3925D",
"J  c #EB965F",
"K  c #F39456",
"L  c #F3965A",
"P  c #F4995E",
"I  c #FC9A5A",
"U  c #C98962",
"Y  c #D08C60",
"T  c #D99264",
"R  c #C79676",
"E  c #E49764",
"W  c #ED9962",
"Q  c #F39C63",
"!  c #F99E63",
"~  c #F39F69",
"^  c #E29D71",
"/  c #FDA265",
"(  c #F4A16C",
")  c #FFA86A",
"_  c #EFA77E",
"`  c #F2A574",
"'  c #F4A877",
"]  c #FFAD73",
"[  c #F3AB7C",
"{  c #878687",
"}  c #8B8684",
"|  c #8F8D8E",
" . c #988D87",
".. c #928D8C",
"X. c #96918E",
"o. c #9F948E",
"O. c #979494",
"+. c #9B9593",
"@. c #9D9896",
"#. c #9B9A9A",
"$. c #AB8E86",
"%. c #A4958D",
"&. c #A19C9A",
"*. c #A5A19E",
"=. c #ABA29D",
"-. c #A5A2A1",
";. c #ABA6A4",
":. c #AFA9A6",
">. c #ADAAAA",
",. c #B3ABA6",
"<. c #BBAFA7",
"1. c #B3AEAB",
"2. c #B7B1AD",
"3. c #B3B2B2",
"4. c #BBB5B2",
"5. c #BBB8B7",
"6. c #BCBABB",
"7. c #C49D8C",
"8. c #D5A89B",
"9. c #EFA984",
"0. c #EDAD8D",
"q. c #F5AF81",
"w. c #F3B185",
"e. c #FCB483",
"r. c #F4B58C",
"t. c #FDB788",
"y. c #EBAF95",
"u. c #EDB094",
"i. c #F3B993",
"p. c #F4BE9B",
"a. c #C2AFA3",
"s. c #D4BAAA",
"d. c #C1BAB5",
"f. c #C3BEBC",
"g. c #E9B5A5",
"h. c #E5B6A9",
"j. c #E9B7A9",
"k. c #E8B8AB",
"l. c #E7BAB1",
"z. c #F7C09D",
"x. c #CDC3BC",
"c. c #D9C4B7",
"v. c #EFC1A3",
"b. c #EFC6AB",
"n. c #F6C5A4",
"m. c #FBC7A4",
"M. c #EECCB6",
"N. c #EAC7BC",
"B. c #EBCFBB",
"V. c #F9CBB3",
"C. c #EED0BC",
"Z. c #F9D1B7",
"A. c #FAD3B9",
"S. c #FFD9B9",
"D. c #C1C0C0",
"F. c #CBC5C2",
"G. c #CECBC9",
"H. c #D4CBC5",
"J. c #D4CFCB",
"K. c #D6D0CC",
"L. c #D9D2CE",
"P. c #D6D4D3",
"I. c #DCD7D3",
"U. c #DDD9D6",
"Y. c #DBDADA",
"T. c #EACCC1",
"R. c #ECD3C6",
"E. c #EBD4CC",
"W. c #EED9CA",
"Q. c #F9DAC6",
"!. c #F1DCCE",
"~. c #FBDECB",
"^. c #E1DBD6",
"/. c #ECDDD4",
"(. c #E3DDD9",
"). c #EBDFD8",
"_. c #E6E1DC",
"`. c #EAE4DE",
"'. c #FBE3D3",
"]. c #F1E3D9",
"[. c #FBE6D9",
"{. c #FCEADE",
"}. c #DDE0E3",
"|. c #E5E3E2",
" X c #ECE6E1",
".X c #EDE9E4",
"XX c #E3E7EB",
"oX c #ECEBEA",
"OX c #F0E7E0",
"+X c #F1EBE5",
"@X c #FBEDE3",
"#X c #F4EEEA",
"$X c #FFF0E4",
"%X c #F6F1EC",
"&X c #FAF2ED",
"*X c #EAF2F6",
"=X c #F5F3F2",
"-X c #FBF6F2",
";X c #FCF9F5",
":X c #FFFFFE",
/* pixels */
":X:X:X:X:X:X:X:X:X:X:X:X:X:X:X:X:X:X:X:X:X:X:X:X:X:X:X:X:X:X:X:X:X:X:X:X:X:X:X:X:X:X:X:X:X:X:X:X:X:X",
":X:X:X:X:X:X:X:X:X:X:X:X:X:X:X:X:X:X:X:X:X:X:X:X:X:X:X:X:X:X:X:X:X:X:X:X:X:X:X:X:X:X:X:X:X:X:X:X:X:X",
":X:X:X:X:X:X:X:X:X:X=X;X:X:X:X:X:X:X:X:X:X:X:X:X:X:X:X:X:X:X:X:X:X:X:X:X:X:X:X:X:X:X:X:X:X:X:X:X:X:X",
":X:X:X:X:X:X:X:X:X.X`. X+X;X:X:X:X:X:X:X:X:X:X:X:X:X:X:X:X:X:X:X:X:X:X:X:X:X:X:X:X:X:X:X:X:X:X:X:X:X",
":X:X:X:X:X:X:X:X:X|. X X`. X#X:X:X:X:X:X:X:X:X:X:X:X:X:X:X:X:X:X:X:X:X:X:X:X:X:X:X:X:X:X:X:X:X:X:X:X",
":X:X:X:X:X:X:X:X:X+X X X.X|.`..X=X:X:X:X:X:X:X:X:X:X:X:X:X:X:X:X:X:X:X:X;X:X:X:X:X:X;X:X:X:X:X:X:X:X",
":X:X:X:X:X:X:X:X:X#X|.E.T.`..X`.|.%X:X:X:X:X:X:X:X:X:X:X:X:X:X:X:X:X:X:X:X:X;X@XZ.r.( n.:X:X:X:X:X:X",
":X:X:X:X:X:X:X:X:X-X.XN.y.k.E..X X`.#X-X%XoX X X.XR.w.p.A.@X:X:X:X:X:X;X'.n.[ Q K K P Q &X:X:X:X:X:X",
":X:X:X:X:X:X:X:X:X;X.XE.g.g.j.E..X`. X`.`. X X X.XW.P K L Q r.'.:X'.n.' L K Q ' 0.9.P ~ &X:X:X:X:X:X",
":X:X:X:X:X:X:X:X:X:X.X).k.j.g.N. X X X X X X X]. X_.( Q Q Q L Q ` P K P ' 0.y.k.l.u.K p.:X:X:X:X:X:X",
":X:X:X:X:X:X:X:X:X:X#X|.l.k.R.`. X X X X|..X`. X|..X[ P Q ~ Q Q P ~ Q y.j.l.g.k.j.~ ( -X:X:X:X:X:X:X",
":X:X:X:X:X:X:X:X:X:X-X|.).)..X X X XOX`. X`..X`.].oXi.L Q Q Q Q Q Q P 9.j.g.g.k._ ! [.:X:X:X:X:X:X:X",
":X:X:X:X:X:X:X:X:X:X;X.X|..X X X X X`.`.`. X`. X`..XM.P Q Q Q Q Q Q Q Q 9.l.k._ L ~.:X:X:X:X:X:X:X:X",
":X:X:X:X:X:X:X:X:X:X%X`.`. X X X X XoXoX.X X.X`. X.X_.( Q Q Q P L P Q Q Q 9.` L Q.:X:X:X:X:X:X:X:X:X",
":X:X:X:X:X:X:X:X:X:X|. X X X XOX X`.p.b..X`. X`. X`..Xv.L Q Q ' b.q.P Q Q P Q Q.:X;X:X:X:X:X:X:X:X:X",
":X:X:X:X:X:X:X:X:X#X`. X X X X`.oXv.D P R..X`. X X X.X/.( Q P C.*X/.Q Q Q Q ~ @X:X:X:X:X:X:X:X:X:X:X",
":X:X:X:X:X:X:X:X:X.X`..X.X`..X`..XB.Q ' ]. X`. X X X`.oXv.L Q z..XM.W Q Q Q L r.:X:X:X:X:X:X:X:X:X:X",
":X:X:X:X:X:X:X:X#X`.`.`.`.`.`.`.+X%X{.`. X`. X`. X X.X X`.[ P W ' / Q Q Q Q Q L '.:X;X:X:X:X:X:X:X:X",
":X:X:X:X:X:X:X:X X`..X`..X`.#X+XH.;.&.(.#X`.`..X X X X`..XW.( / H H P / Q Q Q L q.:X:X:X:X:X:X:X:X:X",
":X:X:X:X:X:X:X&X`..X`.`.`..XF.1 3 &.| * F.#X`.`. X X`. X`.oXC.8 % % % p / Q Q Q P '.:X:X:X:X:X:X:X:X",
":X:X:X:X:X;X:Xb.[ ].#X#X#X`.X.d.+X%X;X4.; `..X`.`.`.`.`.`.+X{ %.( P A % & Q Q Q L p.:X:X:X:X:X:X:X:X",
":X:X:X:X:X:X:Xe.G ^ H.G.J.K._.&X%X`._.%X@.L..X`.+X`..X+XoXL.X.&XW.' / ) V Q / / Q ( ;X:X:X:X:X:X:X:X",
":X:X:X:X:XY.2.e 7 6 e o.X.} ..X.1.L.#X`.`.+X#X`.`._.(.K.^..X`.`.`.H.R u u d m S W / {.:X;X:X:X:X:X:X",
":X:XXX>.| #.,.A H / / S.;X`.^.F.1.X.:._.`.`.c # # @ @ + # I..X`.:.&.3.d.7.N t 8 7 q s.:X:X:X:X:X:X:X",
"_.;.O.5.oX:X;X) / W x a ....&.*.2.1.:.(.OX^.o . O o O X + K..X+Xf.2.2.&.1.s.z.e.J z g { 6.:X:X:X:X:X",
"D.Y.:X:X:X:X:XY q 9 i m c.|.+XI.F.1.K.).(.+X:.@ X + X @ d.%XK.x.J.;.H.L.2...{ ,.!.A.'.}.} 2 P.:X:X:X",
":X:X:X:X:XP.O.r B Q / ! ~.U.;.=.4.J.#X;.K.#X&X(.>   * ^.;X-X+.4.#XJ.&.:.%X&XL.X.< 5.:X:X:XP., #.:X:X",
":X:X:X:X5.:.XXm.I Q ! W n +.F.|.+X+X%X4.} _.^.-.< f > :.2.} X..X`..X#X2.c L.%X%XH.1 | :X:X:X:X-.3 |.",
":X:X:X:X=X:X:X'.L / E 4 <.#X+X X X X X+X&.1 : l h.V.8.- * d..X.X`.`.`.&XF., J..X.X%X3., |.:X:X:XY.| ",
":X:X:X:X:X:X:X:Xw.Z 0 E [.|.). X X X X X+X X4.$.8.7.n 1 I.&X`.`..X X X`.&Xx.< `.`.%X:XY.3 P.:X;X:X:X",
":X:X:X:X:X:X;X:X$XU V C c.&X+X X X X X X X X+Xf.+.X.=._..X`.`..X X X`. X`.&X;.X.%X:X;X:XoX6.:X:X:X:X",
":X:X:X:X:X:X:X:X@Xb t i - , P.+X_. X X X X X X+X%X%X%X.X`..X`.`.`.`..X X|.`..X@.oX:X:X:X:X:X:X:X:X:X",
":X:X:X:X:X:X:XZ.Q H ! s q t f I.+X`. X`.`..X`.`.`.`.`.`. X|.`.`.`.`.`.`. X X%X:X:X:X:X:X:X;X:X:X:X:X",
":X:X:X:X:X:Xn.K Q / p d / ) 5 c #X`.`..X X XOX`..X`.`.|.`. X%X%XoX%X#X.X`.`.;X:X:X:X:X:X:X:X:X:X:X:X",
":X:X:X:X:XV.K ~ Q Q S ! Q 9 m e (..X X X.X.X`..X`..X.X`.+X`.3.%.n %.a._.oX XoX;X:X:X:X:X:X:X:X:X:X:X",
":X:X:X:X{.Q P Q Q Q Q / p N / e Y.OX`. X`.`..X`..X`.`.+XP.k s Z H Z M E z.`.oX%X:X:X:X:X:X:X:X:X:X:X",
":X:X:X:Xw.L Q Q Q Q Q W B / F v .X`. X X.X X X`.`.`.`..Xg B / / / / / P L ` b./.;X:X:X:X:X:X:X:X:X:X",
":X;X:X].P Q Q Q Q Q P / / C h F.#X`. X X`.`..X.X.X`.%X4.0 / W P W P P P ( P P P r.:X:X;X:X:X:X:X:X:X",
":X:X:Xn.L ~ Q Q Q Q / Z r o.I.#X`.`. X X XOX`. X`. X%Xc M / W Q Q P ( ( P P ( ( K V.:X:X:X:X:X:X:X:X",
":X:X:X_ P Q Q Q Q / M v K.#X.X`..X X`. X X X.X`.`.OX^.w J / Q Q ( P P P P ( P P Q ~ %X:X:X:X:X:X:X:X",
":X:X-X( Q Q Q Q P V =.oX#X`.`..X`. X.X X X.X X X`.%X<.8 / W Q Q Q Q Q P Q Q Q P Q L n.:X:X:X:X:X:X:X",
":X:X@XQ Q Q Q P ' x. X.X`.`.`.`. X`.`.OX X`. X X`.%Xv z / Q Q Q Q Q Q Q / Q Q Q Q P ( -X:X:X:X:X:X:X",
":X:X{.~ Q Q P ( /.#X`.`..X`.`..X X.X.X`..X.X`.`..XU.w P Q Q Q Q Q Q / A s / Q Q Q Q P Q.:X:X:X:X:X:X",
":X:X&X( Q Q P M.oX`.`. X`.`..X`.`..X`..X`.`. X`.&X-.t / Q Q Q Q Q W / 9 s / Q Q Q Q K n.:X:X:X:X:X:X",
":X:X;X` Q L w..X`.`.OX`..X`..X`.`. X.XOX.X`.|. X_.< H ! Q Q Q Q Q / A 4 Q Q Q Q Q Q K p.:X:X:X:X:X:X",
":X:X:Xr.L Q C..X`.`..X`.`..X.X`..X X`.`.`. X`.&X;. .] C Q / P L P Q & A / Q Q Q P ( K z.:X:X:X:X:X:X",
":X:X:XA.K ' `..XOX.X`..XOX`.`..X.X`.`..XOX X`.OXk L.a y / B T t.( 4 d / Q Q Q Q Q ( K V.:X:X:X:X:X:X",
":X:X:X&XP r.oX`.`.`.`..X.X`..X`. X`..X`..X`..XI.j D. .t.E l OXH.= d / Q Q Q P Q Q P Q {.:X:X:X:X:X:X",
":X:X:X:Xi.v.oX`. X X X X X X.X X X X X X.X X X Xk < (.:X,.-.&.} >.a / P Q Q Q Q Q Q ( '.:X:X:X:X:X:X",
":X:X:X:X{.C..X`. X X.X X X X X X X X X X`.OX`.#XF.$ c +.: 1 4..X-X+.p / Q Q Q Q Q Q L r.;X:X:X:X:X:X"
};
