/* XPM */
static char *_c8eaf56c7c840c3c16aca0256402503miSaJW9bN8hkITN2[] = {
/* columns rows colors chars-per-pixel */
"50 50 193 2 ",
"   c #2F2A2C",
".  c #342F31",
"X  c #393435",
"o  c #393436",
"O  c #3C3738",
"+  c #423D3E",
"@  c #4A4646",
"#  c #534E4E",
"$  c #5E5554",
"%  c #6A5043",
"&  c #735646",
"*  c #7C5843",
"=  c #7A5B49",
"-  c #625C5C",
";  c #666160",
":  c #6C6766",
">  c #756A68",
",  c #747273",
"<  c #7B7574",
"1  c #7E7A7A",
"2  c #96603F",
"3  c #875E46",
"4  c #8C6046",
"5  c #8C634B",
"6  c #956649",
"7  c #996648",
"8  c #9C6A4C",
"9  c #886957",
"0  c #9E6D50",
"q  c #93715C",
"w  c #A46E4D",
"e  c #A86E4A",
"r  c #A4704F",
"t  c #AF734E",
"y  c #B1734D",
"u  c #BB774D",
"i  c #AB7453",
"p  c #A7775B",
"a  c #B57954",
"s  c #B87D58",
"d  c #836F65",
"f  c #8D7262",
"g  c #86716C",
"h  c #987561",
"j  c #837874",
"k  c #847E7C",
"l  c #87817F",
"z  c #99827A",
"x  c #A1816C",
"c  c #C38057",
"v  c #C98357",
"b  c #CB865A",
"n  c #D48655",
"m  c #D38B5D",
"M  c #D98D5C",
"N  c #E28C55",
"B  c #E28F59",
"V  c #E6925C",
"C  c #EB945C",
"Z  c #F39355",
"A  c #FB9654",
"S  c #F3965A",
"D  c #F4995E",
"F  c #FD9C5D",
"G  c #D49369",
"H  c #CA9675",
"J  c #E29360",
"K  c #ED9862",
"L  c #F39C63",
"P  c #FA9F64",
"I  c #F19C69",
"U  c #FDA165",
"Y  c #F3A16D",
"T  c #FFA66A",
"R  c #F4A573",
"E  c #F2A877",
"W  c #F0A67C",
"Q  c #F3AB7B",
"!  c #868383",
"~  c #8A8583",
"^  c #8C8887",
"/  c #8E8B8B",
"(  c #998982",
")  c #928C8A",
"_  c #97918F",
"`  c #969494",
"'  c #9B9694",
"]  c #9D9A99",
"[  c #A18C80",
"{  c #A59186",
"}  c #A29D9C",
"|  c #A6A19E",
" . c #A8A29F",
".. c #BEA495",
"X. c #A4A2A2",
"o. c #AAA5A3",
"O. c #AEA9A6",
"+. c #AAA7A8",
"@. c #ADABAB",
"#. c #B0ABA7",
"$. c #B3ADAA",
"%. c #B6B1AD",
"&. c #B9B2AF",
"*. c #B6B4B3",
"=. c #BBB5B2",
"-. c #BEB9B6",
";. c #BDBABA",
":. c #C0988D",
">. c #C59F94",
",. c #CEAA93",
"<. c #D4A698",
"1. c #EBA983",
"2. c #EEAC8B",
"3. c #F2AE82",
"4. c #F2B185",
"5. c #F2B48C",
"6. c #FFBB8C",
"7. c #EDAE92",
"8. c #ECB197",
"9. c #EDBD9E",
"0. c #F2BA95",
"q. c #FABE97",
"w. c #F5BD9A",
"e. c #C4AFA2",
"r. c #C5B5AA",
"t. c #C3BEBB",
"y. c #D1BDB2",
"u. c #E8B4A4",
"i. c #E7B7A9",
"p. c #E8B8AB",
"a. c #E7BBB2",
"s. c #E9BEB1",
"d. c #FBC299",
"f. c #C6C2BE",
"g. c #C9C2BE",
"h. c #EFC3A6",
"j. c #EFC5A9",
"k. c #F6C4A3",
"l. c #F5C9AC",
"z. c #EECBB3",
"x. c #EAC9B7",
"c. c #F6C2B2",
"v. c #F4CDB2",
"b. c #F9CEB2",
"n. c #EED1BD",
"m. c #F9D4BB",
"M. c #FFDBBE",
"N. c #C6C3C3",
"B. c #CAC5C2",
"V. c #CCC9C6",
"C. c #CDCCCB",
"Z. c #D2CBC6",
"A. c #D3CECB",
"S. c #D6D0CC",
"D. c #D8D2CE",
"F. c #D3D3D3",
"G. c #DBD6D1",
"H. c #DFD9D4",
"J. c #DADADA",
"K. c #EACEC4",
"L. c #EBD3C6",
"P. c #EBD6CC",
"I. c #F6D7C2",
"U. c #F9D7C0",
"Y. c #FBDAC5",
"T. c #E1DBD6",
"R. c #ECDDD4",
"E. c #E4DED9",
"W. c #FAE0CF",
"Q. c #E6E1DD",
"!. c #EAE4DE",
"~. c #F9E5D7",
"^. c #FBE6D8",
"/. c #FCE9DD",
"(. c #E5E4E4",
"). c #ECE6E1",
"_. c #EDE9E5",
"`. c #ECEBEA",
"'. c #F1EBE5",
"]. c #FBEDE4",
"[. c #F3EEE9",
"{. c #F5F0EC",
"}. c #F9F2EC",
"|. c #EAF2F6",
" X c #F5F4F2",
".X c #FAF6F3",
"XX c #FAF8F7",
"oX c #FEF9F4",
"OX c #FDF9F6",
"+X c #F7F8F8",
"@X c #FDFDFC",
"#X c #FEFDFC",
"$X c white",
/* pixels */
"$X$X$X$X$X$X$X$X$X$X$X$X@X$X$X[.).{.$X$X$X$X@X@X$X$X$X$X$X$X$X$X$X$X$X$X$X$X$X$X$X$X$X$X$X$X$X$X$X$X",
"$X$X$X$X$X$X$X$X$X$X$X$X@X$XOX!.).!._.$X$X$X$X$X$X$X$X$X$X$X$X$X$X$X$X$X$X$X$X$X$X$X$X$X$X$X$X$X$X$X",
"$X$X$X$X$X$X$X$X$X$X$X$X$X$X XQ.).).Q.'.@X$X@X$X@X$X$X$X$X$X$X$X$X$X$X$X$X$X$X$X$X$X$X$X$X$X$X$X$X$X",
"$X$X$X$X$X$X$X$X$X$X$X$X@X$X+X!.).)._.)._.@X$X$X$X$X$X$X$X$X$X$X$X$X$X$X$X$X$X$X$X$X$X$X$X$X$X$X$X$X",
"$X$X$X$X$X$X$X$X$X$X$X$X$X$X+X_.L.a.R._.Q.'.$X$X$X@X$X$X@X@X$X$X$X$X$X$X$X$X$X$X$X$X$X$X$X$X$X$X$X$X",
"$X$X$X$X$X$X$X$X$X$X$X$X$X$X.X_.K.8.i.R._.).[.$X$X$X$X$X$X$X$X@X@X$X$X$X$X$X$X$X$X$X$X$X$X$X$X$X$X$X",
"$X$X$X$X$X$X$X$X$X$X$X$X$X$X$X).K.u.i.a.Q.).Q.[.@X@X$X$X$X$X$X$X@X$X$X$X$X$X$X$X$X$X$X$X$X$X$X$X$X$X",
"$X$X$X$X$X$X$X$X$X$X$X$X$X$X.X_.K.u.i.u.P._.).).).).).).[.[.{.@X$X$X@X@X$X$X$X$X$X$X$X$X@X$X@X$X$X@X",
"$X$X$X$X$X$X$X$X$X$X$X$X$X$XXX_.P.u.x.L.!.).).!.).).).).Q.`.9.R m.XX$X$X@X$X@X@X@X@X@X$X@X@X$X@X$X$X",
"$X$X$X$X$X$X$X$X$X$X$X$X$X$X$X).!.!.)._.!.).)._.).).).).!._.0.Z S R I.$X$X$X$X$X$X$X$X$X$X$X$X$X$X@X",
"$X$X$X$X$X$X$X$X$X$X$X$X$X$X XQ.).).!.).).).).).).).).).).).4.D L L S w.oX$XOX}.~.Y.m.b.b.d.q.b.@X$X",
"$X$X$X$X$X$X$X$X@X@X$X$X$X.XQ.).).).!.!.'.!.!.!.).).).).)._.3.D L L P S R Q Y L D Z Z Z Z S S Z m.$X",
"$X$X$X$X$X$X$X$X$X$X$X$X.X!.).).).).).).!.`.`.).!.).).).)._.5.D L L L L L D D Y W 1.2.7.8.2.L D I.$X",
"$X$X$X$X$X$X$X$X$X@X$X$X).).).).).).).).!.j.j.!.).!.'.!.!._.0.D L L L L L L L u.i.p.p.i.p.7.S E OX$X",
"$X$X$X$X$X$X$X$X$X@X$X'.).).).).).).!._.z.Z A n.`.!.).).!.`.p.S L L L L L L D 2.p.u.u.p.8.S Y ].$X$X",
"$X$X$X$X$X$X$X$X$X$X+XQ.).).).).).Q.Q._.L.Y Y P._.!.).).!._.n.D L L L S D L P I u.p.p.2.S 5.}.$X$X$X",
"$X$X$X$X$X$X$X$X$X.Xz._.!.).!.!.'.}.}.[..X~.R._.).).).).).).!.I L D 3.j.E D L D Q 7.I D l.$X$X@X$X$X",
"$X@X@X@X$X$X$X$X$XM.A v.{.!.!.!.G.} ) _ ~ t.[.).).).).).).).).4.D L Q.|.n.D L L K D 4./.$X$X$X$X@X$X",
"$X$X$X$X@X`.(.C.C.H v b x.(.{.}. .' t.D.=.- &.{.Q.).).).'.!.`.z.D L z._.k.D L L D Q $X$X@X$X$X@X$X$X",
"$X XN.X.] ` ` X.{ y i 8 f ! ) %.!.@X}.).oXB.: ).).).).).!.!.!.!.Y D U R D D L L L Y }.$X@X$X$X$X$X$X",
"$X`.C.(.|.$X$X$XM.F T T T !.Z. .l ' E.[.Q.).~ H.).!.).!.!.).!._.b.V b V P Y D Y L S m.$X@X$X$X$X$X$X",
"@X$X$X$X@X@X$X$X0.N m b n r.V.T.T.$.~ g.[.!.T.!.'.'.!.Q.!.!.).[. .& 5 & 5 D P K L S w.$X@X$X$X$X$X$X",
"$X$X@X$X@X`.C.+.h 6 8 i t z | _ ' $.t.! t.'.).!.S.Q.).{.}.'.[.&.l n.U D 5 % C U L D R @X$X$X$X$X$X$X",
"$X$X@X$X@X;.;.J.1.D U U U Y.@X}.T.t. .=.T.'.).< + # : l ' t.[.B.Q. Xz.P T w 6 P L L L }.$X$X$X$X$X$X",
"$X$X$X@X$X$X$X$Xq.S L U K r.O. .&.%.=.T.E.Q.).;   O X . . X -.}.!.H.F.,.N U P U L L L W.$X$X$X$X$X$X",
"$X$X$X$X$X@X@X@Xv.S L a q o.Z.T.!.!.!.'.| H.'.D.$ X O O . @ V.[.!.O.' O.z 7 e b L U S m.$X@X$X$X$X$X",
"$X$X@X$X@X$X@X@X/.C i u 9. X'.!.!.!.!.[.^ Z.OX.XD.@ . # ) D.[.T.E.g.&.O.Z.x.G 7 5 a D Y.@X@X$X@X$X$X",
"$X$X$X$X$X$X$X$X$XH a V v.`.!.!.).!.!.'.g., _ ) j g @ *.@X.X!./ H.f.%.S.} _ y.d.V 8 * y.$X@X@X$X@X$X",
"$X$X$X$X@X$X@Xm.4.p a w d V.{.!.)._.!.!._.T.1 z u.c.>.> ~ } 1 #.'.).%.O.OXS.! ` I.6.m < @.$X$X@X$X@X",
"$X$X$X$X$X~.Q S S U M i 3 $ A.'.!.).).).!.[.E.z :.<.<.g > %.S.[.!.!.}.%.' }.'.} 1 (.W.@X` ! $X$X@X$X",
"$X@X$X$Xm.L S L U m 0 M U n j _.!.!.).!.).!.'.T.} l l o._.}.).!.!.'.!.}.'  .{.}.%.: _.$X$X+.1 $X$X@X",
"$X@X$Xm.S L L L L K P U b t = G.'._.).).!.!.!.).}.'.[.{.).!.).).!._.!._.!.< S.!.}.$., @X$X$X@.1 $X$X",
"@X$X~.D L L L L L L P c 8 V 0 C.[.!.).).).!.).).!.!.!.!.!.)._.!.).!.).!.{.=.) {.E.$X*.! $X@X$X@./ $X",
"$XXXQ D L L L L D L L s U D f ).).).).).).).!.).).).!._.!.!.!.!._.!.!._.).).l D.{.@X$X] @.$X@X$X@.+.",
"$Xm.Z L L L L L L P U U C w @.[.!.).).).).!.).)._.).!.!.'.{.{.'.!.!.!.).Q.[.O.N.$X@X$X$X] (.@X@X$XV.",
"$X3.D L L L L P P M y p ( -._.).).).).).).'.).).!.!.).[.C.*.=.C._.{.!.!._.}. X+X$X@X$X$X$X+X$X$X$X$X",
"/.L L L L L U C c ( -.J._.[.!.).).).).).).).).).!._.!.^ q s c i x g._.!.!.@X$X$X@X$X$X$X$X$X$X$X$X@X",
"m.S L L L D R ..C.[.[.'._.!.).).).).).).).).).!.!.'.k t U U U U N n h._.!.{.$X$X$X$X@X$X$X@X$X@X$X$X",
"b.Z L L D 4.Q._._.).!.).).).).).).).).).).).!.!.}.| 6 T K L L K U U S 5.!.`.@X$X$X$X$X$X$X$X$X$X$X$X",
"w.S I S 5.!._.!.!.).).).).).).).).).).!._.).!.).T.= C U L L L L D K Y Z Q L.+X$X$X@X$X$X$X$X$X$X$X$X",
"w.S D 4.).!.!.!._.!.!._.!.).).).).).).).).).!.}.z y U L L L L P K P L L D D k.$X@X$X$X$X$X$X$X$X$X$X",
"k.Z Y R._.'.).).!.).!._.).).).).).).).).).!.].g.= L L L L L D L L L L L L D L }.$X@X$X$X$X$X$X$X$X$X",
"m.Z l._.!.).!.)._.!.).).).).).).!.).!._._.!.).> n U L L L K L L L L L L L L S m.$X@X$X$X$X$X$X$X$X$X",
"W.Y !.).).).).!.!._._.!.).).).).!._.!._.!.{./ r U K L D L L L K P U L L L L D 5.$X$X@X$X$X$X$X$X$X$X",
"}.l.!.!.).).).'.).).).).).).).).).).).!.{.@.9 U L L L Y L L K U b c U D L L D R OX$X$X$X$X$X$X$X$X$X",
"$X'.).).).).).).).).).).).)._.).).).!._.V., d.Z K K L D U K P L & b U K L P D L ].$X@X$X$X$X$X$X$X$X",
"$X+X!.).!.).).).).).).).'.).).).).).!.{.~ t.e.2 G U S S K U L = a U L L L L L L ].$X$X$X$X$X$X$X$X$X",
"$X$X_.!.).).).).'.).).).).).).).).!._.!.< *._ Q F t H 6.T n = a U K L L L L L L ].$X@X$X$X$X$X$X$X$X",
"$X$X X!.!.).).).).).).).).).).'.).).!.'.~ ; '.OX..} !.f.f 4 M U L P L L L L D Y OX$X$X$X$X$X$X$X$X$X",
"@X$X$X_.!.).).).).).)._.).).).).).).!.'.T.< l O., ~ l ' 1 M U L L L L L L L S w.$X@X$X$X$X$X$X$X$X$X"
};
