/* XPM */
static char *_ba9ddbef61b44acd1bf680217eec8455lk4EQWeUk9njr1V[] = {
/* columns rows colors chars-per-pixel */
"50 50 194 2 ",
"   c #2B2628",
".  c #2D2A2C",
"X  c #393435",
"o  c #3A3536",
"O  c #433E3E",
"+  c #464142",
"@  c #534D4D",
"#  c #565151",
"$  c #5D5958",
"%  c #664F42",
"&  c #6B5144",
"*  c #795946",
"=  c #7B5B49",
"-  c #635D5D",
";  c #78635A",
":  c #666160",
">  c #6A6463",
",  c #7C6A63",
"<  c #726D6B",
"1  c #767272",
"2  c #797473",
"3  c #7E7877",
"4  c #767578",
"5  c #7F7A7A",
"6  c #915C3B",
"7  c #8A5D42",
"8  c #835F4A",
"9  c #8A624B",
"0  c #966446",
"q  c #95664A",
"w  c #96694E",
"e  c #9D6C4F",
"r  c #956F59",
"t  c #9F7054",
"y  c #9D735A",
"u  c #A76D49",
"i  c #AB714E",
"p  c #B4754D",
"a  c #A16F50",
"s  c #AC7553",
"d  c #A67659",
"f  c #B37956",
"g  c #BA7C55",
"h  c #B57D5B",
"j  c #8E7364",
"k  c #847A76",
"l  c #907F75",
"z  c #C57D4F",
"x  c #C67E50",
"c  c #BE805A",
"v  c #87817E",
"b  c #968378",
"n  c #94847C",
"m  c #A48578",
"M  c #C48056",
"N  c #CA8356",
"B  c #D58654",
"V  c #D38A5C",
"C  c #DA8C5B",
"Z  c #DF915F",
"A  c #F58E4C",
"S  c #E38F59",
"D  c #E4935E",
"F  c #ED955C",
"G  c #F39455",
"H  c #FF9753",
"J  c #F3965A",
"K  c #F4995E",
"L  c #FA9B5D",
"P  c #C78C68",
"I  c #D18F65",
"U  c #E59561",
"Y  c #EF9961",
"T  c #EA9B67",
"R  c #F39C63",
"E  c #FA9E63",
"W  c #F29F6A",
"Q  c #FEA265",
"!  c #F3A26D",
"~  c #FFA76A",
"^  c #FFA96B",
"/  c #E0A077",
"(  c #F3A573",
")  c #F0A47A",
"_  c #F3AB7D",
"`  c #FBAE7C",
"'  c #8B8584",
"]  c #888788",
"[  c #938D8C",
"{  c #96908E",
"}  c #969393",
"|  c #9A9592",
" . c #9E9B9A",
".. c #A78C84",
"X. c #A99589",
"o. c #B09B8F",
"O. c #A29A96",
"+. c #A29E9C",
"@. c #A7A19E",
"#. c #AEA19B",
"$. c #A4A3A4",
"%. c #ABA5A2",
"&. c #ADA9A6",
"*. c #ABAAAA",
"=. c #B8ABA3",
"-. c #B3ADAB",
";. c #B6B1AE",
":. c #BAB3AF",
">. c #ACAFB2",
",. c #BAB6B2",
"<. c #BBB6B3",
"1. c #BDBBBA",
"2. c #C79C89",
"3. c #C6A38C",
"4. c #D6A88A",
"5. c #D4A79A",
"6. c #EFA780",
"7. c #EFA883",
"8. c #EEAC8A",
"9. c #F2AE82",
"0. c #EDB38C",
"q. c #F3B186",
"w. c #F3B58C",
"e. c #FDB88B",
"r. c #ECB598",
"t. c #ECBC9C",
"y. c #F4BA95",
"u. c #C4B6AD",
"i. c #C0BAB6",
"p. c #C3BDBA",
"a. c #E8B5A4",
"s. c #E8B7A9",
"d. c #E8B9AC",
"f. c #E9BEB1",
"g. c #F6C19E",
"h. c #C6C2BF",
"j. c #C9C3BF",
"k. c #EEC2A5",
"l. c #EBC4AB",
"z. c #EFC5A8",
"x. c #F2C1A1",
"c. c #FBCCA9",
"v. c #F9CAAC",
"b. c #E8C7B7",
"n. c #EECAB2",
"m. c #F7C8B4",
"M. c #F9CFB5",
"N. c #FBD2B6",
"B. c #F9D4BC",
"V. c #C6C4C4",
"C. c #CBC6C3",
"Z. c #CEC8C5",
"A. c #CCCCCD",
"S. c #D2CECA",
"D. c #D5D0CC",
"F. c #DAD4CF",
"G. c #D4D3D3",
"H. c #DBD5D1",
"J. c #DDD9D4",
"K. c #D8D7D8",
"L. c #DDDCDB",
"P. c #EACDC2",
"I. c #EDD5C4",
"U. c #EBD4CB",
"Y. c #EDDACD",
"T. c #F8D7C3",
"R. c #FAD9C4",
"E. c #F9DCC9",
"W. c #E1DAD5",
"Q. c #EBDBD2",
"!. c #E4DED9",
"~. c #FAE1CF",
"^. c #E5E0DC",
"/. c #EAE4DE",
"(. c #FAE4D5",
"). c #FAE9DE",
"_. c #E4E3E3",
"`. c #ECE6E1",
"'. c #EDE9E4",
"]. c #ECEBE9",
"[. c #F2EBE6",
"{. c #FBEDE4",
"}. c #F1EDE9",
"|. c #F4EEE9",
" X c #FEF0E5",
".X c #F6F1EB",
"XX c #FAF3ED",
"oX c #F5F3F2",
"OX c #FAF6F3",
"+X c #FDF9F4",
"@X c #FDFBFA",
"#X c #FEFDFD",
"$X c #FEFEFE",
"%X c white",
/* pixels */
"%X%X%X%X%X%X%X%X%X%X@X@X%X@X%X@X%X%X%X%X%X%X%X%X%X%X%X%X%X%X%X%X%X%X%X%X%X%X%X%X%X%X%X%X%X%X%X%X%X%X",
"%X%X%X%X%X%X%X%X%X%X%X%X%X%X%X@X%X@X%X%X%X%X%X%X%X%X%X%X%X%X%X%X%X%X%X%X%X%X%X%X%X%X%X%X%X%X%X%X%X%X",
"%X%X%X%X%X%X%X%X%X%X.X`.|.@X%X%X%X%X%X@X%X%X%X%X%X%X%X%X%X%X%X%X%X%X%X%X%X%X%X%X%X%X%X%X%X%X%X%X%X%X",
"%X%X%X%X%X%X%X%X%X@X`./.`.`.oX%X%X@X%X%X@X%X%X%X%X%X%X%X%X%X%X%X%X%X%X%X%X%X%X%X%X%X%X%X%X%X%X%X%X%X",
"%X%X%X%X%X%X%X%X%X@X/.`.`.`./.'.@X@X%X%X%X@X%X%X%X%X%X%X%X%X%X%X%X%X%X%X%X%X%X%X%X%X%X@X%X%X%X#X%X%X",
"%X%X%X%X%X%X%X%X%X%X'.`.!.`.'./.`.oX%X%X@X%X%X%X%X%X%X%X@X%X@X%X%X%X@X%X%X%X@X%X@X%X%X%X%X%X%X%X%X%X",
"%X%X%X%X%X%X%X@X%X%X|.`.f.f.Q.'.`.`..X%X%X%X%X%X@X%X@X%X%X%X%X@X%X@X%X%X%X%X%X%X%X+X(.B.+X%X%X%X%X%X",
"%X%X%X%X%X%X%X%X%X%XoX`.f.a.a.U.`.`./.].oX}.`.`./.].n.w.M.).%X%X%X%X%X%X%XOX(.M.w.! R G k.%X%X%X%X%X",
"%X%X%X%X%X%X%X#X#X%XoX`.b.a.d.a.U.'.`.`././.`.`./.].k.G J R 9.B.@X%XXXE.y.( J G J W R R _ #X%X#X%X%X",
"%X%X%X%X%X%X%X#X#X%X%X'.U.a.a.d.Q.`.`.`.`.`.`.`./.].n.K R R K G _ y.! J G R ) 8.r.s._ G g.%X#X#X%X%X",
"%X%X%X%X%X%X%X%X#X%X%X`.!.b.P./.'.`.`.`.`.`.`.`./.'.I.R R R R R K J K ! w.a.s.d.s.s.! R {.%X#X%X%X%X",
"%X%X%X%X%X%X%X#X#X#X%X.X`.`.'.`.`.`./.`.`.`.`.`.`.`./.! E R R R R R R ! s.d.a.a.d.6.J T.%X%X%X#X%X%X",
"%X%X%X%X%X%X%X#X#X#X%X|.`.`./.`.`.`./.`.`.`.`.`.`.`.'.q.J R R R R R R K ( s.s.d.8.F B.%X@X%X#X#X%X%X",
"%X%X%X%X%X%X#X%X#X%XoX`.`.`.`.`.`.`.'.'.'.`.`.`.`./.].z.J R R R K K R R J 7.a.) J M.%X%X#X%X#X%X%X%X",
"%X%X%X%X%X%X%X#X%X%X`./.`.`.`.`.`.`.l.9.I.'./.`.`./.'.Q.R R R K _ 7.R R R R R R T.%X%X%X%X%X%X%X%X%X",
"%X%X%X%X%X%X%X#X%XoX`.`.`.`.`.`.`.!.R A w.]././.`.`.`.`.y.J R _ /.'.q.K R R J v.%X@X@X%X%X%X%X%X%X%X",
"%X%X%X%X%X%X%X%X%X'.`.`./.`.`./.`./.r.! n.].'./.'././.'.Y.W K _ '.'.0.J R R K _ %X%X%X%X%X%X%X%X%X%X",
"%X%X%X%X%X%X%X%XoX/.`.`.`.`.`./..XXXXX.X'./.'./.'.`.'./.'.x.J R 9.w.R R R R R G N.%X@X%X%X%X%X%X%X%X",
"%X%X%X%X%X@X%X%X].`./.`.`.`.|./.;.[ ' %.[././.'././.`./.`./._ L L J Q Q Y R R R ( +X%X%X@X%X%X%X%X%X",
"%X%X%X%X%X%X%X Xx.`./././.'.i.2 [ :.<.< ' |././.'././.'./.`.~.P 8 = 9 M Q R R R J T.%X#X%X%X%X%X%X%X",
"#X%X#X#X#X#X#XT.H e.).oXXXXXp.F.XX|..X.X> p.|./.`././././.[.1.< I S g % 9 Y R R K w.%X%X%X%X%X%X%X%X",
"#X#X#X%X#X%XoX3.p s m } | %.p.F.`.|./.[.h.p.[./.'.`.[.'.'.'.' D.~.! Q E e V Q F R R XX%X%X#X%X%X%X%X",
"%X%X%X_.1.} [ d i c z 3.C.p.&.{ { -./.'./.'.[././.^.!.W././.J.[.]././ S Y U R Q Q L T.%X@X%X%X%X%X%X",
"OXA. . .1._.+X` Q ~ Q _ W.j.S.Z.p.+.{ D.'.[.{ # $ # + + # C.[./.<.&.&.X.d 0 q w h B N.%X@X%X%X#X#X%X",
"G.<._.#X%X%X%X_ C f q q n  .%.@.@.-.;.!.[./.#   X X X X . ;.|.|.p.@.-.p.j.x._ V u 6 j A.%X#X#X#X%X%X",
"#X#X#X%X%X%XV.r q g I J N.%X}.F.Z.-.S.!.F.[.j.# X O X X @.}.!.C.F.:.j.<.} [ #.z.c.( 2.' ' K.#X%X@X%X",
"#X%X%X#XK.+.>.4.J Q E E l.*.O.-.Z.W.}.;.p.XXXX[.2 . @ C.XX+X:. .|.p.%.S.+XF. .4 $.'.+X%XA.1  .%X%X#X",
"#X#X@X#XL.'.%XE.J ! Q x k <./.|.}./.|.Z.k H.D.@.k , > ;.j.+.' !.'.}.W.| +.{.XX!.[ 2 L.%X#X#X .1 ^.#X",
"%X%X%X#X%X%X#XOX( E s q P.oX/././././.|.i.k : l a.m.5.; - @.^.}././.'.XX@.' }.'.XX1.1 V.%X%X%XK.4 V.",
"%X#X%X%X%X#X#X#XN.z g ^ (.'././././././.}.|.i...5.3.m 2 S.XX/./.`.`.`./.XX| { .X^.XX.X5 >.%X@X%X@X .",
"%X%X%X#X%X#X#X#X%XP i a o.K..X/././.'././.`.'.h.| | @.J.}././.'.`.`.'././.|.3 p.|.oX%X%X} 1.#X@X%X%X",
"%X%X#X%X#X#X%X{.w.g V z & @ <.XX/.'./.'.`.`.`.}..X.X.X'./.'././.`.`./././.}.S.v oX%X#X%X%XL.#X%X#X#X",
"%X#X#X#X%X%XE.R J Q N e V F 8 C.}./.'./.`.`./././././.`././././././././.`./.].S.oX%X#X#X#X#X#X#X%X%X",
"%X#X%X#X%XE.K K R Y s R ~ V 7 n |./././.`.`.`.`.'././.`./.'.[..X.X.X'././.'.#X%X%X%X%X%X#X#X#X%X#X%X",
"#X%X#X%X{.R R R R R R Q M u S j /.'.`.`.`.`.'.`./.'.`./.}.'.h.&.#.u.J.]././.OX#X%X%X#X%X%X%X%X%X%X%X",
"%X#X%X#Xq.J R R R R R Y t W F l }././.`.`.`.`.`.'././.|.D.k d N N g h t./.'.'.#X%X#X%X#X%X%X%X%X%X%X",
"#X#X%XE.J R R R R R R Y R Q i ;.XX/./.`.`.`./.|./.'.}.J., C Q Q Q Q R J ! n./.oX%X#X#X#X%X%X%X%X%X%X",
"#X%X%Xq.J R R R R R R E B y &.'./.`.`.`.`.`././././..X| p ~ K R K K Y R K J _ k.|.%X#X%X#X%X%X%X%X%X",
"#X%X{.W R R R R R E S d O.G.|./.`.`./.`.`.`.`.`././.^.; F R R R R R R R Q R K G _ #X%X#X%X%X%X%X%X%X",
"#X%XT.F R R R R E C b G..X}././.`.`.`.`.'.`.`.`./.XX:.q Q R K R R R R R R R R R J N.%X#X#X#X%X%X%X%X",
"%X%XM.J R R R K T #.`.[./.`.`.`./.`.`.`.`.`.`.`./..Xl z Q R R R R R R R R R R R K ( +X%X%X%X%X%X%X%X",
"#X%Xv.G R R K ( Q.'.`./.`.`.`.`.`./.'.`.`.`./.`.'.J.= Y R R R R R R K Q R R R R R J B.%X%X%X%X%X%X%X",
"#X%Xv.G ! R R I.]./.`.'.`./.`.`.}./.`.`.`./.'./..X%.u Q R R R R R R R V D E K R R J w.%X@X%X%X%X%X%X",
"#X%XN.J R J x.]././.`./.`.'.`.`.`./.'.`.`.`./.`.'.; S R R R R R R R R = D R R R R R ( +X%X%X%X%X%X%X",
"#X%XR.K K ( /.`.`././.`.`.`.'././.`.`.`.`.`./..X*.t Q R R R R R Y Q i e Q R R R R R R {.%X%X%X%X%X%X",
"#X%XXX! J x.'./.`./.[./.`.`.'.`./.}.`.`.`./.'.W.4 0.F U R Q R F Q V * R R R R R R R R {.%X%X%X%X%X%X",
"%X%X%Xw.K Y.'.`.`.`./.'./.'./.'.'./.'.`.`./..X&. .l.6 Z R B W ^ V * C Q R R R R R R R XX%X%X%X%X%X%X",
"%X%X%XN.( `.`.`./.`.'./.'./.'././.'./.`.`./.oX[ *.} 4.^ s =. Xo.* Z E R R R R R R K q.#X%X#X%X%X%X%X",
"#X%X%XXXg.`.`.`.`.`.`.`.`.'.`.`.`.`.`.`.`./..X@.: ;.#XQ.[ V.' ] r Q Y R R R R R R J B.%X#X%X%X%X%X%X",
"%X#X%X%X[./.`.`.`.`.`.`.`.`.`.`.`.'.`.`.`.`.`.`.2 < &.' - [ j.+X*.i Q R R R R R R K q.XX%X%X%X%X%X%X"
};
