/* XPM */
static char *_3302d6333334b95e8e35c68d4dd7b6bOgVCWp7Mrx0JZvwp[] = {
/* columns rows colors chars-per-pixel */
"50 50 183 2 ",
"   c #77736F",
".  c #807C78",
"X  c #8D8777",
"o  c #9A9276",
"O  c #A8987E",
"+  c #6D768B",
"@  c #757983",
"#  c #747B8D",
"$  c #777F93",
"%  c #787F91",
"&  c #7C818F",
"*  c #7D8494",
"=  c #768199",
"-  c #7C869C",
";  c #7E889D",
":  c #7383A5",
">  c #7986A3",
",  c #7D8AA4",
"<  c #7586AA",
"1  c #7A8AAC",
"2  c #7C8DB2",
"3  c #7389BB",
"4  c #7E90B6",
"5  c #7F92BA",
"6  c #8A8682",
"7  c #8E8A86",
"8  c #928E89",
"9  c #99958A",
"0  c #818797",
"q  c #848995",
"w  c #8F8F90",
"e  c #828A9D",
"r  c #888E9D",
"t  c #949396",
"y  c #999692",
"u  c #9D9A97",
"i  c #AD9B89",
"p  c #A39D93",
"a  c #A89E94",
"s  c #A39F9A",
"d  c #ADA584",
"f  c #B3A488",
"g  c #B4AB8C",
"h  c #BDB58E",
"j  c #A9A493",
"k  c #A7A29C",
"l  c #A9A69F",
"z  c #B2A896",
"x  c #B4AE94",
"c  c #B7B095",
"v  c #BAB497",
"b  c #BBB49A",
"n  c #838DA4",
"m  c #808EAC",
"M  c #8290AF",
"N  c #8893AB",
"B  c #979BA5",
"V  c #8192B7",
"C  c #8194BA",
"Z  c #8699BF",
"A  c #8A9BBD",
"S  c #9EA1A7",
"D  c #9CA8B9",
"F  c #A4A3A3",
"G  c #A9A6A2",
"H  c #AEAAA3",
"J  c #A4A5A9",
"K  c #ABABAD",
"L  c #B2A9A1",
"P  c #B1AFAC",
"I  c #B5B0A0",
"U  c #B5B2AD",
"Y  c #B9B6AE",
"T  c #BFBAA9",
"R  c #AFB0B5",
"E  c #B4B3B3",
"W  c #B9B7B5",
"Q  c #BBB9B6",
"!  c #B3B5B9",
"~  c #B3BBBA",
"^  c #BCBBBB",
"/  c #C2BA8F",
"(  c #C6B099",
")  c #C8B79A",
"_  c #E9B581",
"`  c #C2BDA4",
"'  c #D1BEA8",
"]  c #C0BDB7",
"[  c #C9BDB4",
"{  c #C1BFBC",
"}  c #BCC2BD",
"|  c #CBC18C",
" . c #CBC291",
".. c #CAC39C",
"X. c #D0C694",
"o. c #D3C996",
"O. c #D4CC9B",
"+. c #DDD29A",
"@. c #FBC084",
"#. c #E6DB9B",
"$. c #EADF9F",
"%. c #CDC4A4",
"&. c #CDC7AD",
"*. c #D5CEA3",
"=. c #D8C3AD",
"-. c #DCD3A4",
";. c #DDD6AE",
":. c #C9C2B7",
">. c #C4C2BD",
",. c #DFCEBE",
"<. c #D1D1B8",
"1. c #E6DCA4",
"2. c #E9DFA2",
"3. c #FFDEAF",
"4. c #FDDCBA",
"5. c #ECE2A4",
"6. c #EFE5A8",
"7. c #F0E5A1",
"8. c #F5E8A4",
"9. c #F5EBAB",
"0. c #FAEFAB",
"q. c #FCF1AD",
"w. c #FFFCAD",
"e. c #E7E1B2",
"r. c #F0E7B4",
"t. c #F3EBBC",
"y. c #FDF3B2",
"u. c #FFF9B2",
"i. c #FBF2B9",
"p. c #FFF8BB",
"a. c #8296C1",
"s. c #8498C1",
"d. c #8FA1C2",
"f. c #93A3C0",
"g. c #A2AEC1",
"h. c #BEBEC0",
"j. c #C1BFC2",
"k. c #C5C4C3",
"l. c #C7C6C6",
"z. c #CCC9C5",
"x. c #CDCCCB",
"c. c #D0C7C1",
"v. c #D3CFC0",
"b. c #D0CECC",
"n. c #DDD1C7",
"m. c #D3D1CF",
"M. c #D8D6CF",
"N. c #D4D3D2",
"B. c #D8D7D6",
"V. c #DAD9D6",
"C. c #D0D5DE",
"Z. c #DDDCDB",
"A. c #E4DDD6",
"S. c #EFE9C9",
"D. c #FDE5CD",
"F. c #FDF8CD",
"G. c #E2E1DF",
"H. c #F7E9DA",
"J. c #FFEDDC",
"K. c #F8F3D5",
"L. c #FFFFD6",
"P. c #FFFFDF",
"I. c #E5E4E3",
"U. c #E8E7E5",
"Y. c #EDEBE4",
"T. c #E6E6EB",
"R. c #ECEBEC",
"E. c #F1EEEB",
"W. c #FBF8E4",
"Q. c #F3F1ED",
"!. c #F8F7ED",
"~. c #FFFDEB",
"^. c #EEEEF2",
"/. c #F4F3F3",
"(. c #F8F7F5",
"). c #FEFCF3",
"_. c #F5F5F8",
"`. c #F6F8FC",
"'. c #FAFAFA",
"]. c #FDFBFA",
"[. c #FEFEFB",
"{. c gray99",
"}. c white",
/* pixels */
"}.}.}.}.}.}.}.}.}.}.}.}.}.}.}.}.}.}.}.}.}.}.}.{.}.}.>.x.K.-.d b ] :.U ^.[.}.[.}.}.}.}.}.}.}.}.}.}.}.",
"}.}.}.}.}.}.}.}.}.}.}.}.}.}.}.}.}.}.}.}.}.}.{.}.B.  /  .X.w.u.q.$.| +.j T.H V.}.'.}.}.}.}.}.}.}.}.}.",
"}.}.}.}.}.}.}.}.}.}.}.}.}.}.}.}.}.}.}.}.}.{.}.R.9 +.F.q.y.q.q.q.y.y.u.2.x g x.}.}.}.}.}.}.}.}.}.}.}.",
"}.}.}.}.}.}.}.}.}.}.}.}.}.}.}.}.}.}.}.}.}.}.}.j 8.q.c O.9.8.9.9.q.9.0.q.0.q.O.Y '.}.}.}.}.}.}.}.}.}.",
"}.}.}.}.}.}.}.}.}.}.}.}.}.}.}.}.}.}.}.}.{.}.x.o.r.d 5.O.d =.c 9.q.0.q.0.q.0.u.| l.}.{.}.}.}.}.}.}.}.",
"}.}.}.}.}.}.}.}.}.}.{.{.{.{.}.{.{.}.}.}.{.}.Q 5.g 6.+.f J.l.o.9.y.y.0.0.9.q.y.7.v.}.{.}.}.}.}.}.}.}.",
"}.}.}.}.}.}.}.}.}.}.}.}.}.}.}.{.{.{.}.{.{.}.Y #.1.5.O n.`.) O.-.p.i.q.9.i.q.q.q.` R.}.{.}.}.}.}.}.}.",
"}.}.}.}.}.}.}.}.}.Q P j.^ x.(.}.}.}.}.}.{.}.x.O.8.Q ^.{.T./ +.d q.q.0.i.y.0.i.y.#.Y }.}.}.}.}.}.}.}.",
"}.}.}.}.}.}.}.{.}.{ G /.=.z W Z.W l.b.B.}.}.}.[.<.I.V.'./.T t.X X.O.q.q.q.0.y.9.q.c ^.}.}.}.}.}.}.}.",
"}.}.}.}.}.{.{.}.>.  l.}.J.A.8 6 G.( =.k.k.R.}.T.c.}._.x.B.}.R.U.S.c o.y.0.q.q.0.u.h T.}.{.}.}.}.}.}.",
"}.}.}.}.}.}.}.{.N.u 6 7 w p i E G.[.}.Z.s   U.L _ D.}.I.{.(.Z.}.}.W +.u.0.0.0.q.8.I {.}.}.}.}.}.}.}.",
"}.}.}.}.}.}.}.}.}.{.b.s Z.H U G y F L ( :.^ F i 3.H.{.}.}.].J.).T.v w.5.q.q.0.q.O.Z.}.{.}.}.}.}.}.}.",
"}.}.}.}.}.}.}.}.{.}.}.}.}._.9 8 l x.a ,.^ {.R.z.]./.E u R.4.@.4.` | %.' g q.q.u.b `.}.}.}.}.}.}.}.}.",
"}.}.}.}.}.}.}.'.}.}.}.}.{.}.I.y t.~.}.~ V.}.}.}.U.^ m.N.}.D.4.H.>.Q R.}.[ X.0.+.h T.}.}.{.}.}.}.}.}.",
"}.}.}.}.}.}.}.}.}.}.}.{.}.{.}._.H !.}./.P Y.W.W.~./.x.Q B.}.}.}.}.}.}.}.V. .1.O b /.}.}.}.}.}.}.}.}.",
"}.}.}.}.}.}.}.}.}.}.}.}.}.}.{.}.Z.W }.}.^.8 r.i.F.}.}._.^ P /.}.}._._.R.8 *.` M.^.}.}.}.}.}.}.}.}.}.",
"}.}.}.}.}.}.}.}.}.}.}.}.}.{.}.{.}.l.k.}.I.# ^ }.}.}.[.}.}.U.G Z.L.;.b o j /.{.}.}.}.}.}.}.}.}.}.}.}.",
"}.}.}.}.}.}.}.}.}.}.}.}.}.}.}.{.{.}.Q b.E = F B.}.{.}.}.{.}.{.K &...z k.`.}.}.{.{.}.}.{.}.}.}.}.}.}.",
"}.}.}.}.}.}.}.}.}.}.}.}.}.}.}.}.}.}.}.Y # B [.^ z.P.~.}.}.].}.}.K j.{.}.}.{.}.}.}.}.}.}.}.}.}.}.}.}.",
"}.}.}.}.}.}.}.}.}.}.}.}.}.}.}.}.}.{.}.x.+ m.}.}.Q.%.t.~.}.}.].}./.{ }.{.}.}.}.{.}.}.}.}.}.}.}.}.}.}.",
"}.}.}.}.}.}.}.}.}.}.}.}.}.}.}.{.}.}.}.F $ h.^ k.B.j.U }.}.[.}.{.}.>.R.}.}.{.}.}.}.}.}.}.}.}.}.}.}.}.",
"}.}.}.}.}.}.}.}.}.}.}.}.}.}.}.}.{.}.R.* V 1 : , , N , y _.}.}.}.}.b.N.}.{.}.}.}.}.}.}.}.}.}.}.}.}.}.",
"}.}.}.}.}.}.}.}.}.}.}.}.}.}.}.}.{.}.P > s.C Z C C C C @ k Z.}.{.}.Z.^ }.{.}.}.}.}.}.}.}.}.}.}.}.}.}.",
"}.}.}.}.}.}.}.}.}.}.}.}.}.}.}.}.}.{.t 1 - , m V V 1 C M J x._.{.}.U.^ }.{.}.}.}.}.}.}.}.}.}.}.}.}.}.",
"}.}.}.}.}.}.}.}.}.}.}.}.}.}.}.{.}.Q.; e 1 - + ; q * V C 4 C.}.}.}.P >.}.{.}.}.}.}.}.}.}.}.}.}.}.}.}.",
"}.}.}.}.}.}.}.}.}.}.}.}.}.}.}.}.}.I.e e V A } D 4 C e e C - W Z.K + E }.{.}.}.}.}.}.}.}.}.}.}.}.}.}.",
"}.}.}.}.}.}.}.}.}.}.}.}.}.}.}.{.}.m., r 1 g.w.>.3 C , n C C > ; 1 4 S }.}.}.}.}.}.}.}.}.}.}.}.}.}.}.",
"}.}.}.}.}.}.}.}.}.}.}.}.}.}.}.{.}.{ > r 2 ~ y.e.<.d.* 1 C C C C C C 0 Q.}.}.}.}.}.}.}.}.}.}.}.}.}.}.",
"}.}.}.}.}.}.}.}.}.}.}.}.}.}.}.{.}.E < q 2 ~ 0.9.} , * C V 4 V V C C = R.}.}.}.}.}.}.}.}.}.}.}.}.}.}.",
"}.}.}.}.}.}.}.}.}.}.}.}.}.}.}.{.}.E < n - a.f.A 2 ; 1 C V C V C C 5 q I.}.}.}.}.}.}.}.}.}.}.}.}.}.}.",
"}.}.}.}.}.}.}.}.}.}.}.}.}.}.{.{.}.R : s.- * m = e C C V V V C V V C - m.}.{.}.}.}.}.}.}.}.}.}.}.}.}.",
"}.}.}.}.}.}.}.}.}.}.}.}.}.}.}.{.}.K 1 C C m r m C C V C V C V C V C , x.}.{.}.}.}.}.}.}.}.}.}.}.}.}.",
"}.}.}.}.}.}.}.}.}.}.}.}.}.}.}.{.}.K 1 C 4 C C C 4 V C 4 V C V C V C , x.}.{.}.}.}.}.}.}.}.}.}.}.}.}.",
"}.}.}.}.}.}.}.}.}.}.}.}.}.}.}.}.}.K 1 5 4 C V V C C V C V C C V V C , x.}.{.}.}.}.}.}.}.}.}.}.}.}.}.",
"}.}.}.}.}.}.}.}.}.}.}.}.}.}.{.}.}.K 1 C C C C V C V V C C V C C C C n b.}.{.}.}.}.}.}.}.}.}.}.}.}.}.",
"}.}.}.}.}.}.}.}.}.}.}.}.}.}.}.{.}.E : C 4 C C C V C V V V C V V C C > k.}.'.}.}.}.}.}.}.}.}.}.}.}.}.",
"}.}.}.}.}.}.}.}.}.}.}.}.}.}.}.{.}.E : Z V C V V C V C V C V V C C C 1 J }.}.}.}.}.}.}.}.}.}.}.}.}.}.",
"}.}.}.}.}.}.}.}.}.}.}.}.}.}.{.{.}.E : C V V V V V V V V V C C V C C < R }.}.}.}.}.}.}.}.}.}.}.}.}.}.",
"}.}.}.}.}.}.}.}.}.}.}.}.}.}.}.{.}.k., C V C m C C V C V V C V C C C , x.}.'.}.}.}.}.}.}.}.}.}.}.}.}.",
"}.}.}.}.}.}.}.}.}.}.}.}.}.}.}.}.}.b., C V C , $ C C 4 C V V C V V C > } }.[.}.}.}.}.}.}.}.}.}.}.}.}.",
"}.}.}.}.}.}.}.}.}.}.}.}.}.}.}.{.}.x., C C V C , & V C V C V V C C Z : ! }.{.}.}.}.}.}.}.}.}.}.}.}.}.",
"}.}.}.}.}.}.}.}.}.}.}.}.}.}.}.{.}.x., C V C C C m @ - C V 4 C V 4 C < K }.{.}.}.}.}.}.}.}.}.}.}.}.}.",
"}.}.}.}.}.}.}.}.}.}.}.}.}.}.}.}.}.B., C V C 4 V C n 6 V C V V C C C 1 F }.}.}.}.}.}.}.}.}.}.}.}.}.}.",
"}.}.}.}.}.}.}.}.}.}.}.}.}.}.}.{.}.E.* C V V V V C m G n 4 V V C V C < P }.{.{.}.}.}.}.}.}.}.}.}.}.}.",
"}.}.}.}.}.}.}.}.}.}.}.}.}.}.}.}.}.}.S 2 C V C V C < K B 2 C C V C C 1 K }.{.}.}.}.}.}.}.}.}.}.}.}.}.",
"}.}.}.}.}.}.}.}.}.}.}.}.}.}.}.}.{.}.W : C V C V Z : W E < Z C V V C 1 K }.}.}.}.}.}.}.}.}.}.}.}.}.}.",
"}.}.}.}.}.}.}.}.}.}.}.}.}.}.}.}.}.}.z., C C V V Z : ^ Z.= C V C C C 1 K }.}.}.}.}.}.}.}.}.}.}.}.}.}.",
"}.}.}.}.}.}.}.}.}.}.}.}.}.}.}.{.{.}.Q : Z V C V C : ! }.q 4 V V V C 3 R }.{.}.}.}.}.}.}.}.}.}.}.}.}.",
"}.}.}.}.}.}.}.}.}.}.}.}.}.}.}.}.}.}.m.- C C C 4 C : K }.K < Z 4 V C < l.}.{.}.}.}.}.}.}.}.}.}.}.}.}.",
"}.}.}.}.}.}.}.}.}.}.}.}.}.}.}.}.{.}._.q 5 C V C Z : E }.m.- C V C C q U.}.}.}.}.}.}.}.}.}.}.}.}.}.}."
};
