/* XPM */
static char *_1eb8008cfb2492ae4c48660f3e0a5ab2VAeVYveoCzSh2GN[] = {
/* columns rows colors chars-per-pixel */
"50 50 209 2 ",
"   c #5C5B5E",
".  c #727175",
"X  c #9B694B",
"o  c #8E6F5E",
"O  c #B57852",
"+  c #9E7E6C",
"@  c #847E79",
"#  c #CC7E4C",
"$  c #8B837D",
"%  c #958C78",
"&  c #99937C",
"*  c #B48D75",
"=  c #B7947C",
"-  c #CD8455",
";  c #F38E4D",
":  c #E38E56",
">  c #EC9156",
",  c #EB945C",
"<  c #F39254",
"1  c #F3965B",
"2  c #F4995D",
"3  c #FC9C5D",
"4  c #C58C69",
"5  c #D38D60",
"6  c #C5977A",
"7  c #D19773",
"8  c #E39766",
"9  c #F49C63",
"0  c #FA9E62",
"q  c #F49E68",
"w  c #F3A16C",
"e  c #F2A574",
"r  c #F3AB7C",
"t  c #F8AB79",
"y  c #7C7F8A",
"u  c #6F7B96",
"i  c #767E93",
"p  c #7D8494",
"a  c #7B859A",
"s  c #7F889D",
"d  c #7483A3",
"f  c #7E8AA3",
"g  c #7687A9",
"h  c #7688AC",
"j  c #7C8CAD",
"k  c #7C8EB2",
"l  c #7389BE",
"z  c #7E91B7",
"x  c #7E92BA",
"c  c #8F8B87",
"v  c #8C8B8C",
"b  c #928C86",
"n  c #99918A",
"m  c #808797",
"M  c #808799",
"N  c #828A9B",
"B  c #8E929C",
"V  c #999797",
"C  c #AC9888",
"Z  c #B89885",
"A  c #A59E9A",
"S  c #ABA58F",
"D  c #B8A18A",
"F  c #BBB38C",
"G  c #A5A19D",
"H  c #B9A694",
"J  c #BBB493",
"K  c #B9B499",
"L  c #828DA4",
"P  c #888FA0",
"I  c #828FAA",
"U  c #8290AD",
"Y  c #8B94A8",
"T  c #979BA6",
"R  c #8192B6",
"E  c #8194BA",
"W  c #8999BA",
"Q  c #949FB3",
"!  c #A39EA0",
"~  c #9FA2AA",
"^  c #9AA7BF",
"/  c #A5A3A2",
"(  c #A9A6A6",
")  c #ADAAA7",
"_  c #A3A6AD",
"`  c #A6A8AE",
"'  c #ACABAC",
"]  c #B6AEAA",
"[  c #BAB6A6",
"{  c #B4B1AE",
"}  c #A5A9B4",
"|  c #ACAEB3",
" . c #AFB8BE",
".. c #B5B3B4",
"X. c #BCBAB5",
"o. c #B5B5B9",
"O. c #B7B7BA",
"+. c #BCBBBB",
"@. c #CCA38A",
"#. c #DFA986",
"$. c #C6BD93",
"%. c #C8B599",
"&. c #EDAF88",
"*. c #F3AE83",
"=. c #F4B58D",
"-. c #F2BE89",
";. c #EAB799",
":. c #F5BA95",
">. c #F6BD99",
",. c #C4B8AA",
"<. c #DABFAF",
"1. c #C5BDB4",
"2. c #C1BDBB",
"3. c #CBC193",
"4. c #D3C995",
"5. c #D7CC9B",
"6. c #DFD496",
"7. c #DBD19B",
"8. c #E4D99D",
"9. c #EBE09D",
"0. c #CDC5A2",
"q. c #CAC5AB",
"w. c #D6CEA7",
"e. c #DED5A2",
"r. c #D7D0AC",
"t. c #C3C2BC",
"y. c #C9C5B8",
"u. c #D7C8B8",
"i. c #E6C4AF",
"p. c #F6C4A4",
"a. c #F7CAAC",
"s. c #E5DBA3",
"d. c #E9DFA5",
"f. c #E8C8BB",
"g. c #F5CDB4",
"h. c #F8CFB5",
"j. c #F4D5B7",
"k. c #F9D4BD",
"l. c #ECE1A2",
"z. c #EEE6AF",
"x. c #F3E7A6",
"c. c #F6EBA8",
"v. c #FAEFAC",
"b. c #FDF2AE",
"n. c #EAE3B5",
"m. c #F2E9B5",
"M. c #F9EFB2",
"N. c #FEF4B2",
"B. c #FFFAB3",
"V. c #FDF4BC",
"C. c #FFF8BC",
"Z. c #8799C0",
"A. c #95A5C2",
"S. c #BABCC3",
"D. c #C1BFC2",
"F. c #BFC3C9",
"G. c #C4C2C3",
"H. c #CAC6C4",
"J. c #CCC9C6",
"K. c #C5C6CA",
"L. c #CDCCCC",
"P. c #D6CAC5",
"I. c #D1CFCB",
"U. c #DCD3C4",
"Y. c #D9D5C9",
"T. c #C9CCD4",
"R. c #D4D3D4",
"E. c #D9D7D5",
"W. c #DBDADA",
"Q. c #E7D3C8",
"!. c #E9D4CC",
"~. c #F7D8C4",
"^. c #FADECD",
"/. c #E2D6D1",
"(. c #EDDCD5",
"). c #E5DEDD",
"_. c #F5E4C7",
"`. c #E3E1DF",
"'. c #ECE1DD",
"]. c #F9E2D3",
"[. c #FAE5D8",
"{. c #FBEADE",
"}. c #FFF6D3",
"|. c #D8DEEC",
" X c #DEE9F6",
".X c #E5E4E5",
"XX c #E9E5E4",
"oX c #EBE8E6",
"OX c #E6E6EA",
"+X c #E7E7EA",
"@X c #ECEBEB",
"#X c #FBECE2",
"$X c #F4EDEA",
"%X c #FFF3E3",
"&X c #FFFFE2",
"*X c #F2F1EE",
"=X c #FDF4EB",
"-X c #E5E9F2",
";X c #EDEEF2",
":X c #EAEFFA",
">X c #F0EFF0",
",X c #EAF1F9",
"<X c #F4F3F3",
"1X c #FAF6F3",
"2X c #FCFAF6",
"3X c #F5F6F9",
"4X c #F5F9FE",
"5X c #FDFDFD",
"6X c white",
/* pixels */
"6X6X6X6X6X6X6X6X6X6X6X6X6X6X6X6X6X6X6X6X6X6X6X6X6X6X6X6X6X6X6X6X5X5X6X.X{ Y.n.F K t.[ 2.6X6X5X6X5X6X",
"6X6X6X6X6X6X6X6X6X6X6X6X6X6X6X6X6X6X6X6X6X6X6X6X6X6X6X6X6X6X6X6X5X6X..% e.4.x.B.B.9.7.6.y.+.X.6X5X6X",
"6X6X6X6X6X6X6X6X6X6X6X6X6X6X6X6X6X6X6X6X6X6X6X6X6X6X6X6X6X6X6X5X6XR.F C.m.N.B.b.b.b.b.B.5.3.[ +X6X5X",
"6X6X6X6X6X6X6X6X6X6X6X6X6X6X6X6X6X6X6X6X6X6X6X6X6X6X6X6X6X6X5X6X@XF B.J 3.7.7.e.s.b.v.v.b.b.c.$.`.5X",
"6X6X6X6X6X6X6X6X6X6X6X6X6X6X6X6X6X6X5X6X6X5X6X6X5X6X6X6X6X6X5X6XJ.8.$.e.8.H U.K c.b.v.b.v.v.B.8.t.5X",
"6X6X6X6X6X6X6X6X6X6X6X6X6X6X6X6X6X6X6X6X6X6X6X6X6X6X5X6X5X5X5X6X1.8.w.9.& %XR.5.s.V.M.v.b.v.v.v.u.5X",
"6X6X6X6X6X6X6X6X6X6X6X6X6X5X5X5X5X6X6X6X<XX.L.L.W.5X6X6X6X6X6X6XR.4.x.y.oX5X,.8.F B.b.v.V.v.N.V.4.J.",
"6X6X6X6X6X6X6X6X6X6X5X6X6X6X6X6X5X6X5X6X6XV L.U.C +..X2.L.R.<X6X5X2Xy..X.X5Xt.n.& $.d.b.c.v.M.M.b.q.",
"6X6X6X6X6X6X6X6X6X6X6X5X{.].{.5X6X6X6X6XG c +X{.`.@ c `.%.Y.+.W.5X.XP.5XoXJ.5XoX.X_.K s.b.v.b.b.b.0.",
"6X6X6X6X6X6X6X6X6X5X6X].1 < 1 9 p.=X6X2XL.( $ V b K ...X6X<X] @ F.,.-.=X6X*X6XXX5X6X[ c.N.v.v.b.9.1.",
"6X6X6X6X6X6X6X6X6X6X6X5X^.p.=.w ; e #X6X6X5XG.`.P.n V v V Z u.G.+.H }.@X.X2X5X_.%XR.4.l.5.b.b.b.4.@X",
"6X6X6X6X6X5X6X6X6X6X5X5X6X6X6X2Xk.1 r 5X5X6X6X6X6X{ n U..X1.H.*X6X+X@XW.) F.}.-.j.K F Q.1.$.b.b.K ,X",
"6X6X6X5X5X6X6X6X2X6X6X6X6X6X6X6X6Xp.; ~.6X5X5X5X6X6X2.r.6X3X+.2X6X6X*XL.H.+X6X%X2X+X@X5X5X[ l.3.J ,X",
"6X6X6X6X6X=Xg.=.r r >.~.5X6X5X5X6Xk.; >.6X5X6X6X6X6X6X+.+X6X.X{ n.C.}.6XoX+.t.6X5X6X6X6XE.F e.[ E.6X",
"6X5X6X6Xg.w 1 1 1 1 1 1 t #X6X6X6X=.< =.6X6X6X5X6X5X6X<X{ 5X6XT { 2X2X5X6X6XW.{ @X&XU.[ % t.@X5X6X6X",
"6X6X6X>.< 1 9 9 9 9 9 9 1 9 #X6Xg.e w p.6X5X5X6X6X6X5X6X+Xt.E.a T W.6X5X6X5X6X<X..r.J S I.6X6X6X5X6X",
"5X6Xp.< 9 9 9 9 9 9 9 9 9 9 Q.OX(..X).#X6X6X6X6X6X6X6X5X6XXXv p XXG.P.&X2X6X5X6X6X( R.6X5X6X5X5X6X6X",
"5X].1 9 9 9 9 9 9 9 9 9 9 9 !.D.K.+X<X6X5X6X5X6X6X6X6X6X6X5Xp o.6X6X*X4.}.6X5X5X6X@XH.6X5X6X6X6X6X6X",
"5X*.1 9 9 9 9 9 9 9 9 9 < *.+X@X2.`.6X6X6X6X6X6X6X6X6X5X6XW.p } K.S.+.~ o.6X5X5X6X6XG.<X6X5X6X6X6X6X",
"].9 9 9 9 9 9 9 9 9 9 9 ;.!.OX.X.X@X6X6X5X6X6X6X6X6X5X5X6X} g k g h d x p A 5X5X5X6XG..X6X6X6X6X6X6X",
"a.1 9 9 9 9 9 9 9 9 , 9 !.-X.XXX.X@X5X6X6X6X6X6X6X6X6X6X@Xp R I W Z.Z.E z v 2.@X6X6XL.W.6X6X6X6X6X6X",
"=.1 0 0 9 9 9 9 1 7 ) : p.-X.X.X.X+X6X6X5X6X6X6X6X6X5X6XR.a M N a i u s E R K.6X6X6XX.`.6X5X6X6X6X6X",
"e 3 8 # q q 9 0 , ,.-X4 ;.|..XXX.X@X6X6X6X6X6X6X6X6X5X5X+.a L E Q Q f U L R U L.2XL.p ).6X5X5X6X6X6X",
"e 3 Z o.# 0 0 0 6 R.(.H ;.T..X@X.X3X6X6X6X6X6X6X6X5X5X5XS.a L W M.t.l E N R x f a f d t.6X5X6X6X6X6X",
"e > Z ;XD.4 1 # ] !.f.1.@.D..XT..X6X5X6X5X6X6X6X6X6X6X6X} f U ^ b.z.t.z p E E E x E h ..6X5X5X6X6X6X",
"*.< = f.(.D.,.D.8 q *.u.* !.E...K.<X6X6X6X6X6X6X6X5X6X5X_ f f A.z.m. .a f E R R E x k ~ 5X6X6X6X6X6X",
":.3 Z P.!.-X:X'.q 9 1 3 O !.5X@XL.<X6X5X6X6X6X6X6X6X6X2XY z p j W E j f E R E R E E z T 1X6X6X6X6X6X",
"g.0 1.T.@Xp.Q.+Xe q a.t # <.5X5X6X6X6X6X6X6X6X6X6X6X6X>XN Z.U p s N L E E E R R E R x a =X6X6X6X6X6X",
"[.w D.T.+X!.!.+XQ.q 5 q : @.6X5X6X6X6X6X6X6X6X6X6X6X6X=Xa E E E j E E R R E R R R R E N <X6X6X6X6X6X",
"2X:.P.D.#XC S.;X<X(.+ 8 : A 3X5X6X6X6X6X6X6X6X6X6X6X6X<XN E R E E R R E R R E E R R E p *X6X6X6X6X6X",
"6X$XW.' &.# /.T.. o.-X6 X | W.5X6X5X5X6X6X6X6X6X6X6X6X*Xa E R R z R E R R E E R E E x N *X6X5X6X6X6X",
"5X2X-X! o # # Z   A @X) V o.D.5X6X6X6X6X6X6X6X6X6X6X6X2XN x R R E R E R E R R E R E E a <X6X6X6X6X6X",
"5X5XR.K.V n #.#..X@X@X.X@X.XG.+.3X6X6X6X6X6X6X6X6X5X6X2XT x E R R z E R R E E R E E E I E.6X6X6X6X6X",
"5X5X2X..D.;X4X6X5X6X6X6X@X@X;X).$X6X5X6X6X6X6X6X6X6X6X6X` k E R E E R E R R R E E R E L XX6X6X6X6X6X",
"5X5X3X2.@X.X@X6X5X6X6X5X6X(.&.e 5X6X6X6X6X6X6X6X6X5X6X6X| j E E s R E z E E R E R R z Y 2X6X5X6X6X6X",
"5X5X5X3X+X.X.X5X6X5X6X5X6X{.1 9 {.6X5X6X6X6X6X6X6X6X5X6X+.h E E z p z E z R R R E R E p *X6X6X6X6X6X",
"6X5X6X6X$X+X+X3X6X6X6X6X6X6X>.< ~.6X6X6X6X6X6X6X6X6X5X6XS.g E E R I p I x E E R E R E s @X6X6X6X6X6X",
"6X6X5X6X5X(.&.g.6X6X5X6X6X6X^.< ~.6X5X6X6X6X6X6X6X6X5X6X+.h E R E x Z.. a E z E R E E f L.6X6X6X6X6X",
"6X5X6X5X6Xk.; *.5X6X6X5X5X6X=X: i.6X5X6X6X6X6X6X6X5X5X6X+.g x R E R x N A j x R E R E L W.6X6X6X6X6X",
"6X6X6X6X6X2Xe q 1X6X5X6X6X6X5X@.u.6X5X6X6X6X6X6X6X6X5X6X`.s E E R R x Y ..j E E R E R I E.6X5X6X6X6X",
"6X6X6X6X6X6Xp.1 #X6X5X6X6X5X6X6X6X6X6X6X6X6X6X6X6X6X6X6X2XN z E R E E L L.B E E E R E f L.6X6X6X6X6X",
"6X6X6X6X5X6X].2 ^.6X5X6X6X6X5X6X5X6X5X6X6X6X6X6X6X6X5X6X6X` k E R E E U `._ k E R R E f L.6X6X6X6X6X",
"6X6X6X5X6X6X1X- u.6X5X6X5X6X6X6X6X6X6X6X6X6X6X6X6X6X6X6X1XB E R R R x f @XH.d E z E E U W.6X5X6X6X6X",
"6X6X6X6X6X6X5XQ..X6X5X6X6X6X6X6X6X6X6X6X6X6X6X6X6X6X6X6X6X| k E E E E s .X*Xs E E E E N <X6X6X6X6X6X",
"6X6X6X6X6X5X6X6X6X6X6X6X6X6X6X6X6X6X6X6X6X6X6X6X6X6X6X5X6XG.u L L j x f @X6X~ d h j p G.6X6X6X6X6X6X",
"6X6X6X6X6X6X5X5X5X6X6X6X6X6X6X6X6X6X6X6X6X6X6X6X6X6X6X5X6X.X` B $ = $ ` 6X6X6XG C D %.J.6X6X5X6X6X6X",
"6X6X6X6X6X6X6X6X6X6X6X6X6X6X6X6X6X6X6X6X6X6X6X6X6X6X5X6X5X6X2X/ ` u.u.` <X6X<X' ,.y.H.) <X6X6X6X6X6X",
"6X6X6X6X6X6X6X6X6X6X6X6X6X6X6X6X6X6X6X6X6X6X6X6X6X6X6X5X6X*X) V t.4X X` +X<X) A { @X4X..+X6X5X6X6X6X",
"6X6X6X6X6X6X6X6X6X6X6X6X6X6X6X6X6X6X6X6X6X6X6X6X6X6X5X6X5X' @X:X|.|.K.H.1X| -X-XT.S.T L.6X6X6X6X6X6X",
"6X6X6X6X6X6X6X6X6X6X6X6X6X6X6X6X6X6X6X6X6X6X6X6X6X6X6X6X2X..` T E.6X3X6X<XO.( ` ..K.;X6X6X6X6X6X6X6X"
};
