/* XPM */
static char *f02a9c0427f147bbe45591fac1302b393l2Z64wlvyimG8rc[] = {
/* columns rows colors chars-per-pixel */
"200 40 93 2 ",
"   c #4D00ED",
".  c #5205EC",
"X  c #560AEC",
"o  c #580EEB",
"O  c #5C14EB",
"+  c #5F18EA",
"@  c #611CEA",
"#  c #6522E9",
"$  c #6827E9",
"%  c #6A2BE9",
"&  c #6E31E8",
"*  c #7136E7",
"=  c #753CE7",
"-  c #7034E8",
";  c #7A44E6",
":  c #7E4AE6",
">  c #814EE5",
",  c #8453E5",
"<  c #8758E4",
"1  c #895BE4",
"2  c #8E63E3",
"3  c #9066E3",
"4  c #936CE3",
"5  c #9670E2",
"6  c #9974E2",
"7  c #9D7BE1",
"8  c #A07FE1",
"9  c #A68ADF",
"0  c #A98EDF",
"q  c #AD93DF",
"w  c #AF98DF",
"e  c #B29BDE",
"r  c #B6A2DE",
"t  c #B8A6DD",
"y  c #BCACDD",
"u  c #BFB0DC",
"i  c #A384E0",
"p  c #A689E0",
"a  c #A98DE0",
"s  c #C1B3DC",
"d  c #C1B4DC",
"f  c #C2B5DC",
"g  c #C4B8DB",
"h  c #C4B9DB",
"j  c #C5BADB",
"k  c #C7BDDB",
"l  c #C4B8DC",
"z  c #C4B9DC",
"x  c #C8BEDB",
"c  c #C8BFDB",
"v  c #C8C0DB",
"b  c #C9C1DB",
"n  c #CAC1DA",
"m  c #CCC5DA",
"M  c #CDC6DA",
"N  c #CDC7DA",
"B  c #CFCADA",
"V  c #D0CBDA",
"C  c #D3CFD9",
"Z  c #D1CDDA",
"A  c #D3D0D9",
"S  c #D4D2D9",
"D  c #D5D3D9",
"F  c #D6D5D9",
"G  c #D7D6D9",
"H  c #D8D7D9",
"J  c #D8D8D8",
"K  c #D9D9D8",
"L  c #D8D8D9",
"P  c gray85",
"I  c #DADAD8",
"U  c #DADCD8",
"Y  c #DBDCD8",
"T  c #DCDDD8",
"R  c #DCDED8",
"E  c #DFE3D7",
"W  c #DFE4D7",
"Q  c #DDE0D8",
"!  c #DFE2D8",
"~  c #E0E4D7",
"^  c #E0E5D7",
"/  c #E1E7D7",
"(  c #E3E8D7",
")  c #E3E9D7",
"_  c #E4EBD7",
"`  c #E5ECD7",
"'  c #E5EDD7",
"]  c #E0E4D8",
"[  c #E7F0D6",
"{  c #E9F3D6",
"}  c #EDF8D6",
"|  c #F4FFD5",
" . c #F8FFD4",
/* pixels */
"P P P P P P P P P P P P P P P P P P P P P P P P P P P P P P P P P P P P P P P P P P P P P P P P P P P P P P P P P P P P P P P P P P P P P P P P P P P P P P P P P P P P P P P P P P P P P P P P P P P P P P P P P P P P P P P P P P P P P P P P P P P P P P P P P P P P P P P P P P P P P P P P P P P P P P P P P P P P P P P P P P P P P P P P P P P P P P P P P P P P P P P P P P P P P P P P P P P P P P P P ",
"P P P P P P P P P P P P P P P P P P P P P P P P P P P P P P P P P P P P P P P P P P P P P P P P P P P P P P P P P P P P P P P P P P P P P P P P P P P P P P P P P P P P P P P P P P P P P P P P P P P P P P P P P P P P P P P P P P P P P P P P P P P P P P P P P P P P P P P P P P P P P P P P P P P P P P P P P P P P P P P P P P P P P P P P P P P P P P P P P P P P P P P P P P P P P P P P P P P P P P P P ",
"P P P P P P P P P P P P P P P P P P P P P P P P P P P P P P P P P P P P P P P P P P P P P P P P P P P P P P P P P P P P P P P P P P P P P P P P P P P P P P P P P P P P P P P P P P P P P P P P P P P P P P P P P P P P P P P P P P P P P P P P P P P P P P P P P P P P P P P P P P P P P P P P P P P P P P P P P P P P P P P P P P P P P P P P P P P P P P P P P P P P P P P P P P P P P P P P P P P P P P P P ",
"P P P P P P P P P P P P P P P P P P P P P P P P P P P P P P P P P P P P P P P P P P P P P P P P P P P P P P P P P P P P P P P P P P P P P P P P P P P P P P P P P P P P P P P P P P P P P P P P P P P P P P P P P P P P P P P P P P P P P P P P P P P P P P P P P P P P P P P P P P P P P P P P P P P P P P P P P P P P P P P P P P P P P P P P P P P P P P P P P P P P P P P P P P P P P P P P P P P P P P P P ",
"P P P P P P P P P P P P P P P P P P P P P P P P P P P P P P P P P P P P P P P P P P P P P P P P P P P P P P P P P P P P P P P P P P P P P P P P P P P P P P P P P P P P P P P P P P P P P P P P P P P P P P P P P P P P P P P P P P P P P P P P P P P P P P P P P P P P P P P P P P P P P P P P P P P P P P P P P P P P P P P P P P P P P P P P P P P P P P P P P P P P P P P P P P P P P P P P P P P P P P P P ",
"P P P P P P P P P P P P P P P P P P P P P P P P P P P P P P P P P P P P P P P P P P P P P P P P P P P P P P P P P P P P P P P P P P P P P P P P P P P P P P P P P P P P P P P P P P P P P P P P P P P P P P P P P P P P P P P P P P P P P P P P P P P P P P P P P P P P P P P P P P P P P P P P P P P P P P P P P P P P P P P P P P P P P P P P P P P P P P P P P P P P P P P P P P P P P P P P P P P P P P P P ",
"P P P P P P P P P P P P P P P P P P P P P P P P P P P P P P P P P P P P P P P P P P P P P P P P P P P P P P P P P P P P P P P P P P P P P P P P P P P P P P P P P P P P P P P P P P P P P P P P P P P P P P P P P P P P P P P P P P P P P P P P P P P P P P P P P P P P P P P P P P P P P P P P P P P P P P P P P P P P P P P P P P P P P P P P P P P P P P P P P P P P P P P P P P P P P P P P P P P P P P P P ",
"P P P P P P P P P P P P P P P P P P P P P P P P P P P P P P P P P P P P P P P P P P P P P P P P P P P P P P P P P P P P P P P P P P P P P P P P P P P P P P P P P P P P P P P P P P P P P P P P P P P P P P P P P P P P P P P P P P P P P P P P P P P P P P P P P P P P P P P P P P P P P P P P P P P P P P P P P P P P P P P P P P P P P P P P P P P P P P P P P P P P P P P P P P P P P P P P P P P P P P P P ",
"P P P P P P P P P P P P P P P P P P P P P P P P P P P P P P P P P P P P P P P P P P P P P P P P P P P P P P P P P P P P P P P P P P P P P P P P P P P P P P P P P P P P P P P P P P P P P P P P P P P P P P P P P P P P P P P P P P P P P P P P P P P P P P P P P P P P P P P P P P P P P P P P P P P P P P P P P P P P P P P P P P P P P P P P P P P P P P P P P P P P P P P P P P P P P P P P P P P P P P P P ",
"P P P P P P P P P P P P P P P P P P P P P P P P P P P P P P P P P P P P P P P P P P P P P P P P P P P P P P P P P P P P P P P P P P P P P P P P P P P P P P P P P P P P P P P P P P P P P P P P P P P P P P P P P P P P P P P P P P P P P P P P P P P P P P P P P P P P P P P P P P P P P P P P P P P P P P P P P P P P P P P P P P P P P P P P P P P P P P P P P P P P P P P P P P P P P P P P P P P P P P P P ",
"P P P P P P P P P P P P P P P P P P P P P P P P P P P P P P P P P P P P P P P P P P P P P P P P P P P P P P P P P P P P P P P P P P P P P P P P P P P P P P P P P P P P P P P P P P P P P P P P P P P P P P P P P P P J P P G P G P P P P P P P P P P P P P P P P P P P P P J P G G G P P H P P P P P P P P P P P P P P P P P P P P P P P P P P P P P P P P P P P P P P P P P P P P P P P P P P P P P P P P P P ",
"P P P P P P P P P P P P P P P P P P P P P G P P H G G G G G G P J J P P P P P P P P P P P P P P P P P P P P P P P P P P P P P P P P P P P P P P P P P P P P P P P P P P P P P P P P P P P P P P P P P P P P P P P P P P H P ! R E K H P P P P P P P P P P P P P P P P P P P P J E ^ W P P P P P P P P P P P P P P P P P P P P P P P P P P P P P P P P P P P P P G G G P P P P P P P P P P P P P P P P P P P P P ",
"P P P P P P P P P P P P P P P P P P P P P P G G T ^ ) ^ ^ R P P P J P P P P P P P P P P P P P P P P P P P P P P P P P P P P P P P P P P P P P P P P P P P P P P P P P P P P P L J P G G G G P J P P P P P P P P P P P P P S s s u N P J P P P P P P P P P P P P G G G G K P P T d i 0 S P P P P P P P P P P P P P P P P P P P P P P P P P P P P P P P P P P P K W ! W W J J P P P P P P P P P P P P P P P P P P ",
"P P P P P P P P P P P P P P P P P P P G P H Y E h q 7 8 q h K K P P P P P P P P P P P P P P P P P P J P P P P P P P P P P P P P P P P P P P P P P P P L P P P P P P P P P P P P P J ! W ! P J P P P P P P P P P P P P J E d + @ o 9 W G P P P P P P P P P G K K P W W W G P K Z % X . 5 W G P P P P P P P P P P P P P P P P P P P P P P P P P P P P P G P G Y Z w w q t P P L P P P P P P P P P P P P P P P P P ",
"P P P P P P P P P P P P P P P P P P J P G T V 1 @ o X X O + < G P G P G G G H G P P P P H G G P J G G G G J L J L J L G G G G G G G G P P G G G P G G G P L P J G G G G L P J J P U y i r G G P P G G G G P P P G G G G U d @ + o i ^ G H P G H G G G P P P J J P e 9 y K G T B + X   2 ] G H P G P G G G G P G K J G G G J G G G G J P P J P P G G G G P G Y k O O X ; U P J P P P P P P P P P P P P P P P P P ",
"P P P P P P P P P P P P P P P P P P K G T Z * . + O X X O . < E G P H E ^ ^ ) U G G P P U ] W U J ! W ) ! J L P P J P W W ) W W ! W ! P U W W P G ! ) W J L P ! ] ] ) W U G P J J J -   = ! W U G W W W ! P J P E E W P U d + + o i ^ G P Y W ^ ^ ^ W K G P G U h O   4 [ E P P t 2 6 N P G P G U W ) W E P P K P K E W ! G U ^ ) W U G K K G H W W ) W E K Y B # O o < U G J P P P P P P P P P P P P P P P P P ",
"P P P P P P P P P P P P P P P P P J J G ! 2 . @ o * 7 7 : + y W G U U y i 7 p h ! P G U k w w N W t 9 7 t K K P G ~ H e i 7 p e w w t R j w e B ! y 7 e P P Z t 0 7 7 q Z ! P P ) q o O & w w n E y q q r H P Z w e q k ^ s + + X i ] G P B r i 7 i r G P G P ) 2 o O , e e D J t r e z U H P ] v q 7 i r J ! G P G e w t E n p 7 0 B R P P U P t i 7 9 t D P S $ O X 1 E G H H P P P P P P P P P P P P P P P P ",
"P P P P P P P P P P P P P P P P P P P U n @ + O * Z ) W U k G P U B : O o o X + 2 G P ^ p X . 3 5 o . X o 2 Y P P d - o .   X o O . % ] 5 . o a p O   : W y % + o . X o % t ! P i @ + + O O X a ) , o o & D ^ y O O . 9 ' y + + o i ^ ! 9 @ O X . X o ; N T Z 2 o + + O o + k S + o . 4 ] G R 7 @ O . . o = f R P B + . & q $ o X X & h U U B : O X   X O * N G % O X 4 ! G P P P P P P P P P P P P P P P P P P ",
"P P P P P P P P P P P P P P P P P P G ] 0 o @ X p W S G P U P P P ; . O O + O + . 2 R ^ p X + + X o O + + X q ^ H = X O ; 4 @ + + % i ) 5 X + % + O X 2 ) N # . @ @ + + X % G B o o + + O O . a ) 1 X O * Z E y @ @ o 9 ' s + + o i ^ R t X X @ @ + + . < ) e . + + + + o + k G # + . 4 ] ! i . O O + O + o % m ! B # O + O X o + + . , U ! 4 . + @ & # . = U G * @ . 4 W G G P P P P P P P P P P P P P P P P P ",
"P P P P P P P P P P P P P P P P P P G ^ 6 . + + y ! G P P J G W w X @ O 2 k , o + + d ' p X + O % q 3 O + X 2 ) f + + O t ' : O X 2 W ] 5 . + O O % % 7 ^ R q 8 N P 5 o @ + t P q * o O & q a k ^ 1 o O * D R s + O X 9 ) s + + X i ^ G P 7 q Z D : X + % Z N 9 @ + X > q 0 D Z # + X 4 ] V % O O = u i + + o 4 ) m # O + O 5 q $ O + $ Z P ; O O ; V Z i e ^ G = O X 7 ^ G P P P P P P P P P P P P P P P P P P ",
"P P P P P P P P P P P P P P P P P P G ^ 5 X + + d U G P P J G W 2 X + # Z [ d O + X 7 { p X @ X a { Z $ O X 1 W f + + O t { , o O < P ^ 5 . @ O 4 G S G J ! B r i 7 < O + O w W E : O o ; W W U R 1 X O - D E y + O X 9 ' s + + o i ] P ! n e 8 i ; o O @ N E G # + . 4 { E U S # O X 4 ' t O @ . p [ U ; o o ; P B # O o ; ! ' 2 X + @ N ^ < X @ O % 7 Z W G P : O X i ) G P P P P P P P P P P P P P P P P P P ",
"P P P P P P P P P P P P P P P P P P G ^ 7 . + + t ! G P J G H U < o O & S U n @ + X 4 { i o + + y ! S & O o 1 E H & X O , i # + . i ] ] 6 o + @ m W J J Q 9 # o     . + + O e ! G ; o O ; G G G R 1 X O * Z R y O @ X 9 ) s + + o i ! D 4 + X     X + O @ B K N @ + X 4 E D U Z # + X 4 [ q O O O r ! P < o O % G B @ + X 4 U ] 5 X + @ N E u # X + O X @ q E P > . X p W G P P P P P P P P P P P P P P P P P P ",
"P P P P P P P P P P P P P P P P P P G ^ q o @ X 7 ' G P P W R ! < X O % S P k @ + . 5 { p X + + u E Z * O X 1 P Y u $ O .   . . , S G ] 5 X + @ m P G ! u O O O * i 4 + + O e ! P : o o ; G P J R 1 o O * D ^ r o @ o 9 ' s + + X i { i . + O : 9 , o + @ N E B # + X 4 E G P Z # O X 4 ' w O @ O e Q J , o O & G B # + . 5 ! ^ 6 X + # B Y ! k 1 @ X + o @ n ! y r e n U J P P P P P P P P P P P P P P P P P P ",
"P P P P P P P P P P P P P P P P P J G Y n @ + O % y P P G e t ' 6 o @ + h } e O + o p { i X + + y E H & O o 1 E Y u % O 3 5 7 y W P G ] 5 . @ @ B U S W i X + O t  .e o + O e ! G ; O O = P K Z R 1 X + @ x ' 5 X @ o 9 ) s + + X i ' < X + # G | 4 o O # N Y B @ + X 2 ) G P S # O X 4 ' s + + o 6 [ J & O o : E B # O X 5 ! ^ 5 X + @ N P n R ' G 6 + + O e W P s n ! P P P P P P P P P P P P P P P P P P P P ",
"P P P P P P P P P P P P P P P P P P J G E 2 . @ O O ; : % . 7 ' u + + O = i & O O # n ) 9 X + + u ! D & + X 1 E P = . @ 4 a q q e Z P W 6 X + @ B R G ^ p o + O 2 q % O + O e E P , X + + , ; 9 { 4 X @ O * 1 + O + o 9 ) u + + o i ' < X + + i 7 + O O # N P D $ + O # < ; t P @ + o 4 W P ; o + # 7 < O + . a ) N # + X 5 E W 6 X + @ N T > * 5 0 6 + + O t ! : o O p ! G J P P P P P P P P P P P P P P P P P ",
"P P P P P P P P P P P P P P P P P P P J K S ; . o + o o O . 7 ^ U 7 . O o . O O X p R W 9 X + + u ! D & O . < P R i O @ X . X X o * k ' 5 . O @ N P G R z O o + o   @ $ o O e E E i   + O O   4 { y O o + o . @ $ o X p ' u + + . i [ a . O O X   $ @ o @ N Y K , . + O X . r G @ + . 4 W U d @ X O . X O . : J Y B + O . 5 E W 6 . O @ B T = . X X . + . * G n O + . , ! G J J P P P P P P P P P P P P P P P P ",
"P P P P P P P P P P P P P P P P P P P K P Y G 7 - @ @ @ # ; y ! G U 0 * @ @ @ = e ! G E p + # # u ! S = @ + 2 E D i @ X O O X o @ . 2 { 6 O # % B Y P J ! a # + @ * y a O @ e E P D 1 @ + @ % q E U q % + @ % t 9 O + 0 ' d # # + p ^ P 4 @ + @ > N 2 O % B Y Y n ; + @ @ * h G % # O 5 ] J ! d : # + @ $ 5 S U Y B $ $ O 6 E W 7 + # % N Y 5 $ @ @ @ @ , k E G < O + q E G J P P P P P P P P P P P P P P P P P ",
"P P P P P P P P P P P P P P P P P P G P P P P W G k y d B P R P J P ! G h u n P ! G P P D Z S B H P H Z Z Z S U 3 . + 1 q 0 0 : O o , U D Z Z Z J K P G J E B u h G ! P S Z G P P U R n u h Z K H H ~ Z s g D E P Z Z G P G Z Z Z G P G ! N u n U ! G Z Z P P P Y K k t k G P P Z Z Z S P P G W ! m u z S ! U J P J Z Z Z G K K D Z Z Z P K K Z h s s Z E Y G K G y h P J J P P P P P P P P P P P P P P P P P P ",
"P P P P P P P P P P P P P P P P P P P J J P J G P T E T U G P P P P G P P E U P G P P G P U U P P J K P Y Y Y S % O @ d ' W W 4 O X 4 E G U P U P J P P J G P ! U P G P P Y P J P P G K ^ Y P P K P P K R R H P P U U P G P U U U P J J G U ! U J G P U P P J P J P U E U P J P P P U P L P P G L U U ! J G L P G P Y P U P J J P P K K K P P K Y E R P P P K G P U R P P P P P P P P P P P P P P P P P P P P P ",
"P P P P P P P P P P P P P P P P P P P P P P P J P G G G P P P P P P J J G G P J H P P P J J P P J K P P P G P P : . + @ : : $ o X # h E G P J J J P J J P J J J P P P P J P J P G K P H G P P P K K H H G H P P J P P H P H P J P J P P P G G G J P J J P P P J P P P P P J J P P P P P P L J P L L J L J L P L P P P J P J P P P P P G P K G P H G G H P P P K P P G G P G P P P P P P P P P P P P P P P P P P ",
"P P P P P P P P P P P P P P P P P P P P P P P P P P P P P P P P P P P P P P P P P P P P P P P P P P P P P P J U z - O X .   o @ : d ! G P P P P P P P P P P P P P P P P P P P P P P P P P P P P P P P P P P P P P P P P P P P P P P P P P P P P P P P P P P P P P P P P P P P P P P P P P P P P P P P P P P P P P P P P P P P P P P P P P P P P P P P P P P P P P P P P P P P P P P P P P P P P P P P P P P P P ",
"P P P P P P P P P P P P P P P P P P P P P P P P P P P P P P P P P P P P P P P P P P P P P P P P P P P P P P P P U J r i 7 p q z P R P P P G P P P P P P P P P P P P P P P P P P P P P P P P P P P P P P P P P P P P P P P P P P P P P P P P P P P P P P P P P P P P P P P P P P P P P P P P P P P P P P P P P P P P P P P P P P P P P P P P P P P P P P P P P P P P P P P P P P P P P P P P P P P P P P P P P P ",
"P P P P P P P P P P P P P P P P P P P P P P P P P P P P P P P P P P P P P P P P P P P P P P P P P P P P P J J P G P W W ) W W U J G P J G P P P P P P P P P P P P P P P P P P P P P P P P P P P P P P P P P P P P P P P P P P P P P P P P P P P P P P P P P P P P P P P P P P P P P P P P P P P P P P P P P P P P P P P P P P P P P P P P P P P P P P P P P P P P P P P P P P P P P P P P P P P P P P P P P P P ",
"P P P P P P P P P P P P P P P P P P P P P P P P P P P P P P P P P P P P P P P P P P P P P P P P P P P P P P J J P J G G G G G P J P J P P P P P P P P P P P P P P P P P P P P P P P P P P P P P P P P P P P P P P P P P P P P P P P P P P P P P P P P P P P P P P P P P P P P P P P P P P P P P P P P P P P P P P P P P P P P P P P P P P P P P P P P P P P P P P P P P P P P P P P P P P P P P P P P P P P P P ",
"P P P P P P P P P P P P P P P P P P P P P P P P P P P P P P P P P P P P P P P P P P P P P P P P P P P P P P P P P P P P P P P P P P P P P P P P P P P P P P P P P P P P P P P P P P P P P P P P P P P P P P P P P P P P P P P P P P P P P P P P P P P P P P P P P P P P P P P P P P P P P P P P P P P P P P P P P P P P P P P P P P P P P P P P P P P P P P P P P P P P P P P P P P P P P P P P P P P P P P P P ",
"P P P P P P P P P P P P P P P P P P P P P P P P P P P P P P P P P P P P P P P P P P P P P P P P P P P P P P P P P P P P P P P P P P P P P P P P P P P P P P P P P P P P P P P P P P P P P P P P P P P P P P P P P P P P P P P P P P P P P P P P P P P P P P P P P P P P P P P P P P P P P P P P P P P P P P P P P P P P P P P P P P P P P P P P P P P P P P P P P P P P P P P P P P P P P P P P P P P P P P P P ",
"P P P P P P P P P P P P P P P P P P P P P P P P P P P P P P P P P P P P P P P P P P P P P P P P P P P P P P P P P P P P P P P P P P P P P P P P P P P P P P P P P P P P P P P P P P P P P P P P P P P P P P P P P P P P P P P P P P P P P P P P P P P P P P P P P P P P P P P P P P P P P P P P P P P P P P P P P P P P P P P P P P P P P P P P P P P P P P P P P P P P P P P P P P P P P P P P P P P P P P P P ",
"P P P P P P P P P P P P P P P P P P P P P P P P P P P P P P P P P P P P P P P P P P P P P P P P P P P P P P P P P P P P P P P P P P P P P P P P P P P P P P P P P P P P P P P P P P P P P P P P P P P P P P P P P P P P P P P P P P P P P P P P P P P P P P P P P P P P P P P P P P P P P P P P P P P P P P P P P P P P P P P P P P P P P P P P P P P P P P P P P P P P P P P P P P P P P P P P P P P P P P P P ",
"P P P P P P P P P P P P P P P P P P P P P P P P P P P P P P P P P P P P P P P P P P P P P P P P P P P P P P P P P P P P P P P P P P P P P P P P P P P P P P P P P P P P P P P P P P P P P P P P P P P P P P P P P P P P P P P P P P P P P P P P P P P P P P P P P P P P P P P P P P P P P P P P P P P P P P P P P P P P P P P P P P P P P P P P P P P P P P P P P P P P P P P P P P P P P P P P P P P P P P P P ",
"P P P P P P P P P P P P P P P P P P P P P P P P P P P P P P P P P P P P P P P P P P P P P P P P P P P P P P P P P P P P P P P P P P P P P P P P P P P P P P P P P P P P P P P P P P P P P P P P P P P P P P P P P P P P P P P P P P P P P P P P P P P P P P P P P P P P P P P P P P P P P P P P P P P P P P P P P P P P P P P P P P P P P P P P P P P P P P P P P P P P P P P P P P P P P P P P P P P P P P P P "
};
