/* XPM */
static char *_7bddccbdbdd4477c4f6be70becbf667cJgthDzyqjnDRi5U[] = {
/* columns rows colors chars-per-pixel */
"50 50 241 2 ",
"   c #5E332B",
".  c #713B2C",
"X  c #744937",
"o  c #784A3A",
"O  c #6F5043",
"+  c #795644",
"@  c #AE381A",
"#  c #873D2A",
"$  c #B13D24",
"%  c #99442D",
"&  c #884937",
"*  c #8A4C37",
"=  c #984B36",
"-  c #96543B",
";  c #B7482A",
":  c #A44B33",
">  c #B04A30",
",  c #A95539",
"<  c #B75738",
"1  c #BD5B3D",
"2  c #B4613D",
"3  c #C94829",
"4  c #D64C28",
"5  c #D8562D",
"6  c #CA4B36",
"7  c #C55738",
"8  c #D35032",
"9  c #D75836",
"0  c #DC5D3A",
"q  c #E25C2D",
"w  c #E25C35",
"e  c #C8643C",
"r  c #DA6538",
"t  c #DB643B",
"y  c #E6673A",
"u  c #E46A3D",
"i  c #E97739",
"p  c #EA7D3C",
"a  c #F37837",
"s  c #DE3E47",
"d  c #E13944",
"f  c #8B5944",
"g  c #985A44",
"h  c #BA4A46",
"j  c #A75B43",
"k  c #B95D43",
"l  c #8D644B",
"z  c #99644B",
"x  c #8C6350",
"c  c #9B6A52",
"v  c #99745B",
"b  c #A96548",
"n  c #B86647",
"m  c #AF704E",
"M  c #BA744D",
"N  c #A76D52",
"B  c #B76E52",
"V  c #A97759",
"C  c #B87757",
"Z  c #957965",
"A  c #AD7D64",
"S  c #DF424A",
"D  c #DD4448",
"F  c #C75A44",
"G  c #D95A44",
"H  c #D4534F",
"J  c #E1444B",
"K  c #E0464B",
"L  c #E35F40",
"P  c #E14B52",
"I  c #E15354",
"U  c #E25959",
"Y  c #C36244",
"T  c #CC6544",
"R  c #C46B48",
"E  c #CB6C4C",
"W  c #D46444",
"Q  c #DC6344",
"!  c #D86A47",
"~  c #C5734B",
"^  c #D9744B",
"/  c #CE6359",
"(  c #D86A54",
")  c #CC7451",
"_  c #C47C5B",
"`  c #C87858",
"'  c #D57957",
"]  c #DA7C54",
"[  c #E66743",
"{  c #E46C43",
"}  c #E77748",
"|  c #EB744A",
" . c #F27942",
".. c #E67A53",
"X. c #C97A63",
"o. c #DA7861",
"O. c #E47368",
"+. c #3BBE7F",
"@. c #6FB279",
"#. c #ED833B",
"$. c #F48A3D",
"%. c #F6903E",
"&. c #BB825E",
"*. c #A98768",
"=. c #B88867",
"-. c #B48D73",
";. c #BA9877",
":. c #88AB71",
">. c #B6A16B",
",. c #DD824F",
"<. c #CB815C",
"1. c #DA855A",
"2. c #DC825C",
"3. c #EA8342",
"4. c #E88B4B",
"5. c #F48747",
"6. c #E88659",
"7. c #E58B5C",
"8. c #F38B57",
"9. c #E89554",
"0. c #EB985E",
"q. c #F2955B",
"w. c #FAA748",
"e. c #C78767",
"r. c #CB8463",
"t. c #CD8A66",
"y. c #C58D6C",
"u. c #D38362",
"i. c #D58B64",
"p. c #D98966",
"a. c #DC8E6B",
"s. c #C9936A",
"d. c #DA966C",
"f. c #C68C73",
"g. c #D78B75",
"h. c #CD9472",
"j. c #C39A75",
"k. c #C79874",
"l. c #C49E7D",
"z. c #CC9B7A",
"x. c #D49573",
"c. c #D99874",
"v. c #DA9B75",
"b. c #D49D7B",
"n. c #DB9B7A",
"m. c #E28B66",
"M. c #EB9564",
"N. c #EB906E",
"B. c #E9996A",
"V. c #E39C72",
"C. c #E69C76",
"Z. c #C6A27A",
"A. c #CBA37D",
"S. c #DDA971",
"D. c #D4A27B",
"F. c #D7A779",
"G. c #DBA37A",
"H. c #E6A26A",
"J. c #F2A468",
"K. c #E2A47B",
"L. c #E8A978",
"P. c #F2AC7A",
"I. c #E4B178",
"U. c #F2B47C",
"Y. c #4EBF81",
"T. c #57BC81",
"R. c #5ABD82",
"E. c #4DC486",
"W. c #52C285",
"Q. c #5AC388",
"!. c #70C88F",
"~. c #BC9585",
"^. c #BEA790",
"/. c #B8B6B9",
"(. c #C59C8A",
"). c #D89F80",
"_. c #CBA383",
"`. c #CBA986",
"'. c #D4A482",
"]. c #DBA481",
"[. c #D4AC86",
"{. c #DBAB85",
"}. c #D4AC8A",
"|. c #DAAE8A",
" X c #CCB189",
".X c #D7B289",
"XX c #DBB28B",
"oX c #CAA695",
"OX c #D0AC99",
"+X c #DCB591",
"@X c #D6B897",
"#X c #DDBA95",
"$X c #E2AB83",
"%X c #E8A986",
"&X c #E4AE8A",
"*X c #E8B589",
"=X c #EDBC8C",
"-X c #F1B985",
";X c #F2BC88",
":X c #E6A993",
">X c #EEAC90",
",X c #E3BB94",
"<X c #E8B993",
"1X c #E3BD9A",
"2X c #F5BC96",
"3X c #D4B5A4",
"4X c #C2B6B8",
"5X c #97D39C",
"6X c #D8C29A",
"7X c #F3C38D",
"8X c #E9C694",
"9X c #E4C49C",
"0X c #EAC59A",
"qX c #F3C592",
"wX c #F5C898",
"eX c #DBC4A2",
"rX c #CDD9A7",
"tX c #E6C9A4",
"yX c #F3C9A3",
"uX c #F3C5A9",
"iX c #E7D3AA",
"pX c #EAD3AD",
"aX c #F4D3A2",
"sX c #F7D9A8",
"dX c #EBD4B4",
"fX c #F3DDB2",
"gX c #F3E0B2",
"hX c #F6E2B4",
"jX c #F8E4B5",
"kX c #F7E6B9",
"lX c #F9E7BA",
"zX c #F7E9BB",
"xX c #F8EBBB",
"cX c #B0BCC8",
"vX c #A7C6D4",
"bX c #A6CCE7",
"nX c #A6D0ED",
"mX c #A3D3F3",
"MX c #A2D7FA",
"NX c #EFDBC5",
"BX c #F9EBC6",
/* pixels */
"-.-.(.(.C.%X(.(.~.3XOX~.~.~.(.~.eXBX3X>Xf.g.1X3X(.OX(.oXoX3XNXOXOX`.oXOXOXdX3X(.oXoXOXoXdXuX2XuX2X2X",
"f O l ;.=.-._.j.;.=.`.j.Z.(.j.V `.tX@X:Xy.e.'.(.f.,X}.@X#XtX0Xz.[.,XXX+XXXtX#X#X`.}.#X}.Z.z.h.h.r.A ",
"c * *.;.f + c f x z f l V |.] 6.6...E ^ 7.7.....| 8.N.b.K.C.0.J.J.P.J.8.q.0.M.q.q.K.b.y.j < < = = & ",
"# @ . O = = = & & g j & v c.u [ y [ 7 t u u { | } 5.6.x...t | 5.} t 8.q.5.5.5.8.q.d.C m - , g & g j ",
"f b A x j N - l z z j b (.@X` X.' <.) ' m.p.o.6.] p.d.<X7.} ^ 6.^ e ' p.1.' p.m...b.&.N C y.k.y.h.=.",
";.;.*.*.;. X XZ.;.`.~.`. X@X@X#X9X#X9XXX,X9X`.XXdX1X+X,X1X9Xs.h.D.y.s.G.9XXXk.,X9XXX8XtX6X_.;.>.-.;.",
";.b % % = - o   h j B j j n _.] ..t } 6.{ K.'.} p...| | B.#XE E n E ] ] $X7.J.M.M.M.8.U.[.* X o f - ",
"Z., % % . # & X # g b , , : l.( 0 7 7 t 5 v.K.W Q G ^ ! 8.tXM 2 , n b ~ K.} y 5 w y w 6.c.- l b b z ",
" Xl   o X * ;. Xc N &.m B f.pXXXp.m.p.) ) 1XtX' S J U a.wXfXf.=.N =.t.t.8XK.7.7.1.1.,.L.tXz.F.[.Z.;.",
"*.Z Z *.*.;.`.;.[.;.`.iX9XXX X9X#X{.$X,X&X<XC.P S S J g.eX`._.}.+X#XD.}.XX;.-.(.#X9X}.#X.X}.A.XX}.*X",
"- o f - * - - < k < _ 9XE 7 1 Y R 7 < F T 7 K s P U s J h f f b C B j N j g f # =.G.2 - g - j j b R ",
"2 e ~ R 1 e u } | 4 C iX6 $ $ 3 $ $ $ 1 Q J K S >XsXU s J F B b M C j b b b C - x.%Xe n <.i.Y Y , n ",
"l m M ~ M 1 R R k < -.pXB > ` r.u.u.<.G K K s >XzXzXyXI s J / f.D.k.h.f.z.z.h.y.9X0Xv.&X,XXX'.l.Z.XX",
"-.-.;.;.*.v -.V f N C C C -.}.G.L.;X%XJ K K >XlXhXjXlXyXI s J O.F..X_.pX{.b.V.L.C.K..X,XK.-X;XP.P.P.",
"l l z z g g g b m n k k n f.,. .a { J s K >XxXhXhXhXfXzXyXI J s H M b XXi.T E } } Q ] h.j n 4.| { | ",
"O O o X * * c = j n n M ~ F.4.i [ S S J >XxXgXhXjXhXjXhXlXuXI J K F m 6Xe.T ) n j 1 M $Xr.&.M n ) ] ",
"v + + O l V `.A C C =.F.z._.G.Q J S S >XzXhXhXhXhXhXhXjXhXlXyXI J K / iX Xk.A.A.Z.k.A.tX9X9X.X[.[.(.",
";.j.;.e.e.h.n.x.l.`.|.#X`.A.a.P S S >XxXhXhXhXhXhXjXhXhXhXhXzXyXI s J O.B.m.1.8X*XL.V.U.M.m.m.7.7.6.",
"v m <.M j k < k , k tX,X' ' J S S >XxXhXhXjXhXlXhXfXxXjXhXhXhXkXwXI S D 8 5 4 ~ ] 8.7.M.6.6.8...| a ",
"j , = = : : # = : $ |.i.6 P D D >XxXhXhXhXhXkX7XH.G.U.hXhXhXhXhXzXyXI S P S 5 <.E | m.] ^ ] ' 1.! W ",
"V &.V c l g v =.X.r.pX` s J S >XxXhXhXjXhXkXqXA.bXnX^.-XzXgXjXjXhXzXyXI J J ( +X_.k..X{.XX0XdXiXdXiX",
"8X{.s.Z.A.;.;.P.g.a.N.P D S >XxXhXhXhXhXhXkXU.cXMXmXnXH.gXjXhXhXhXhXxXyXI s J ( 1.a.m A.B.d.V.P.U.P.",
"^ e < R ^ ] e.w 9 G s s S >XBXhXhXhXhXhXhXzXU./.MXMXbXH.jXjXhXhXhXhXhXlXyXI S J 6 @ > _ w y  .5.5.8.",
"1 > > 3 y ! X.6 6 P J s >XxXhXhXhXhXhXhXhXkXaXd./.cXv.7XxXgXhXjXhXhXhXhXlXyXI S D 6 ' d.3 u t 9 t t ",
"=.*.k.s.i.$XtX;.X.s s >XzXfXhXhXhXjXhXhXhXhXzXaXP.U.wXkXhXhXhXjXjXhXhXhXhXxXyXU d O.8X9Xx.b.{.h.C _ ",
"D.D..X{.[.#X9XiXdXN.>XkXhXhXhXhXjXhXjXhXhXhXhXkXBXzXkXhXhXhXhXjXhXhXhXhXhXgXxX%XD K.G.V.L.-XI.F.i.d.",
"t T i p p  .^ ) h.#X*XhXhXhXhXhXjXjXhXhXhXhXjXhXfXhXhXhXhXhXjXjXhXhXhXhXhXhXjX8X3. .u u w w t u t r ",
", 1 e ^ i t a a y _ e.jXhXhXhXhXhXhXfXhXhXhXhXhXhXhXhXhXhXhXhXhXgXhXhXhXhXhXzXwX} { Q Q 9 t } } r 9 ",
"*.v =.{.-.B a.B.V.'._.jXhXhXhXjXkXzXzXzXxXlXkXjXhXkXzXzXkXzXzXkXzXzXzXzXzXjXjXdX[.t.x.n.x.K.V.d.K.<.",
"A c r.H.V.x.[.K.V.m.K.jXjXhXjXaXqXqXwXqX8XqXwXhXjXaXqXqXqXqXqXqXqXqXqXqXaXjXlX2X7.p.d.1XJ.N.M.N.B.i.",
"# : u i q p.G.9 7 6 ' jXhXkXaX4.#.#.#.3.#.3.#.qXxXH.4.9.9.9.9.9.9.9.9.9.4.fXzX;X{ | ..|.N.m...| ....",
": 5 5 y r V.].5 7 3 ' hXhXkXiX3.3.3.3.3.3.3.p ;XxX0.w.w.w.w.w.w.w.w.w.w.0.sXkX2X} T n.$X! W W ! 7 t ",
"V i.2 M ;.Z.`.` i.` n.kXfXkXaX3.3.3.3.3.3.3.p -XzX0.S.I.I.I.I.I.I.S.I.I.B.sXzXiX#X[.tXdX1X+X#X+X{.G.",
"S.=.&.=.C <.t.b.9X'.].lXjXkXaX3.3.3.3.3.3.3.#.-XzXH.bXmXnXnXnXmXnXnXmXmXv.aXxX0Xr.1.2._ a.C.].i.' X.",
"e < < 1 e u t y 6.p.' lXfXkXaX3.3.3.3.3.3.3.p 7XxXH.vXmXnXnXnXnXnXnXnXnXG.sXxX*XT 7 F ! ! W G [ [ Q ",
"# @ @ > > ; 3 ) #X` E zXjXkXaX3.3.3.3.3.3.3.#.*XxXH.vXnXbXnXnXnXnXnXnXnXv.sXBX$X6 7 7 ( G E T F k Y ",
"z m C C k.e.<.'.tXl.D.jXjXkXaX3.3.3.3.3.3.3.p 7XxXH.nXMXMXMXmXMXmXmXbXMXH.sXzXiX_.OX}.'.`.].b.].}.#X",
"d.H.S.S.$XtXiXK.H.i.XXjXfXkXaX3.3.3.3.3.3.#.p -XxXM.oX/.4X/./././.vX/./.9.sXxX0Xa.c.&XpX<Xn.%X%XC.2X",
"%.%.%.$.i H.sXi 5.5.M.jXjXkXaX3.3.#.3.3.3.3.p -XxX7XJ.P.>.>.S.H.:.+.@.H.I.hXxXF.....<X=Xw w 9 8 [ w ",
"#.%.#.#.i M. Xe 3.i M.jXjXkXaX3.3.3.3.3.3.3.p 7XxXkXlXrXW.E.Q.Q.E.E.Q.Q.!.E.5X8XG 9 %X2Xw [ Q 9 0 ! ",
"s.s.s.d.v.9X>.&.n , &.hXhXjXaX3.3.3.3.3.3.3.p -XlXiX5XQ.Y.W.Y.W.W.W.W.W.Y.Y.R.!.:.g.0XgX1X|.}.].{.pX",
"S.7X-XI.L.I.7XI.d.F.$XhXhXzXaX3.3.3.3.3.3.3.p =XxX5X+.W.W.W.W.W.W.W.W.E.W.E.W.E.E.6XwX2XwX<X&X$Xn.n.",
"#.#.a #.#.5.5.0.9.;XP.wXhXfXaX3.3.3.3.3.3.#.#.-XlXrXQ.R.R.R.T.T.R.R.R.R.R.R.Q.Q.@.! [ | | [ [ [ G G ",
"#.#.#.i %.5.$.5.#.U.m.q r t t 9 4 5 9 5 8 8 8 1.c.G R 7 1 ' ~ F 1 1 7 Y F 7 ].t.t u u y [ [ [ Q ! Q ",
"d.H.S.H.H.I.U.U.L.<XG.V.d.E E g.V.u.' ) R r._ tXeXh.f.y.b.b.'.).}.}.f.f.n.x.1X`.n ` u.X.X.C ~ e.t.h.",
"2 <.M M ~ S.S.M ` _ g.b.1X+Xi.*X*X%XV.K.3Xn.n.*X<X$XG.pXeX>X].,X$X%X&XdXiX&Xn.$XV _ XX<Xx.t.X.r.c.$X",
"; 7 < e 5 M 1 ; ; ; 7 3 d.%Xa a a i u 6.tXQ |  .} { [ $X).3 3 4 4 8 8 <XC.9 t ! 9 Y |.] w G G 9 6 ( ",
"< 2 2 e 1 C m , % 7 Y t G.L.i 6.| y a 6.#Xe 0 w t 0 5 V.].@ 4 4 3 3 3 r.^ 5 t ) ` W C.! 5 9 8 9 4 ! ",
">.>.j.-.=.[.XXA.Z.A.s.s.{.9X<X&Xd.a.m.1XpXD.x.n.u.i.u.&XdXe.E _ ) ` g.#Xx._ t.b.XXn.<X+Xd.d.` u.<.d.",
"< e 2 e e E ^ T *X.X< F F F R E ) ^ E ^ ^ u.a.#X].o.u.p.N.c.i.c.).f.n.e.z.z.[.pXpX0XwX8X8X<XF.-XL.a."
};
