/* XPM */
static char *_d1f3dcf55ae4f21d3fc0c901ca42cebq7Geu8ylPykDLEvF[] = {
/* columns rows colors chars-per-pixel */
"50 50 250 2 ",
"   c #5E332B",
".  c #744937",
"X  c #784A3A",
"o  c #6F5043",
"O  c #795644",
"+  c #A5371C",
"@  c #B93919",
"#  c #873D2A",
"$  c #A83E26",
"%  c #B93E25",
"&  c #9A432D",
"*  c #884A37",
"=  c #8A4C37",
"-  c #984B36",
";  c #97543C",
":  c #B8482A",
">  c #A44B33",
",  c #B04A30",
"<  c #A95539",
"1  c #B95739",
"2  c #986533",
"3  c #B6613D",
"4  c #C6451D",
"5  c #C94829",
"6  c #D44D28",
"7  c #CA562E",
"8  c #D6522B",
"9  c #DC5A2D",
"0  c #C74D34",
"q  c #C75737",
"w  c #C5543B",
"e  c #CC5B3D",
"r  c #D45433",
"t  c #D75635",
"y  c #DA5C34",
"u  c #D35B3C",
"i  c #DB5D3A",
"p  c #E2592D",
"a  c #E35D34",
"s  c #E25B38",
"d  c #C7643B",
"f  c #DC6334",
"g  c #D4653B",
"h  c #DB643C",
"j  c #DE6A3C",
"k  c #DF723F",
"l  c #E36433",
"z  c #E4643C",
"x  c #E46B3D",
"c  c #EA6A38",
"v  c #E97739",
"b  c #EB733C",
"n  c #F37739",
"m  c #8B5A45",
"M  c #945944",
"N  c #9B5B43",
"B  c #A45B43",
"V  c #AA5B44",
"C  c #B85D43",
"Z  c #8D644B",
"A  c #99644B",
"S  c #8C6350",
"D  c #9B6951",
"F  c #99745B",
"G  c #AC6344",
"H  c #A8674B",
"J  c #B36245",
"K  c #BB6747",
"L  c #B46A4C",
"P  c #AE7848",
"I  c #BA744C",
"U  c #A76D52",
"Y  c #B96E53",
"T  c #A97758",
"R  c #BC7353",
"E  c #B77959",
"W  c #957864",
"Q  c #B37D63",
"!  c #C75D42",
"~  c #D65D42",
"^  c #C36344",
"/  c #CC6444",
"(  c #C56A48",
")  c #CD6C4B",
"_  c #D46444",
"`  c #DC6444",
"'  c #D66946",
"]  c #DC6B44",
"[  c #D36E4B",
"{  c #DB6C49",
"}  c #C7764B",
"|  c #D9754A",
" . c #DC744B",
".. c #D46E51",
"X. c #C47455",
"o. c #CB7352",
"O. c #C47C5B",
"+. c #CB7B58",
"@. c #D47B53",
"#. c #D77957",
"$. c #DA7C54",
"%. c #E46C43",
"&. c #E76A44",
"*. c #E57344",
"=. c #EB7443",
"-. c #EC7B43",
";. c #E2744C",
":. c #EB754A",
">. c #E57A48",
",. c #EB7B4B",
"<. c #F17943",
"1. c #E47A53",
"2. c #C67D62",
"3. c #D57F61",
"4. c #EE833B",
"5. c #F4883D",
"6. c #F6903E",
"7. c #B48442",
"8. c #BC845E",
"9. c #A98869",
"0. c #B88868",
"q. c #BC916C",
"w. c #B08C76",
"e. c #BB9777",
"r. c #B9A07B",
"t. c #C9835A",
"y. c #DE8B54",
"u. c #D8855A",
"i. c #DC825C",
"p. c #C69558",
"a. c #E7824B",
"s. c #F38846",
"d. c #F3834A",
"f. c #E5845B",
"g. c #EA8658",
"h. c #E48B5D",
"j. c #F38A57",
"k. c #ED915E",
"l. c #F3965B",
"z. c #C58566",
"x. c #CC8464",
"c. c #CD8A66",
"v. c #C48C6C",
"b. c #CB8D6C",
"n. c #D38463",
"m. c #DB8563",
"M. c #D48B65",
"N. c #DB8C63",
"B. c #D28C6B",
"V. c #DA8D6B",
"C. c #CC926C",
"Z. c #C79869",
"A. c #D89567",
"S. c #DC936C",
"D. c #DD9B6D",
"F. c #C68D72",
"G. c #D68C79",
"H. c #C59474",
"J. c #CC9472",
"K. c #C49A75",
"L. c #CB9B75",
"P. c #C59E7D",
"I. c #CC9C7B",
"U. c #D49473",
"Y. c #DB9572",
"T. c #D49B74",
"R. c #DA9B75",
"E. c #D9967C",
"W. c #D49D7A",
"Q. c #DC9C7B",
"!. c #E48C64",
"~. c #E89669",
"^. c #E69B6C",
"/. c #F29865",
"(. c #E39B72",
"). c #E59C77",
"_. c #DAAB6F",
"`. c #CBA073",
"'. c #C4A27C",
"]. c #CBA27D",
"[. c #D4A27C",
"{. c #DAA27B",
"}. c #D9A678",
"|. c #ECA764",
" X c #E5A16D",
".X c #EAA273",
"XX c #E6A876",
"oX c #E2A47B",
"OX c #E5AB7C",
"+X c #ECAB7C",
"@X c #F2AB7A",
"#X c #E6B37B",
"$X c #BB9684",
"%X c #BFA580",
"&X c #C59C8A",
"*X c #D49F80",
"=X c #CCA382",
"-X c #CAA887",
";X c #CCAA85",
":X c #D4A483",
">X c #DCA482",
",X c #D4AC85",
"<X c #DCAC85",
"1X c #D6A588",
"2X c #D4AD8A",
"3X c #DBAD8A",
"4X c #CDB18A",
"5X c #D4B18C",
"6X c #DAB388",
"7X c #DBB38C",
"8X c #CBA794",
"9X c #CFAD97",
"0X c #D4B593",
"qX c #DBB591",
"wX c #DDBA95",
"eX c #D9BB99",
"rX c #E5A686",
"tX c #E3AB83",
"yX c #EBAC83",
"uX c #E3AD8A",
"iX c #ECB484",
"pX c #E3B48D",
"aX c #EBB58B",
"sX c #E8B989",
"dX c #F4B686",
"fX c #E6B594",
"gX c #E3BC94",
"hX c #ECBC93",
"jX c #E3BD9A",
"kX c #F5BC96",
"lX c #D5B7A4",
"zX c #E3B5A3",
"xX c #DFC19C",
"cX c #E5C18E",
"vX c #ECC295",
"bX c #E4C49C",
"nX c #EAC69B",
"mX c #F4C69C",
"MX c #DCC3A2",
"NX c #E3C5A2",
"BX c #E4CBA4",
"VX c #EACCA2",
"CX c #E8CCA8",
"ZX c #E8D1AA",
"AX c #EFD1AF",
"SX c #EBD4AD",
"DX c #EBD7B4",
"FX c #F0E0BA",
"GX c #EFDBC5",
"HX c #F2E4C7",
/* pixels */
"w.w.&X&X).1X&X&X$XlX9Xw.$X&X&X$XMXHXzXfXF.G.zXlX&X8X&X8X8XlXGX9X0X8X&X9X9XDX9X&X8X8X9X8XCXCXkXmXkXkX",
"O * S q.0.q.-XK.&XQ -Xe.=X&XK.T -XCX3XfXv.z.1XW.H.wX5X0XeXNXnXI.2XgXqX7X7XBXxXeX4X2XwX4X&XI.E.U.z.Q ",
"D = 9.e.= m D m S D S S T 3X#.g.g. .[ ..f.f.1.;.,.j.~.W.tX^.k./.|.@X/.j.j.l.l.l.k.>XW.b.< < 1 - ; * ",
"# $ . X - - - * # N B # T W.h &.x &.q h ] %.=.=.,.d.1.E.:.x >.j.=.` l.l.j.d.d.j.k.Y.R P < < A . N N ",
"m H T m A H M A A H B H =X0XR 3.@.#.+.#.!.n.i.f.$.m.S.fXh.>.[ g. .d #.M.i.#.M.!.1.R.0.U E v.L.v.J.0.",
"e.%X9.9.e.4X4X'.w.-X%X=X4X0XlXeXNXeXbXwXfXbX-XqXSXNX7XfXjXbXC.U.W.Z.C.{.bX7XK.gXNX6XcXVXbX=Xr.w.w.F.",
"e.G & * = ; X   V V Y V V L =X#. .] ,.>.*.oX:X;.m.$.,.:./.gX} ( J ) @.$.tXh./.~./.~.j.+X,X; . X M = ",
"'.< & & # # * . # N V < < > I...h q q h 9 Y.rXu ` ` { { g.NXI G < J L } OX;.l 9 a l l g.T.- 2 D H D ",
"4XZ   X X ; K.4XD T 8.T Y F.SX3XM.!.N...o.bXBX[.T.M.B.V.mXFXH.8.U 0.c.c.nX.X!.f.u.u.a.+XVXL.}.[.'.K.",
"9.W W 9.W w.-Xe.,XZ.=XCXNXqX4XbXwX7XuXgX7XhXdXdXaXbXDXDXMX;X'.2XwX0X:X,XwXe.q.W.wXxX4XwX5X5X;X6X5XtX",
"; X m ; = ; ; 1 C 1 O.NX) 0 1 / ( w 1 1 / d g j %.tXBXD * M M H E L V L B M m . 0.{.G N N ; B V 3 ( ",
"3 ( d ( 3 d x ,.,.6 R ZX1 % % 5 % $ : : g h x y 8 iX=X& > B L H Y R B H G H E - W.+Xq K +.M.K ^ < K ",
"Z P I } K 3 } K C < q.ZXY > +.t.u.n.@.+.$.h.h.@.u.vXxXX.Y 2.J.F.[.L.J.v.I.I.J.Z.eXVXR.pXgX7X:X=X'.0X",
"w.w.r.$X0.F q.F m U E R Y e.5X}.OXaXaX+XVXcX{.OXnXbXwX0XCX1XT.>X}.6X-XSX3XW.)..X).).<XgXoXiXdX@X@X+X",
"Z Z D A M < A G L J K C K H.y.<.b s.s.6.^.+Xa.a.j.| ..S.wXY L N H I G 6XM.( )  .;.] $.C.< I g.=.*.,.",
"o . X . X = D - V J K I I {.>.c l b d.5.h.U.*.x k u 7 ` H.V N ; L G H eXx./ o.( < 1 R uX2.8.I K o.$.",
"F O O X A T -XQ E E 0.}.T.-X_.@.@.A..X^.gXW.u.u.+.+.n.{.nXq.9.'.;Xe.'.DX4X`.].;X'.K.].CXgXbX6X,X,X'.",
"e.e.e.z.z.H.E.U.P.=X6XeX-XL.,XwXpXcXvXvXhXnXjX>XbXvXXXuXR.#X#X#X X^.A.!.~.N.u.sXdXXX(.#X~.~.~.f.h.f.",
"F E t.X.J 1 < C < C NXjX@.D.h.1.1.a.,.l.j.>.1.=.^.~.4.v -.s.d.l 9 f 9 l l 9 8 } #.j.g.~.f.f.g.g.:.:.",
"< < - - - - & - , $ 2X#.5 < q ! 1.]  .1. ._ %.z N.N.n s.-.s.b l l l l 9 4 9 8 +.) :.!.$. .#.#.$.' ' ",
"T 8.T D Z ; F 0.2.2.SXF.b.b.0.J.].H.:X=XW.W.W.R.wXnXQ..X.X^.A.u.A.D.D.OXiX}.}.wX=XI.,X6X<XbXDXSXSXZX",
"cX6XZ.'.].K.e.yXV.V.).(.R.I.E b.V.M.n.U.BXpXXXdXoX}.yXVX<XoX}.iXcX_.#XqXA.N.~.y.u.m.T `.^.~.^.+XdX+X",
"$.d 1 ( | $.x.h i h t s i J 1 j _ 1 _ [ ,X$.c x %.,.n ~.P P D.A.t.y.y.t.4 4 4 5 4 @ > t.a j =.d.d.d.",
"q , : : f j z.0 0 q +.e h C.[ [ e u ] ' 5X[ x x h b >.S.E 3 K } I t.A.u.@ @ + @ % 4 t.A.6 j f y f j ",
"9.0.K.v.M.iXNXq.0.W $X4X0XBX;Xw.e.K.0.q.xX#X].r.].,X,X5X].E D U E U T 5XA.~..X XS.XXnXbXY.T.<XL.E t.",
"`.].5X<X,XwXNXZXFXFXSXcXcXpXVXVXxXBXBXZXVXSXSXDXSXVXVXmXmXcX6XbX6X6XwXcXcX5XeX<XXXsX}.Y.tXiXtX{.M.D.",
"] ( v v s.-.| o.C.0XT.t.8.A._._.p.p.7.7.p.#X#X#X/.=.*.v -.>.k a.k | j  .] g }.W.b =.x c l a h x f l ",
"1 1 g | x f n n c n.J V L 8.7.p.p.7.2 2 2 7.|.`.y.c c v v x v s.v x f -.v s.sXvX>.x ` h u i *.,.f e ",
"9.F 0.<Xq.Y A.^.^.:X0.0.F.J.b.F.0.`.e.7.p.Z.Z.;X{.y. X X(..XN.S.(.oXS..X+XdXVXSX6Xc.Y.{.G.oX(.S.oXt.",
"9.D x. X^.J.2XoXR.~.V.n.U.-XwXuXT.M.z.E ].;XZ.M.C.`.T.6XVXoX^.!.~.^.hXDXVX!.g.!.!.u.Y.jX.X.X~./.(.M.",
"# > x b p m.{.t 0 q 0 : u &X3.#.;... .;.7XB.d d t.} } A.rXl n <.c l z 3X!.=.:.:.:.=.1.2X~.1.;.;.:.;.",
"> 8 f f f (.>X8 u 0 r t _ 0.Q C ! ! ) ^ ;Xp.a.| t.d } t.T.%.b x f z h pXX.` ;.;. ._ Y.fX{ _ ` ' ~ _ ",
"P u.3 I e.'.=X+.M.+.2.V.U.0X5Xe.1X*XP.e.0X,XT.oX{.L.}.5XHXNXvXqX*X<XrXDXlX,X<X5XxX,XNXAXjXqXjXqX:X{.",
"{.q.9.0.E t.b.W.bX:XJ.G.W.rXB.U.Q.rXW.Y.tXgX3X1X^.^.y..X.X.X@X.XdX.X.XyX@XaXxXW.x.m.3.2.Y.).).3.#.3.",
"d 7 1 1 g j j x f.V.i ~ 0 ! _ ' ~ ~ ~ &.` { :.M.=.<.-.&.x ,.d.<.<.d.d.d.n ~.lX.._ q ! _ { ! { &.` ` ",
"# + + : > : 5 ..0Xx.% ! 0 ! ! ~ w % 0 0 r u ~ >X] z x x y %.x b >.=.=.=.&.Y.DX( q 0 ! [ _ ..! ! ! ^ ",
"A P E t.v.z.t.>XNX=Xz.z.2.B.2.Y 2.2.n.+.o.n.X.eX7XW.U.R.<X>XR.Y.<XuXuXW.pXZXHXCX&X0X5X2X1X>XW.:X9X3X",
"A.XX_.T.tXBXZX}. XB.[.<X&X&X*XP.2X9X2X2X9X,XW.Q.tXuXbXxXDXhXrXrXpXpXkXAXpXE.).G.V.Y.pXVXpXE.rXrX).kX",
"5.6.6.s.v |.AXv s.s.v a.a.K #.1.~ ! ! V.NX` #...$.$.!.!.jX1.s &.<.c &.zX) r ~ ~ 1.1.aXhXs s s t z z ",
"4.6.5.4.v ~.4Xg 4.>.>.a.] n._ ` ~ ~ r 1.NXr r ' { u u r ).3.6 s z c z kX~ 5 ` { ~ t rXkXs &.h u i ' ",
"c.p.p.A.R.nX'.I 3 < < t.A.SX3X>XB.n.+.M.GXU.M.z.R v.<XW.jXfXU.oXB.n.(.VXY.B.Q.).rXY.nXFXgX<X<X>X<XAX",
"#XcXsX#XXXOXsX#X_.}.T.A.A.+XaXrXuXaXtXaXmXkXsXNXlXrX>XfX).rXrXoXrXY.U.>X*X1XDXqX).kXvXkXmXhXuXtX*X).",
"5.4.v 4.4.s.s.|.l.sX@X<.b x =.=.%.*.,.%.j %.x f.Q._ [ _ e ! w u 0 ) ! ~ ^ w fXrXp &.&.:.&.&.&.` ~ ~ ",
"v 4.4.4.5.6.6.s.4.@X!.p r y t r 8 8 t 8 r 7 8  .U.u ) ~ 0 ..[ w w w 0 ! ! r >XV.s &.z z &.` &.%.] ` ",
"D.D.#X X XXX#X#XXXhX<X(.D.o.o.V.Y.N.+.o.( z.2.BXMXI.v.b.*XE.:X*X9X2Xe.F.W.U.jX-XL O.M.+.2.E R x.b.b.",
"} ( K I o.}.}.} O.O.B.W.jX0XM.yXiXuX).XXMXE.).yXhXtX[.ZXCXrX>XfXrXtXuXAXZXpXW.rXT O.3XfXG.n.2.x.G.rX",
": 7 1 d 7 } d : : : 0 5 V.tXn n n b c g.BX` =.d.,.%.%.tX*X5 5 6 5 t 8 fX).y h ` u ^ 3X#.s ~ i ~ r ..",
"1 1 I 3 1 8.P > & q / g {.+Xv g.=.b c h.0X/ y i i i 8 (.*X@ 6 5 5 5 5 n._ y h @.o._ (.{ p 8 r t 8 { ",
"Z.q.e.q.0.,X6X].'.[.Z.U.1XNXgXuXY.A.S.gXSX[.U.E.n.M.n.qXSXz.X.2.o.+.B.zXU.t.x.:X5X).hX7XS.D.t.n.@.U.",
"P 3 1 d ( ) [ / pX6X1 1 e ^ ( ) .. .[ ..[ i.V.eX>X3.n.f.~.(.n.(.*XJ.(.z.I.I.,XSXSXbXnXvXvXsX}.sXOXB."
};
