/* XPM */
static char *a82937bf36454d5f8039a8ea2eb5914fsZQzqQVbdumZYAST[] = {
/* columns rows colors chars-per-pixel */
"50 50 205 2 ",
"   c #262426",
".  c #552416",
"X  c #582412",
"o  c #55261A",
"O  c #5A2B1C",
"+  c #64321D",
"@  c #562A21",
"#  c #5E3125",
"$  c #673A2B",
"%  c #683E31",
"&  c #73432E",
"*  c #6C4236",
"=  c #774A37",
"-  c #7E584E",
";  c #7F5B51",
":  c #65605F",
">  c #87502E",
",  c #9E5E2E",
"<  c #AA6B3B",
"1  c #AD703F",
"2  c #B8773D",
"3  c #F74F05",
"4  c #F75707",
"5  c #F6540A",
"6  c #F7590B",
"7  c #F66A16",
"8  c #F7771D",
"9  c #F67337",
"0  c #F67C3A",
"q  c #815E54",
"w  c #996542",
"e  c #88665D",
"r  c #A46D44",
"t  c #AB7042",
"y  c #AF774B",
"u  c #B47544",
"i  c #B77943",
"p  c #BA7B44",
"a  c #B37A4C",
"s  c #BB7E4A",
"d  c #AD7451",
"f  c #B27953",
"g  c #8E716B",
"h  c #927770",
"j  c #CC7D4B",
"k  c #C07E54",
"l  c #B7853E",
"z  c #C89F35",
"x  c #F79130",
"c  c #BD814D",
"v  c #BE8350",
"b  c #B48B6C",
"n  c #BD9479",
"m  c #C1844C",
"M  c #C18553",
"N  c #C48A55",
"B  c #CB8458",
"V  c #C38B5B",
"C  c #D88A58",
"Z  c #DB8E5D",
"A  c #CA9652",
"S  c #E18B54",
"D  c #E6925C",
"F  c #ED945A",
"G  c #F49456",
"H  c #F3965A",
"J  c #F5995E",
"K  c #FB9C5F",
"L  c #CBA54A",
"P  c #CFAA4B",
"I  c #D3AD46",
"U  c #D3AD4C",
"Y  c #D6B24E",
"T  c #D9B64F",
"R  c #D3A152",
"E  c #D4AB53",
"W  c #DEBA52",
"Q  c #F6AF49",
"!  c #F6B548",
"~  c #E4BE53",
"^  c #F6B750",
"/  c #C58E6A",
"(  c #D08E64",
")  c #C79264",
"_  c #C59369",
"`  c #CA976D",
"'  c #CB9C74",
"]  c #C99E79",
"[  c #D69870",
"{  c #EF9962",
"}  c #F49D64",
"|  c #F69E65",
" . c #D1A37D",
".. c #F2A16D",
"X. c #F3A673",
"o. c #F4A979",
"O. c #F6D24E",
"+. c #E5C254",
"@. c #EECB57",
"#. c #E8C45A",
"$. c #F7C350",
"%. c #F3CD56",
"&. c #F6D354",
"*. c #F6D45A",
"=. c #F9D75A",
"-. c #F7DA5C",
";. c #FBD95C",
":. c #F7D762",
">. c #F7D864",
",. c #E5C975",
"<. c #F7DC77",
"1. c #F8DB74",
"2. c #9D9896",
"3. c #A6948E",
"4. c #B99B89",
"5. c #BEA799",
"6. c #AEA8A5",
"7. c #B9AAA6",
"8. c #B5B0AD",
"9. c #BFB6B2",
"0. c #BAB8B7",
"q. c #CF9F80",
"w. c #C5A18A",
"e. c #D3AA86",
"r. c #D5A886",
"t. c #D4AC8A",
"y. c #C5A996",
"u. c #CAB09F",
"i. c #D5B291",
"p. c #D8B494",
"a. c #DAB99B",
"s. c #EDAB89",
"d. c #F4B185",
"f. c #F4B389",
"g. c #E5B89B",
"h. c #F4B993",
"j. c #C1AEA5",
"k. c #C9B3A7",
"l. c #D4B8A6",
"z. c #DDBEA3",
"x. c #C7BBB7",
"c. c #C4BEBA",
"v. c #D1BFB1",
"b. c #F6DD87",
"n. c #F7C09D",
"m. c #E9D59B",
"M. c #F9E18C",
"N. c #FAE595",
"B. c #DFC3AC",
"V. c #CDC3BD",
"C. c #D4C5BA",
"Z. c #E1C1A4",
"A. c #E1C4AA",
"S. c #F5C7A9",
"D. c #E9C2B6",
"F. c #E3C9B2",
"G. c #E4CDBA",
"H. c #F9CEB2",
"J. c #E7D1BD",
"K. c #EAD1B9",
"L. c #F4D3BD",
"P. c #FAE8A4",
"I. c #FAE9AD",
"U. c #FAECBA",
"Y. c #CCC6C2",
"T. c #CAC9C8",
"R. c #D5CDC7",
"E. c #DBD1C9",
"W. c #DBD3CE",
"Q. c #D4D2D0",
"!. c #DBD6D3",
"~. c #DEDAD7",
"^. c #E9D5C4",
"/. c #E7D5C9",
"(. c #ECDCCE",
"). c #F7DAC6",
"_. c #E2D9D3",
"`. c #EADDD2",
"'. c #E2DEDA",
"]. c #F9E8C8",
"[. c #FCF1CA",
"{. c #EDE1D5",
"}. c #E5E1DD",
"|. c #EBE4DE",
" X c #F0E3D3",
".X c #F6E8DD",
"XX c #FCF4D4",
"oX c #FDF6DC",
"OX c #E5E4E2",
"+X c #ECE6E1",
"@X c #EDE9E4",
"#X c #ECEBE9",
"$X c #F4ECE4",
"%X c #FBECE2",
"&X c #F3EDE9",
"*X c #FCF0E7",
"=X c #F6F1EC",
"-X c #F9F3ED",
";X c #FEFCED",
":X c #EBEFF1",
">X c #F5F3F2",
",X c #FAF6F3",
"<X c #FCFAF5",
"1X c #F7FDFF",
"2X c #FFFFFF",
/* pixels */
"u.y.J.<X2X2X2X2X2X2X2X2X2X2X2X2X2X2X2X2X2X2X2X2X,X&X2X2X2X2X2X2X2X2X2X2X2X2X2X2X2X2X2X2X2X2X2X2X2X2X",
"w.> u J.2X2X2X2X2X2X+X; 3.- h <X2X2X2X2X2X2X.X] , 4.2X2X2X2X2X2X2X2X2X2X2X2X2X2X2X2X2X2X2X2X2X2X2X2X",
"2Xa.1 _ ,X2X2X2X2X'.h . . . O * 3.2X2X2X2X2Xp., r `.2X2X2X2X2X2X2X2X2X2X2X2X2X2X2X2X2X2X2X2X2X2X2X2X",
"2X2XF.2 t.2X2X2X2X; . # $ $ # X % }.2X<X2X^.p ` &X2X2X2X2X2X2X2X2X2X2X2X2X2X2X2X2X2X2X2X2X2X2X2X2X2X",
"2X2X2Xq.i ^.2X2X!.% o & f v > @ O = ,X2X$XN V -X2X2X2X2X2X2X2X2X2X2X2X2X2X2X2X2X2X2X2X2X2X2X2X2X2X2X",
"2X2X2X.Xc N =X2X% o > d a v w & o e 2X2X' i ^.2X2X2X2X2X2X2X2X2X2X2X2X2X2X2X2X2X2X2X2X2X2X2X2X2X2X2X",
"2X2X2X2Xz.2  .2Xq $ a v r a a y @ q 2Xa.2 r.2X2X2X2X2X2X2X2X2X2X2X2X2X2X2X2X2X2X2X2X2X2X2X2X2X2X2X2X",
"2X2X2X2X2X) < K.x.o r N y a N w O 7.^.1 V =X2X2X2X<X2X2X2X2X2X2X2X2X2X2X2X2X2X2X2X2X2X2X2X2X2X2X2X2X",
"2X2X2X2X2X^.i V u.O + s r w t X $ {.) i G.2X2X2X2X2X2X2X2X2X2X2X2X2X2X2X2X2X2X2X2X2X2X2X2X2X2X2X2X2X",
"2X2X2X2X2X2Xt.i ` x.7.] t i ] g 7. .2 e.2X<X2X2X2X2X2X2X2X2X2X2X2X2X2X2X2X2X2X2X2X2X2X2X2X2X2X2X2X2X",
"2X2X2X2X2X2X$XN p a.2X$Xu b 2X1XZ.i V &X2X2X2X2X2X2X2X2X2X2X2X2X2X2X2X2X2X2X2X2X2X2X2X2X2X2X2X2X2X2X",
"2X2X2X2X2X2X2XB.i R 1.i.M ) F.b.m s F.2X2X2X2X2X2X2X2X2X2X2X2X2X2X2X2X2X2X2X2X2X2X2X2X2X2X2X2X2X2X2X",
"2X2X2X2X2X2X2X<X' ~ &.l N v z *.R q.2X2X2X2X2X2X2X2X2X2X2X2X2X2X2X2X2X2X2X2X2X2X2X2X2X2X2X2X2X2X2X2X",
"2X2X2X2X2X2X2X2XU.O.:.+.A L @.;.#.$X2X2X2X2X2X2X2X2X2X2X2X2X2X=X,X2X2X2X2X2X2X2X2X2X2X2X2X2X2X2X2X2X",
"2X2X2X2X2X2X2X2XP.O.*.*.&.*.*.*.:.;X2X2X2X2X2X2X2X2X2X2X2X2X,X}.|.,X2X2X2X2X2X2X2X2X2X2X2X2X2X2X2X2X",
"2X2X2X2X2X2X2X2XM.&.*.*.*.*.*.*.*.[.2X2X2X2X2X2X2X2X2X2X2X2X2X/.D.+X,X2X2X2X2X<X2X2X2X2X2X2X2X2X2X2X",
"2X2X2X2X2X2X2X2X<.&.*.*.*.*.*.*.O.U.2X2X2X2X2X2X2X2X2X2X2X2X2X/.D.'.@X+X@X).*X2X2X2X2X2X2X2X2X2X2X2X",
"2X2X2X2X2X2X2X<X>.&.*.&.*.&.*.*.O.P.2X2X2X2X2X2X2X2X2X2X2X2X,X|.+X@X@X+X+X} } L.).H.H.h.%X2X2X2X2X2X",
"2X2X2X2X2X2X2XoX*.*.-.-.-.-.=.-.O.M.2X2X2X2X2X2X2X2X2X2X2X2X+X+X@X^.`.@X|.o.H G } s.s.J ).2X2X2X2X2X",
"2X2X2X2X2X2X2X[.*.%.Q Q Q Q Q Q &.1.<X2X2X2X2X2X2X2X2X2X2X&X+X+X+Xh.^.@X@Xf.} X...g.s.).2X2X2X2X2X2X",
"2X2X2X2X2X2X2XI.O.^ 9 9 9 9 9 0 %.;.<X2X2X2X2X2X2X1X>X:XG.r.}.Q.R.0.'.|.OXS.d.H.J o.%X2X2X2X2X2X2X2X",
"2X2X2X2X2X2X2XN.O.$.6 4 6 6 4 8 *.*.XX2X2X2X2X2X2X1X!.OXt.j j.0.Q.Y.'.-X&X`.( Z { o.2X2X2X2X2X2X2X2X",
"2X2X2X2X2X2X2XM.&.-.x 3 6 5 6 ! -.&.U.2X2X2X2X2X2X2X2XOXq.C u.0.6.+X8.2.c.Q.l.f C } .X2X2X2X2X2X2X2X",
"2X2X2X2X2X2X<X>.&.;.*.x 7 8 ! -.*.O.I.2X2X2X2X2X2X2X2X2XS.S v.Q.Y.Q.2.  : ~.Q.q.k S ).2X<X2X2X2X2X2X",
"2X2X2X2X2X2X;X*.*.*.*.-.&.*.-.*.*.&.M.2X1X2X2X2X2X2X2X2Xg.d _.&X+Xc.7.h 6.T.Y.0.5._ k.1X2X2X2X2X2X2X",
"2X2X2X2X2X2XXX&.*.*.*.*.;.*.*.*.*.&.<.2X2X2X2X2X2X2X%Xo.D k b '.+X+Xv.j.c.OX|.Y.Q.9.~.T.<X2X2X2X2X2X",
"2X2X2X2X2X2XU.O.*.*.*.&.+.*.*.*.*.*.:.<X2X2X2X2X2X-XX.H } { f '.@X+X@XOX&X&X&X!.c.'.Q.#XT.2X2X2X2X2X",
"2X2X2X2X2X2XP.O.*.*.;.@.Y *.*.*.*.*.*.oX2X2X2X<X2XH.G } D / v.OX+X+X+X+XV.v.OX@X}.2X#X1X>X<X2X2X2X2X",
"2X2X2X2X2X2XM.O.*.*.;.@.T +.%.=.*.*.&.[.2X2X2X2X2Xf.G s.Y.'.@X+X+X|.#Xy.C D s.|.2X2X2X2X2X2X2X2X2X2X",
"2X2X2X2X2X<X1.&.*.*.;.W +.%.&.*.*.*.O.I.2X2X2X2X2XX.d.+X&X+X+X+X|.&XV.B | } H |  X2X2X2X2X2X2X2X2X2X",
"2X2X2X2X2X;X:.*.*.*.*.~ %.;.*.*.*.*.O.N.2X2X2X2X2Xh. X@X|.|.+X+X$XOX] J | | } H d.2X2X2X2X2X2X2X2X2X",
"2X2X2X2X2XoX*.&.*.*.*.*.*.*.*.*.*.;.*.,.2X2X2X2X2X.X'.+X+X+X+X|.+Xj.C | | Z C | } ,X2X2X2X2X2X2X2X2X",
"2X2X2X2X2X].&.;.*.=.*.;.*.*.;.;.*.+.U E <X2X2X2X2X<XOX+X+X+X|.+X'.2.r.[ [ k { } | <X2X2X2X2X2X2X2X2X",
"2X2X2X2X1Xm.z T @.%.@.@.%.%.+.T U I I m.2X2X2X2X2X2X@X+X+X+X+X+X+XY.8.Y.4.F } H d.2X2X2X2X2X2X2X2X2X",
"2X2X2X2X2XXX,.U L U L L P P Y T Y ,.[.2X2X2X2X2X2X2X&X|.+X+X+X+X+X$XOX&X~./ F G S.2X2X2X2X2X2X2X2X2X",
"2X2X2X2X2X2X2X[.E U W W W ~ U E A {.2X<X2X2X2X2X2X2X2X#X+X|.+X+X+X|.+X}.@XW.l.K.&X2X2X2X2X2X2X2X2X2X",
"2X2X2X2X2X2X2X&Xf m N ].<X<X` c < B.2X2X2X2X2X2X2X2X2X2X,X>X@X+X+X+X+X+X+X&X<X2X2X2X2X2X2X2X2X2X2X2X",
"2X2X2X2X2X2X2X^.c c ) 1X2X2Xa.c m t.2X2X2X2X2X2X2X2X2X1X2X2X2X2X1X2X2X2X2X2X2X2X2X2X2X2X2X2X2X2X2X2X",
"2X2X2X2X2X<X2Xz.s s p.2X2X2X(.m m ) <X2X2X2X2X2X2X2X2X2X2X2X2X2X2X2X2X2X2X2X2X2X2X2X2X2X2X2X2X2X2X2X",
"2X2X2X2X2X2X2Xe.s m J.2X<X2X<X) c M |.2X2X2X2X2X2X2X2X2X2X2X2X2X2X2X2X2X2X2X2X2X2X2X2X2X2X2X2X2X2X2X",
"2X2X2X2X2X2X2X_ s N &X2X2X<X2Xi.c c F.2X2X2X2X2X2X2X2X2X2X2X2X2X2X2X2X2X2X2X2X2X2X2X2X2X2X2X2X2X2X2X",
"2X2X2X2X2X2X&XN k ' 2X2X2X2X2X^.c s p.2X2X2X2X2X2X2X2X2X2X2X2X2X2X2X2X2X2X2X2X2X2X2X2X2X2X2X2X2X2X2X",
"2X2X2X2X2X2X^.M p B.2X2X2X2X2X,XV c ' 2X2X2X2X2X2X2X2X2X2X2X2X2X2X2X2X2X2X2X2X2X2X2X2X2X2X2X2X2X2X2X",
"2X2X2X2X2X2XA.p m (.2X<X2X2X2X2Xt.p N -X2X2X2X2X2X2X2X2X2X2X2X2X2X2X2X2X2X2X2X2X2X2X2X2X2X2X2X2X2X2X",
"2X2X2X2X2X2Xt.s ) ,X2X2X2X2X2X2XG.c c ^.2X2X2X2X2X2X2X2X2X2X2X2X2X2X2X2X2X2X2X2X2X2X2X2X2X2X2X2X2X2X",
"2X2X2X2X2X2X` i r.2X2X2X2X2X2X2X=XV 2 a.2X2X2X2X2X2X2X2X2X2X2X2X2X2X2X2X2X2X2X2X2X2X2X2X2X2X2X2X2X2X",
"2X2X2X2X2X-X) i F.2X1X2X2X2X2X<X2X .2 r.2X2X2X2X2X2X2X2X2X2X2X2X2X2X2X2X2X2X2X2X2X2X2X2X2X2X2X2X2X2X",
"2X2X<X=X<X%X XG.$X2X2X2X2X2X2X2X2X(.Z.{.-X<X2X>X=X2X2X2X2X2X2X2X2X2X2X2X2X2X2X2X2X2X2X2X2X2X2X2X2X2X",
"+XC.k.k.E.{.{.$X2X2X2X2X2X2X2X2X2X<X.X{.(.C.j.C.E.=X2X2X2X2X2X2X2X2X2X2X2X2X2X2X2X2X2X2X2X2X2X2X2X2X",
"2X,X,X&X_._./._.2X2X2X2X2X2X2X2X2X<XE.R.E.|.=X=X2X2X2X2X2X2X2X2X2X2X2X2X2X2X2X2X2X2X2X2X2X2X2X2X2X2X"
};
