/* XPM */
static char *_9e70636f490425b9b14a9465f3327c2F6Etjtfio2Hn6Pwv[] = {
/* columns rows colors chars-per-pixel */
"50 50 169 2 ",
"   c #212120",
".  c gray16",
"X  c #323131",
"o  c #3C3C3C",
"O  c #480900",
"+  c #5C1909",
"@  c #5A1D13",
"#  c #6C1A01",
"$  c #631C0A",
"%  c #731F01",
"&  c #6B2104",
"*  c #6D2F04",
"=  c #6E240E",
"-  c #732B0B",
";  c #732C0C",
":  c #7D2D0D",
">  c #652816",
",  c #6C2914",
"<  c #6C2A1A",
"1  c #752A13",
"2  c #7B2E13",
"3  c #772F1A",
"4  c #6F3213",
"5  c #7D3214",
"6  c #7E3418",
"7  c #6D3623",
"8  c #753923",
"9  c #663930",
"0  c #764C3C",
"q  c #424242",
"w  c #4B4A4A",
"e  c #5B5B5B",
"r  c #646362",
"t  c #6C6B6B",
"y  c #727272",
"u  c #7B7B7B",
"i  c #872902",
"p  c #82360D",
"a  c #88310F",
"s  c #963A0B",
"d  c #823013",
"f  c #8A3412",
"g  c #823810",
"h  c #823518",
"j  c #943D15",
"k  c #913E18",
"l  c #8C3F24",
"z  c #803F2D",
"x  c #8B430F",
"c  c #884617",
"v  c #8D4018",
"b  c #924416",
"n  c #984615",
"m  c #91451C",
"M  c #98441B",
"N  c #974918",
"B  c #9C4C1B",
"V  c #9C5119",
"C  c #A34E1E",
"Z  c #AD5313",
"A  c #A4541C",
"S  c #A85419",
"D  c #AE5B1F",
"F  c #8D452B",
"G  c #934622",
"H  c #9D4D23",
"J  c #965126",
"K  c #9F5829",
"L  c #984E31",
"P  c #8F5338",
"I  c #985335",
"U  c #A95A24",
"Y  c #A85628",
"T  c #A25B2A",
"R  c #B95F20",
"E  c #A45D3A",
"W  c #A8622B",
"Q  c #B56225",
"!  c #BA6425",
"~  c #B9662B",
"^  c #BD682C",
"/  c #AD673B",
"(  c #B46B33",
")  c #B66A36",
"_  c #BE7639",
"`  c #C3742E",
"'  c #C77935",
"]  c #C77B3C",
"[  c #895748",
"{  c #9B5C45",
"}  c #935A49",
"|  c #826457",
" . c #986658",
".. c #947259",
"X. c #A56643",
"o. c #A67359",
"O. c #B27459",
"+. c #866A62",
"@. c #996F64",
"#. c #8B7466",
"$. c #947E6E",
"%. c #857972",
"&. c #957B74",
"*. c #A87560",
"=. c #B27C66",
"-. c #98807B",
";. c #B4816E",
":. c #B98776",
">. c #B98B77",
",. c #BD8F7F",
"<. c #BE9074",
"1. c #CF8440",
"2. c #D08E4D",
"3. c #E19B50",
"4. c #E6A153",
"5. c #EBA858",
"6. c #F3AD5B",
"7. c #E1A768",
"8. c #7D8081",
"9. c #8A8A8A",
"0. c #959595",
"q. c #9C9C9C",
"w. c #B79680",
"e. c #BC9B8B",
"r. c #A09490",
"t. c #A6A19F",
"y. c #9B9FA0",
"u. c #9EA0A1",
"i. c #A8A7A7",
"p. c #A5A8A8",
"a. c #ABACAC",
"s. c #ACB0B1",
"d. c #B5B5B5",
"f. c #BEB9B7",
"g. c #B2B6B8",
"h. c #BBBCBD",
"j. c #C49D90",
"k. c #D1AC85",
"l. c #C5A296",
"z. c #C4ACA0",
"x. c #CEADA0",
"c. c #D5B6A8",
"v. c #C1BFBE",
"b. c #C9BDB8",
"n. c #D4BDB4",
"m. c #B9BFC0",
"M. c #BDC4C6",
"N. c #C4C4C4",
"B. c #CCCBCB",
"V. c #D1CECB",
"C. c #CCCED0",
"Z. c #D4D4D5",
"A. c #DBDBDB",
"S. c #E3D3CC",
"D. c #E1D4D0",
"F. c #E3DAD7",
"G. c #DBDEE1",
"H. c #DEE1E2",
"J. c #E3E3E4",
"K. c #EAE5E4",
"L. c #E5E9EA",
"P. c #ECECEC",
"I. c #F0EFEF",
"U. c #EAEFF1",
"Y. c #EDF2F4",
"T. c #F3F3F3",
"R. c #F3F7F9",
"E. c #F7FAFC",
"W. c #FFFFFF",
/* pixels */
"W.W.W.W.W.W.W.W.W.W.W.W.W.W.W.W.W.W.W.W.W.W.W.W.W.W.W.W.W.W.W.W.W.W.W.W.W.W.W.W.W.W.W.W.W.W.W.W.W.W.",
"W.W.W.W.W.W.W.W.W.W.W.W.W.W.W.W.W.W.W.W.W.W.W.W.W.W.W.W.W.W.W.W.W.W.W.W.W.W.W.W.W.W.W.W.W.W.W.W.W.W.",
"W.W.W.W.W.W.W.W.W.W.W.W.W.W.W.W.W.W.W.W.W.W.W.W.W.W.W.W.W.W.W.W.W.W.W.W.W.W.W.W.W.W.W.W.W.W.W.W.W.W.",
"W.W.W.W.W.W.W.W.W.W.W.W.W.W.W.W.W.W.W.W.W.W.W.W.W.W.W.W.W.W.W.W.W.W.W.W.W.W.W.W.W.W.W.W.W.W.W.W.W.W.",
"W.W.W.W.W.W.W.W.W.W.W.W.W.W.W.W.W.W.W.W.W.W.W.W.W.W.W.W.W.W.W.W.W.W.W.W.W.W.W.W.W.W.W.W.W.W.W.W.W.W.",
"W.W.W.W.W.W.W.W.W.W.W.W.W.W.W.W.W.W.W.W.W.W.W.W.W.W.W.W.W.W.W.W.W.W.W.W.W.W.W.W.W.W.W.W.W.W.W.W.W.W.",
"W.W.W.W.W.W.W.W.W.W.W.W.W.W.W.W.W.W.W.W.W.W.W.W.W.W.W.W.W.W.W.W.W.W.W.W.W.W.W.W.W.W.W.W.W.W.W.W.W.W.",
"W.W.W.W.W.W.W.W.W.W.W.W.W.W.W.W.W.W.W.W.W.W.W.W.W.W.W.W.W.W.W.W.W.W.W.W.W.W.W.W.W.W.W.W.W.W.W.W.W.W.",
"W.W.W.W.W.W.W.W.W.W.W.W.W.W.W.W.W.W.W.W.W.W.W.W.W.W.W.W.W.W.W.W.W.W.W.W.W.W.W.W.W.W.W.W.W.W.W.W.W.W.",
"W.W.W.W.W.W.W.W.W.W.W.W.W.W.W.W.W.W.W.W.W.W.W.W.W.W.W.W.W.W.W.W.W.W.W.W.W.W.W.W.W.W.W.W.W.W.W.W.W.W.",
"W.W.W.W.W.W.W.W.W.W.W.W.W.W.W.W.W.W.W.W.W.W.W.W.W.W.W.W.W.W.W.W.W.W.W.W.W.W.W.W.W.W.W.W.W.W.W.W.W.W.",
"W.W.W.W.W.W.W.W.W.W.W.W.W.W.W.W.W.W.W.W.W.W.W.W.W.W.W.W.W.W.W.W.W.W.W.W.W.W.W.W.W.W.W.W.W.W.W.W.W.W.",
"W.W.W.W.W.W.W.W.W.W.W.W.W.W.W.W.W.W.W.W.W.W.W.W.W.W.W.W.W.W.W.W.W.W.W.W.W.W.W.W.W.W.W.W.W.W.W.W.W.W.",
"W.W.W.W.W.W.W.W.W.W.W.W.W.W.W.W.W.W.W.W.W.W.W.W.W.W.W.W.W.W.W.W.W.W.W.W.W.W.W.W.W.W.W.W.W.W.W.W.W.W.",
"W.W.W.W.W.W.W.W.W.W.W.W.W.W.W.W.W.W.W.W.W.W.W.E.E.W.W.E.W.W.W.W.W.W.W.W.W.W.W.W.W.W.W.W.W.W.W.W.W.W.",
"W.W.W.W.W.W.W.W.W.W.W.W.W.W.W.E.E.W.W.W.W.W.W.W.W.W.W.W.W.W.W.W.W.W.E.W.W.W.W.W.W.W.W.W.W.W.W.W.W.W.",
"W.W.W.W.W.W.W.E.W.W.W.W.W.W.W.W.W.W.I.I.J.A.B.e.b.G.Z.A.J.I.T.T.E.W.W.W.W.W.W.W.W.W.W.W.W.W.W.W.W.W.",
"W.W.W.W.W.W.W.W.W.W.W.W.W.W.E.H.v.d.p.u.q.q.o.Z c #.r.t.a.d.v.v.C.H.P.R.W.W.W.W.W.W.W.W.W.W.W.W.W.W.",
"W.W.W.W.W.W.W.W.W.W.W.W.H.z...%.9.%.| 0 7 , A ~ D ; > > > 9 [ ( ( ,.N.Z.H.I.W.W.W.W.W.W.W.W.W.W.W.W.",
"W.W.W.W.W.W.W.W.W.W.T.g.$.D Z g 3 1 & & k H k G / 8 - - K _ c W R S 0 -.f.B.J.T.W.E.W.W.W.W.W.W.W.W.",
"W.W.W.W.W.W.W.W.E.R.i.u X.R ` Y * 5 f ] 6.6.U { ;.F 2 2 T ( <.@.J 6 + W 5.k.C.G.E.W.E.W.W.W.W.W.W.W.",
"W.W.W.W.W.W.W.W.W.B.8.+.X.R R ~ c * n 7.2.B f l F h C Q B 1  .} 8 , 5 J K 4 +.Z.P.W.W.W.W.W.W.W.W.W.",
"W.W.W.W.W.W.E.W.W.B.0 *.O.H C S N p a =.=.F d : : d V A N 1 1 3 1 p U Q 6 @ O -.T.E.W.W.W.W.W.W.W.W.",
"W.W.W.W.W.W.W.W.R.T.P h L ) ` Y f a f ;.=.I f B b 2 2 1 - 2 6 1 ; W ^ ! G < O &.W.W.W.W.W.W.W.W.W.W.",
"W.W.W.W.W.W.W.W.I.J.K.I s ` 3.] j N g L L h M Q ! x d 1 H 3.5.m [ :.I 6 $ $ @.P.T.W.W.W.W.W.W.W.W.W.",
"W.W.W.W.W.W.W.W.W.B.A.E.c.X.s i s ! B : a _ 4.1.U v 2 d F ) K 2 z z = <  .b.R.H.T.W.W.W.W.W.W.W.W.W.",
"W.W.W.W.W.W.W.W.W.T.v.A.R.E.S.l.O.E M a i Q ' A % % % # # # = 3 0 o.l.F.U.G.V.K.W.E.W.W.W.W.W.W.W.W.",
"W.W.W.W.W.W.W.W.W.W.H.N.A.I.T.T.P.K.D.n.x.e.j.:.:.>.w.j.e.z.n.F.P.Y.L.C.N.N.A.W.W.W.W.W.W.W.W.W.W.W.",
"W.W.W.W.W.W.W.W.E.W.W.A.B.J.K.A.B.v.h.h.m.M.m.s.g.s.y.g.Y.U.L.J.A.C.v.v.N.A.R.W.W.W.W.W.W.W.W.W.W.W.",
"W.W.W.W.W.W.W.W.W.W.W.W.H.V.A.H.B.f.p.0.%.t e w o X   r A.C.Z.Z.Z.B.N.B.F.E.W.W.W.W.W.W.W.W.W.W.W.W.",
"W.W.W.W.W.W.W.W.W.W.W.W.W.P.Z.Z.C.h.p.q.9.u t e w q o q.K.Z.A.A.B.N.B.K.W.W.W.W.W.W.W.W.W.W.W.W.W.W.",
"W.W.W.W.W.W.W.W.W.W.W.W.W.W.E.K.A.N.p.0.9.u t e w o q N.G.A.Z.N.N.A.T.W.W.W.W.W.E.W.W.W.W.W.W.W.W.W.",
"W.W.W.W.W.W.W.W.W.W.W.W.W.W.W.W.E.T.Z.s.9.y e w q . e Z.Z.C.B.A.T.W.W.W.W.W.W.W.W.W.W.W.W.W.W.W.W.W.",
"W.W.W.W.W.W.W.W.W.W.W.W.W.W.W.W.W.W.W.W.P.V.a.0.9.u d.I.K.I.W.W.W.W.W.W.W.W.W.W.W.W.W.W.W.W.W.W.W.W.",
"W.W.W.W.W.W.W.W.W.W.W.W.W.W.W.E.E.W.W.W.W.W.W.W.W.W.W.W.W.W.W.W.E.W.W.W.W.W.W.W.W.W.W.W.W.W.W.W.W.W.",
"W.W.W.W.W.W.W.W.W.W.W.W.W.W.W.W.W.W.W.W.W.W.E.W.E.W.W.W.W.E.W.W.W.W.W.W.W.W.W.W.W.W.W.W.W.W.W.W.W.W.",
"W.W.W.W.W.W.W.W.W.W.W.W.W.W.W.W.W.W.W.W.W.W.W.W.W.W.W.W.W.W.W.W.W.W.W.W.W.W.W.W.W.W.W.W.W.W.W.W.W.W.",
"W.W.W.W.W.W.W.W.W.W.W.W.W.W.W.W.W.W.W.W.W.W.W.W.W.W.W.W.W.W.W.W.W.W.W.W.W.W.W.W.W.W.W.W.W.W.W.W.W.W.",
"W.W.W.W.W.W.W.W.W.W.W.W.W.W.W.W.W.W.W.W.W.W.W.W.W.W.W.W.W.W.W.W.W.W.W.W.W.W.W.W.W.W.W.W.W.W.W.W.W.W.",
"W.W.W.W.W.W.W.W.W.W.W.W.W.W.W.W.W.W.W.W.W.W.W.W.W.W.W.W.W.W.W.W.W.W.W.W.W.W.W.W.W.W.W.W.W.W.W.W.W.W.",
"W.W.W.W.W.W.W.W.W.W.W.W.W.W.W.W.W.W.W.W.W.W.W.W.W.W.W.W.W.W.W.W.W.W.W.W.W.W.W.W.W.W.W.W.W.W.W.W.W.W.",
"W.W.W.W.W.W.W.W.W.W.W.W.W.W.W.W.W.W.W.W.W.W.W.W.W.W.W.W.W.W.W.W.W.W.W.W.W.W.W.W.W.W.W.W.W.W.W.W.W.W.",
"W.W.W.W.W.W.W.W.W.W.W.W.W.W.W.W.W.W.W.W.W.W.W.W.W.W.W.W.W.W.W.W.W.W.W.W.W.W.W.W.W.W.W.W.W.W.W.W.W.W.",
"W.W.W.W.W.W.W.W.W.W.W.W.W.W.W.W.W.W.W.W.W.W.W.W.W.W.W.W.W.W.W.W.W.W.W.W.W.W.W.W.W.W.W.W.W.W.W.W.W.W.",
"W.W.W.W.W.W.W.W.W.W.W.W.W.W.W.W.W.W.W.W.W.W.W.W.W.W.W.W.W.W.W.W.W.W.W.W.W.W.W.W.W.W.W.W.W.W.W.W.W.W.",
"W.W.W.W.W.W.W.W.W.W.W.W.W.W.W.W.W.W.W.W.W.W.W.W.W.W.W.W.W.W.W.W.W.W.W.W.W.W.W.W.W.W.W.W.W.W.W.W.W.W.",
"W.W.W.W.W.W.W.W.W.W.W.W.W.W.W.W.W.W.W.W.W.W.W.W.W.W.W.W.W.W.W.W.W.W.W.W.W.W.W.W.W.W.W.W.W.W.W.W.W.W.",
"W.W.W.W.W.W.W.W.W.W.W.W.W.W.W.W.W.W.W.W.W.W.W.W.W.W.W.W.W.W.W.W.W.W.W.W.W.W.W.W.W.W.W.W.W.W.W.W.W.W.",
"W.W.W.W.W.W.W.W.W.W.W.W.W.W.W.W.W.W.W.W.W.W.W.W.W.W.W.W.W.W.W.W.W.W.W.W.W.W.W.W.W.W.W.W.W.W.W.W.W.W.",
"W.W.W.W.W.W.W.W.W.W.W.W.W.W.W.W.W.W.W.W.W.W.W.W.W.W.W.W.W.W.W.W.W.W.W.W.W.W.W.W.W.W.W.W.W.W.W.W.W.W."
};
