/* XPM */
static char *c9c5ed22e2db4b169eb0b57c4cb208ceqjvSNtdNm68cXa7i[] = {
/* columns rows colors chars-per-pixel */
"50 50 171 2 ",
"   c #532314",
".  c #5C2916",
"X  c #54251B",
"o  c #582719",
"O  c #5A2A1B",
"+  c #552920",
"@  c #5B2E22",
"#  c #5D3024",
"$  c #633220",
"%  c #6B3C2B",
"&  c #73432D",
"*  c #6C4337",
"=  c #6F463A",
"-  c #7A5449",
";  c #7E594F",
":  c #874B24",
">  c #814F34",
",  c #A56736",
"<  c #AB6E3E",
"1  c #B8763E",
"2  c #B9783F",
"3  c #F75205",
"4  c #F75807",
"5  c #F6550B",
"6  c #F7590B",
"7  c #F66D18",
"8  c #F7731A",
"9  c #F67337",
"0  c #F67939",
"q  c #825E53",
"w  c #996645",
"e  c #9F6A43",
"r  c #856359",
"t  c #A36D44",
"y  c #A86E41",
"u  c #A77046",
"i  c #AE7242",
"p  c #AC7448",
"a  c #BA7A44",
"s  c #B27748",
"d  c #B47B4C",
"f  c #BC7E49",
"g  c #B27C54",
"h  c #8F7067",
"j  c #8F716A",
"k  c #917269",
"l  c #C79E36",
"z  c #F79935",
"x  c #BE8C40",
"c  c #BD824E",
"v  c #BE8451",
"b  c #BB875D",
"n  c #A0857D",
"m  c #B28C72",
"M  c #C0844D",
"N  c #C69849",
"B  c #C18654",
"V  c #C48A53",
"C  c #C38B5B",
"Z  c #CF9A50",
"A  c #CBA547",
"S  c #CEA94A",
"D  c #D2AC46",
"F  c #D3AD4D",
"G  c #D8AF4F",
"H  c #D9B54F",
"J  c #D5A654",
"K  c #D9B357",
"L  c #DDBA52",
"P  c #F6AF49",
"I  c #F7B244",
"U  c #E3BD53",
"Y  c #E0BD59",
"T  c #F6BA52",
"R  c #C48E60",
"E  c #C79366",
"W  c #C99669",
"Q  c #CB996D",
"!  c #C69770",
"~  c #CC9C75",
"^  c #C69D7D",
"/  c #CEA27C",
"(  c #D1A377",
")  c #D0A47E",
"_  c #F6D24E",
"`  c #E6C355",
"'  c #E8C655",
"]  c #EECB56",
"[  c #EEC95D",
"{  c #F4CD56",
"}  c #F0CE58",
"|  c #F6D354",
" . c #F6D45A",
".. c #F9D75B",
"X. c #F7DA5C",
"o. c #FAD95C",
"O. c #E4C66D",
"+. c #F7D764",
"@. c #F7DB60",
"#. c #F7D96C",
"$. c #E7CA72",
"%. c #F8DD79",
"&. c #A48A82",
"*. c #AD9895",
"=. c #B6A19B",
"-. c #BCABA9",
";. c #D1A681",
":. c #D3A986",
">. c #D4AD8B",
",. c #D7B292",
"<. c #D9B495",
"1. c #DAB799",
"2. c #DBBA9D",
"3. c #C9B5A9",
"4. c #DCBDA4",
"5. c #CFBEB7",
"6. c #D2BFB1",
"7. c #F8DF81",
"8. c #EBD591",
"9. c #F4DD90",
"0. c #FBE38D",
"q. c #F9E497",
"w. c #FAE69B",
"e. c #DFC1A6",
"r. c #DFC2A9",
"t. c #D6C6BA",
"y. c #E1C5AC",
"u. c #E5C8AD",
"i. c #E8D5A6",
"p. c #E1C6B0",
"a. c #E3CAB3",
"s. c #E6CFBA",
"d. c #FAE7A4",
"f. c #FBEAAE",
"g. c #FBECB3",
"h. c #F2E0BE",
"j. c #FBEDBC",
"k. c #DBCCC2",
"l. c #D5CCCB",
"z. c #DFD1C4",
"x. c #DFD4CE",
"c. c #DFD6D3",
"v. c #E9D5C3",
"b. c #E3D7CD",
"n. c #ECDCCD",
"m. c #EBDED2",
"M. c #E3DBD9",
"N. c #FAEDC3",
"B. c #FAEFCA",
"V. c #FBF0C6",
"C. c #FBF1CE",
"Z. c #EEE1D3",
"A. c #EBE4DE",
"S. c #F1E3D4",
"D. c #F3E6DB",
"F. c #F3E8DE",
"G. c #FCF3D2",
"H. c #FDF6DB",
"J. c #EAE5E3",
"K. c #F4ECE3",
"L. c #F4EEEB",
"P. c #F7F0E6",
"I. c #FEF9E4",
"U. c #F6F1ED",
"Y. c #F9F4ED",
"T. c #FEFBEB",
"R. c #F6F4F2",
"E. c #FAF6F3",
"W. c #FEFCF5",
"Q. c #F9F6F8",
"!. c #FFFFFF",
/* pixels */
"!.!.!.!.!.!.!.!.!.!.Q.!.6.=.v.Q.!.!.!.!.!.W.!.!.!.!.!.!.!.!.!.!.!.!.!.!.E.U.!.!.!.!.!.!.!.!.!.!.!.!.",
"!.!.!.!.!.!.!.!.!.!.!.!.1.: , a.!.!.!.!.!.!.U.q &.q k Q.!.!.!.!.!.!.K.^ w m !.!.!.!.!.!.!.!.!.!.!.!.",
"!.!.!.!.!.!.!.!.!.!.!.!.!.e.< C U.!.W.!.!.J.n X   X O = &.!.!.!.!.!.1., y n.!.!.!.!.!.!.!.!.!.!.!.!.",
"!.!.!.!.!.!.!.!.!.!.!.!.!.!.s.a :.!.!.!.!.r   @ % % # X # M.!.Q.!.n.f E D.!.!.!.!.!.!.!.!.!.!.!.!.!.",
"!.!.!.!.!.!.!.!.!.!.!.!.!.!.!.>.1 a.!.!.c.= X & d v > + @ * U.!.U.C B K.!.Q.!.!.!.!.!.!.!.!.!.!.!.!.",
"!.!.!.!.!.!.!.!.!.!.!.!.!.!.!.L.B v D.!.-   > t c v t & O ; !.!./ 1 s.!.!.!.!.!.!.!.!.!.!.!.!.!.!.!.",
"!.!.!.!.!.!.!.!.!.!.!.!.!.!.W.!.p.a ~ !.h O d v u p d d $ = !.e.a ;.!.!.!.!.!.!.!.!.!.!.!.!.!.!.!.!.",
"!.!.!.!.!.!.!.!.!.!.!.!.!.!.!.!.!.! , u.l.O t B d s B u O *.S.< v K.!.Q.!.!.!.!.!.!.!.!.!.!.!.!.!.!.",
"!.!.!.!.!.!.!.!.!.!.!.!.!.!.!.!.!.m.f V 3.% . f u e i o + Z.W i y.!.!.!.!.!.!.!.!.!.!.!.!.!.!.!.!.!.",
"!.!.!.!.!.!.!.!.!.!.!.!.!.!.!.!.!.!.,.a W 5.-.;.y s ^ j =.) 2 ) !.!.!.!.!.!.!.!.!.!.!.!.!.!.!.!.!.!.",
"!.!.!.!.!.!.!.!.!.!.!.!.!.!.!.!.!.!.L.R a <.!.L.s b !.!.u.f V K.!.!.!.!.!.!.!.!.!.!.!.!.!.!.!.!.!.!.",
"!.!.!.!.!.!.!.!.!.!.!.!.!.!.!.!.!.W.!.a.a Z #.2.v E a.9.V a y.!.Q.!.!.!.!.!.!.!.!.!.!.!.!.!.!.!.!.!.",
"!.!.!.!.!.!.!.!.!.!.!.!.!.!.!.!.!.!.!.!.^ U | x B M N | J ! !.!.!.!.!.!.!.!.!.!.!.!.!.!.!.!.!.!.!.!.",
"!.!.!.!.!.!.!.!.!.!.!.!.!.!.!.!.!.!.!.!.N.| o.U N A ' o.[ D.!.!.!.!.!.!.!.!.!.!.!.!.!.!.!.!.!.!.!.!.",
"!.!.!.!.!.!.!.!.!.!.!.!.!.!.!.!.!.!.W.!.f._ .. .}  ... ...I.!.!.!.!.!.!.!.!.!.!.!.!.!.!.!.!.!.!.!.!.",
"!.!.!.!.!.!.!.!.!.!.!.!.!.!.!.!.!.!.!.!.q.| .. . . . . .| B.!.W.!.!.!.!.!.!.!.!.!.!.!.!.!.!.!.!.!.!.",
"!.!.!.!.!.!.!.!.!.!.!.!.!.!.!.!.!.!.!.!.7.|  . .|  . ..._ f.!.!.Q.!.!.!.!.!.!.!.!.!.!.!.!.!.!.!.!.!.",
"!.!.!.!.!.!.!.!.!.!.!.!.!.!.!.!.!.!.!.Q.#. . . . . . ...| q.!.!.!.!.!.!.!.!.!.!.!.!.!.!.!.!.!.!.!.!.",
"!.!.!.!.!.!.!.!.!.!.!.!.!.!.!.!.!.!.!.I... .X.X. .X.X.X.| %.!.!.!.!.!.!.!.!.!.!.!.!.!.!.!.!.!.!.!.!.",
"!.!.!.!.!.!.!.!.!.!.!.!.!.!.!.!.!.!.!.G.| { P P P P P P | #.W.!.!.!.!.!.!.!.!.!.!.!.!.!.!.!.!.!.!.!.",
"!.!.!.!.!.!.!.!.!.!.!.!.!.!.!.!.!.!.!.j._ T 9 9 9 9 9 0 { ..I.!.!.!.!.!.!.!.!.!.!.!.!.!.!.!.!.!.!.!.",
"!.!.!.!.!.!.!.!.!.!.!.!.!.!.!.!.!.!.!.d._ { 6 4 6 4 3 8 .. .C.!.!.!.!.!.!.!.!.!.!.!.!.!.!.!.!.!.!.!.",
"!.!.!.!.!.!.!.!.!.!.!.!.!.!.!.!.Q.!.!.0._ @.z 3 5 4 5 I X._ g.!.!.!.!.!.!.!.!.!.!.!.!.!.!.!.!.!.!.!.",
"!.!.!.!.!.!.!.!.!.!.!.!.!.!.!.!.!.!.!.#.| .. .z 7 8 I X. .| w.!.!.!.!.!.!.!.!.!.!.!.!.!.!.!.!.!.!.!.",
"!.!.!.!.!.!.!.!.!.!.!.!.!.!.!.!.!.!.W..... . .X. ...X. . .| 7.!.!.!.!.!.!.!.!.!.!.!.!.!.!.!.!.!.!.!.",
"!.!.!.!.!.!.!.!.!.!.!.!.!.!.!.!.!.!.H...|  . . . . . . . .| #.!.!.!.!.!.!.!.!.!.!.!.!.!.!.!.!.!.!.!.",
"!.!.!.!.!.!.!.!.!.!.!.!.!.!.!.!.!.!.V.|  . .|  .U  . . . .| +.T.!.!.!.!.!.!.!.!.!.!.!.!.!.!.!.!.!.!.",
"!.!.!.!.!.!.!.!.!.!.!.!.!.!.!.!.W.!.f._ .. .X.] H }  . . . . .G.!.Q.!.!.!.!.!.!.!.!.!.!.!.!.!.!.!.!.",
"!.!.!.!.!.!.!.!.!.!.!.!.!.!.!.!.!.!.q._  . .o.] L H ] o. . .| j.!.!.!.!.!.!.!.!.!.!.!.!.!.!.!.!.!.!.",
"!.!.!.!.!.!.!.!.!.!.!.!.!.!.!.!.!.!.%.|  . .o.` U }  . . ...{ d.!.!.!.!.!.!.!.!.!.!.!.!.!.!.!.!.!.!.",
"!.!.!.!.!.!.!.!.!.!.!.!.!.!.!.!.!.Q.+. . . . .` ] o. . . . .| 0.!.!.!.!.!.!.!.!.!.!.!.!.!.!.!.!.!.!.",
"!.!.!.!.!.!.!.!.!.!.!.!.!.!.!.!.!.I... . . . . . .| |  . .o.| $.!.!.!.!.!.!.!.!.!.!.!.!.!.!.!.!.!.!.",
"!.!.!.!.!.!.!.!.!.!.!.!.!.!.!.!.!.B.{ o..... ... .o. .o. .` S S T.!.!.!.!.!.!.!.!.!.!.!.!.!.!.!.!.!.",
"!.!.!.!.!.!.!.!.!.!.!.!.!.!.!.!.!.i.l H ' } ] } } } ' H D D D 8.!.!.!.!.!.!.!.!.!.!.!.!.!.!.!.!.!.!.",
"!.!.!.!.!.!.!.!.!.!.!.!.!.!.!.!.!.H.$.S A S S A S S H H H O.B.!.!.!.!.!.!.!.!.!.!.!.!.!.!.!.!.!.!.!.",
"!.!.!.!.!.!.!.!.!.!.!.!.!.!.!.!.!.!.!.B.K J L L L Y F G V n.!.W.!.!.!.!.!.!.!.!.!.!.!.!.!.!.!.!.!.!.",
"!.!.!.!.!.!.!.!.!.!.!.!.!.!.!.!.!.!.!.R.g c V h.W.W.( f < 4.!.!.!.!.!.!.!.!.!.!.!.!.!.!.!.!.!.!.!.!.",
"!.!.!.!.!.!.!.!.!.!.!.!.!.!.!.!.!.!.!.n.c v C Q.!.!.4.f c ;.!.!.!.!.!.!.!.!.!.!.!.!.!.!.!.!.!.!.!.!.",
"!.!.!.!.!.!.!.!.!.!.!.!.!.!.!.!.!.W.!.y.f c >.!.!.!.D.v c C W.!.!.!.!.!.!.!.!.!.!.!.!.!.!.!.!.!.!.!.",
"!.!.!.!.!.!.!.!.!.!.!.!.!.!.!.!.!.!.!.,.f f a.!.W.!.Q.Q c M Z.!.Q.!.!.!.!.!.!.!.!.!.!.!.!.!.!.!.!.!.",
"!.!.!.!.!.!.!.!.!.!.!.!.!.!.!.!.!.!.!.~ c B F.!.!.!.!.2.f f y.!.!.!.!.!.!.!.!.!.!.!.!.!.!.!.!.!.!.!.",
"!.!.!.!.!.!.!.!.!.!.!.!.!.!.!.!.!.!.U.B f Q W.!.!.!.!.n.c f >.!.!.!.!.!.!.!.!.!.!.!.!.!.!.!.!.!.!.!.",
"!.!.!.!.!.!.!.!.!.!.!.!.!.!.!.!.!.!.Z.B a 1.!.!.W.!.!.E.E c E !.!.!.!.!.!.!.!.!.!.!.!.!.!.!.!.!.!.!.",
"!.!.!.!.!.!.!.!.!.!.!.!.!.!.!.!.!.!.a.f c v.!.!.!.!.!.!.,.a B F.!.W.!.!.!.!.!.!.!.!.!.!.!.!.!.!.!.!.",
"!.!.!.!.!.!.!.!.!.!.!.!.!.!.!.!.!.!.1.a C U.!.!.!.!.Q.!.v.c c s.!.W.!.!.!.!.!.!.!.!.!.!.!.!.!.!.!.!.",
"!.!.!.!.!.!.!.!.!.!.!.!.!.!.!.!.!.!.~ a / !.!.!.!.!.!.!.R.R a <.!.!.!.!.!.!.!.!.!.!.!.!.!.!.!.!.!.!.",
"!.!.!.!.!.!.!.!.!.!.!.!.!.!.!.!.!.E.W a r.!.Q.!.!.!.!.!.!.>.1 / !.!.!.!.!.!.!.!.!.!.!.!.!.!.!.!.!.!.",
"!.!.!.!.!.!.!.!.!.!.!.!.!.!.Q.R.Q.P.S.s.F.!.!.!.!.!.!.!.!.n.r.Z.Y.!.Q.R.U.Q.!.!.!.!.!.!.!.!.!.!.!.!.",
"!.!.!.!.!.!.!.!.!.!.!.!.K.k.3.3.k.m.Z.K.!.!.!.!.!.!.!.!.!.Q.K.Z.n.5.3.t.t.U.!.!.!.!.!.!.!.!.!.!.!.!.",
"!.!.!.!.!.!.!.!.!.!.!.!.!.R.R.K.c.x.b.b.!.!.!.!.!.!.!.!.!.W.z.k.x.A.U.Y.!.!.!.!.!.!.!.!.!.!.!.!.!.!."
};
