/* XPM */
static char *_5840855d5914ba0a80f99db11a06b7cHsdslu7EA2CpsL1a[] = {
/* columns rows colors chars-per-pixel */
"50 50 221 2 ",
"   c #000001",
".  c #090605",
"X  c #120B00",
"o  c #1A1200",
"O  c #0A0D16",
"+  c #0E1117",
"@  c #12151D",
"#  c #271B02",
"$  c #211D14",
"%  c #372A09",
"&  c #3A2C0B",
"*  c #171B22",
"=  c #24252A",
"-  c #302F2C",
";  c #36383C",
":  c #483609",
">  c #4F3C0E",
",  c #584619",
"<  c #4F5717",
"1  c #50571A",
"2  c #535B1D",
"3  c #68531E",
"4  c #56492D",
"5  c #565E21",
"6  c #595F27",
"7  c #715A21",
"8  c #5C6429",
"9  c #567633",
"0  c #616B2C",
"q  c #7C6325",
"w  c #7C662E",
"e  c #69752E",
"r  c #656C34",
"t  c #6A7239",
"y  c #3A3C41",
"u  c #3F4144",
"i  c #484A50",
"p  c #57585B",
"a  c #645E5F",
"s  c #6C6C47",
"d  c #777D4D",
"f  c #5B5D61",
"g  c #5F6166",
"h  c #64666A",
"j  c #6B6E75",
"k  c #78797A",
"l  c #826827",
"z  c #886C24",
"x  c #9B6024",
"c  c #97792C",
"v  c #847A3B",
"b  c #9C7E31",
"n  c #AA7532",
"m  c #678A02",
"M  c #6B8E02",
"N  c #6E9107",
"B  c #6E9109",
"V  c #71930B",
"C  c #6D8912",
"Z  c #708F10",
"A  c #789717",
"S  c #4D9F2A",
"D  c #7E9D24",
"F  c #6A953E",
"G  c #58A62A",
"H  c #5EB224",
"J  c #5BAA38",
"K  c #69B437",
"L  c #7CCA2A",
"P  c #7BC439",
"I  c #3A8747",
"U  c #589246",
"Y  c #6F9945",
"T  c #7AA24D",
"R  c #76BD41",
"E  c #7E9F6D",
"W  c #7EA96D",
"Q  c #7AC141",
"!  c #8F9032",
"~  c #A78735",
"^  c #B68630",
"/  c #B8943A",
"(  c #BA953B",
")  c #8AA43A",
"_  c #C29B3C",
"`  c #D7A62C",
"'  c #E5B23E",
"]  c #88D22E",
"[  c #83CB37",
"{  c #8DD33B",
"}  c #92D838",
"|  c #FCC63F",
" . c #888D54",
".. c #B29453",
"X. c #88A64C",
"o. c #95AB49",
"O. c #9DB458",
"+. c #A9AF52",
"@. c #8F936C",
"#. c #AE8D70",
"$. c #8EB669",
"%. c #9BA277",
"&. c #ADB76E",
"*. c #A8BC6A",
"=. c #C29D40",
"-. c #D6AD45",
";. c #CCB149",
":. c #D9BB4B",
">. c #E8BB4A",
",. c #ECBF50",
"<. c #CCA471",
"1. c #85C844",
"2. c #8DD144",
"3. c #98D848",
"4. c #A5DF5C",
"5. c #A4E050",
"6. c #9BCC6F",
"7. c #AFC375",
"8. c #AED275",
"9. c #ADE16C",
"0. c #B9E67B",
"q. c #E5C34E",
"w. c #FBC643",
"e. c #FEC945",
"r. c #F6C648",
"t. c #F5C64F",
"y. c #FDCB4E",
"u. c #FFD44A",
"i. c #EDC950",
"p. c #F5C652",
"a. c #FECD51",
"s. c #FDCE5B",
"d. c #FFD353",
"f. c #FFDB56",
"g. c #F3D75A",
"h. c #FFD15C",
"j. c #FFDC58",
"k. c #FFE55D",
"l. c #D7C861",
"z. c #FACE60",
"x. c #FFD666",
"c. c #FDD36A",
"v. c #FFD673",
"b. c #FED97D",
"n. c #FFE067",
"m. c #7E7F82",
"M. c #7E8189",
"N. c #79AF88",
"B. c #88898A",
"V. c #8C8E91",
"C. c #96989C",
"Z. c #A19881",
"A. c #92BB93",
"S. c #ABAD92",
"D. c #9B9DA4",
"F. c #A7A7A9",
"G. c #B7B5AB",
"H. c #ACAEB3",
"J. c #B8B8B8",
"K. c #C8B29A",
"L. c #CCBCA9",
"P. c #B1C98F",
"I. c #BFE986",
"U. c #BFC7A6",
"Y. c #B7D2B7",
"T. c #C5CF91",
"R. c #FDDB83",
"E. c #FEDD8B",
"W. c #FCDF97",
"Q. c #CAED97",
"!. c #FFE689",
"~. c #FFE58B",
"^. c #FFE698",
"/. c #FEE39C",
"(. c #CAD7A5",
"). c #CBCEBB",
"_. c #D2D3B2",
"`. c #E5CDB9",
"'. c #D6EAB1",
"]. c #FEE5A5",
"[. c #FFE9A1",
"{. c #FDE5AA",
"}. c #FFF0AC",
"|. c #FDE8B4",
" X c #FFEBB4",
".X c #FFF5B9",
"XX c #BABDC3",
"oX c #C7C7C7",
"OX c #C9D2CC",
"+X c #D5D7C8",
"@X c #D7D6D5",
"#X c #DBDBDC",
"$X c #E9DFD4",
"%X c #DCE4C3",
"&X c #D1E6CB",
"*X c #D7E3D6",
"=X c #FCEDC6",
"-X c #E2F6C8",
";X c #FFF7CA",
":X c #EBE9D1",
">X c #E6E9DA",
",X c #FEF3D4",
"<X c #FFFDD3",
"1X c #FCF2DA",
"2X c #FFFEDE",
"3X c #DBDEE4",
"4X c #DFE9E6",
"5X c #E2E2E1",
"6X c #E9EBEA",
"7X c #F5EFE9",
"8X c #EDF2E9",
"9X c #FEF6E2",
"0X c #F8F8E7",
"qX c #FFFCE5",
"wX c #F3F4EC",
"eX c #FEFCEC",
"rX c #ECEDF1",
"tX c #F6F5F4",
"yX c #F7F8F7",
"uX c #FDFCF4",
"iX c #FEFEFE",
/* pixels */
"iXiXiXiXiXiXiXiXiXyXiXiXiXiXiXiXiXiXiXiXiXiXiXiXiXiXiXiXiXiXiXiXiXiXiXuX,X|.E.x.E.qXiXiXiXiXiXiXiXiX",
"iXiXiXiXiXiXiXiXiX6X8XiXiXiXiXiXiXiXiXiXiXiXiXiXiXiXiXiXiXiXiXqX=X[.b.s.y.e.e.y.e.a./.OX&XY.iXiXiXiX",
"iXiXiXiXiXiXiXiXiXS.).iXiXiXiXiXiXiXiXiXiXiXiXiXiXiXiXiXiXiXL.>.u.w.r.y.y.a.a.t.y.u.u.:.W &XiXiXiXiX",
"iXiXiXiXiXiXiXiXtXt %.iXiXiXiXiXiXiXiXiXiXiXiXiXiXiXiXiXyXiXC.z n.d.d.j.j.j.f.f.f.f...o a iXiXiXiXiX",
"iXiXiXiXiXiXiXiX+Xt E >XiXiXiXyXiXiXiXiXiXiXiXiXiXiXiXiXiXiXrX- > 3 3 w q l c b b &   ; oXiXiXiXiXiX",
"iXiXiXiXiXiXiXiXZ.2 8 G.iXiXiXwXwXiXiXiXiXiXiXiXiXiXiXiXiXiXiXF.O .               - H.iXiXiXiXiXiXiX",
"iXiXiX>XyXiXiX).@.6 8 @.*XiXiXT.T.iXiXiXiXiXiXiXiXiXiXiXiXiXiXiXiXtXyXtX#X#X@XXXJ.iXiXyXiXiXiXiXiXiX",
"iXiXiXO.%XiXiX).r 5 <  .7XiXiXo.o.yXiXiXiXiXiXiXiXiXiXiXiXiXiXiXiXuX|.R.!.!.~.~.~.b.,XiXyXiXiXiXiXiX",
"iXiX%XA P.iXyX%.8 8 1 d S.8X'.A D (.iXiXiXiXiXiXiXiXiXiXiXiXiX1X^.n.u.e.e.r.e.r.r.e.a.,XiXiXiXiXiXiX",
"iXwX*.V ) :X).d 1 2 2 2 @.).7.Z V *.yXiXiXiXiXiXiXiXiXiXiXiXtX- : z _ p.d.f.d.j.j.d.d.p.:XiXiXiXiXiX",
"iX8Xo.N V (.@.r 8 2 8 2 t S.) N M O.>XiXiXiXiXiXiXiXiXiXiXiXuXk *       & q / ~ l , &   p uXiXiXiXiX",
"iX(.V N V O.@.6 2 5 5 2 8 t C N N A *.yXiXiXyXiXiXiXiXiXiXiXiXiXiX4XF.h -         O ; p H.iXiXiXiXiX",
"'.) V B M A X.0 2 8 5 5 5 0 Z V N M ) '.iXiXY.A.4XN.iXiXuXeX,X|./.[.<XuXiX6XH.J.5XiXiXiXiXiXiXiXiXiX",
"%X! M B B N C 0 2 2 5 5 8 e m N N M A P.iXiX8XA.W &.{.R.x.a.y.e.w.w.w.y.v./.<XiXiXiXiXiXiXiXiXiXiXiX",
"(.A V V V B C t 2 2 2 2 < 0 N N V V N T.iXiXiXiXs ' u.w.r.y.a.y.a.a.a.y.r.u.r.w @XuXiXiXiXiXiXiXiXiX",
"8.D B M m M )  .0 8 0 d %.) N M m B D _.iXuXiXiXg X ,.j.j.j.d.d.d.a.a.d.f.~ X . 3XiXiXiXiXiXiXiXiXiX",
"yX(.O.o.*.(.iXyX).U.+XyXiX%X7.O.*.T.=XiXiXiXiXiXiXi X 3 l b / -.q.y.a.-.&   p 5XiXiXiXiXiXiXiXiXiXiX",
"iXiXiX>XiXiX-XwXiX+X@XiXiXiXiX>Xl.v.y.z.E.{.1XyXiXiXj               #   = oXiXiXiXiXiXiXiXiXiXiXiXiX",
"iXiX8XQ.I.4.} 3.0.iXiXiXiXiX<Xv.u.f.f.f.u.u.f.x.!.}.2XwX>XoXF.V.k h y B.iX4X6X&XiXiXiXiXiXiXiXiXiXiX",
"iX-X5.L P P 3.Q } Q.I.Q.iXG., 7 3 q l c b / / / z > X J.iXiXiXiXiXiXiXiXiXU.$.Y.iXyXiXiXiXiXiXiXiXiX",
"iXI.P P 2.P Q 2.[ ] L { uXF.+ @                   * p 4XiXtXuX1X=X{.E.v.h.d.y.R.9XiXiXiXiXiXiXiXiXiX",
"-X} P 1.{ P } 3.1.2.P } '.iXuXiXtXtX@X@XJ.J.C.F.#XiX9X{./.v.s.y.e.e.w.e.y.y.y.e.a.].iXiXiXiXiXiXiXiX",
"'.Q 2.L Q Q L Q } } [ H 4.uXiXiXiXiXiXiXiXiXiXiXiXiXZ.` y.e.y.a.a.a.a.a.a.a.a.a.a.e.v.,XiXuXiXiXiXiX",
"9.G G K J S S J R ) U G Q.iXiXiXiXiXiXiXiXiXiXiXyXiXC.c j.y.p.y.y.p.y.y.a.a.a.a.a.a.e.a.[.iXiXiXiXiX",
"0.Q J 0 9 Y r v Y F 9 6.iXiXiXiXiXiXiXiXiXiXiXiXiXiX6X4 d.d.j.j.f.f.f.d.f.d.d.d.d.a.a.f.z OXuXiXiXiX",
"iX0X9.$...t v v &.6.'.iXiXuXiXiXiXiXiXiXiXiXiXiXiXiXiXB.: 3 q q z b b / / _ -.-.,.p.a.q @ 6XiXiXiXiX",
"iXiXiXiXiX#.n #.9XiXiXiXiXiXiXiXiXiXiXiXiXiXiXiXiXuXiX5X*                             + @XiXiXiXiXiX",
"iXiXiXiXiXK.x `.iXtXiXiXiXiXiXiXiXiXiXiXiXiXiXiXiXiXiXiXiXtXtX3X3X@XJ.J.F.D.C.M.M.j f @XiXiXiXiXiXiX",
"iXiXiXyXiXK.n 9XiXiXiXiXiXiXiXiXiXiXiXiXiXiXiXiXiXiXiXuXiXiXuXuXeXeXeXeX2XqXqX2X<X<X;X.X{.uXiXiXiXiX",
"iXiXiXiXiX#.^ 1XiXiXiXiXiXiXiXiXiXiXiXiXiXiXiX0X/.c.c.c.a.s.h.a.a.a.a.y.r.e.e.e.w.e.w.| e.h.].uXiXiX",
"iXiXiXiXK.l x <.tXiXiXiXiXiXiXiXiXiXiXiXiXwX].n.e.y.e.y.y.y.y.y.y.y.y.a.d.y.y.a.a.a.a.a.a.y.e.s.].uX",
"iXiXiXtX#XL.L.L.:XiXiXiXiX9X|.=XiXiXiXiXiXH.# l -.d.j.d.y.a.y.a.d.y.a.y.a.a.a.a.a.y.a.a.a.a.a.a.u.~ ",
"iXiXiXiXiXiXiXiXiXuX;X].c.a.e.y.c./.,XiXiX3X;     # z -.d.f.d.a.y.y.y.a.a.a.y.y.a.y.y.a.y.y.d.p.>   ",
"yXiXiXiXiXuX1X|.R.s.y.e.e.a.a.a.y.e.a.v.{.qXiX3XV.;     # l -.d.f.d.a.a.a.a.a.a.a.a.d.a.a.f./ X @ oX",
"iXiXtX=X/.c.a.e.e.y.a.a.a.a.a.a.a.a.a.e.e.a.b.=XiXiX3XV.;     # l -.a.a.a.y.a.p.a.a.a.a.p.3   h tXiX",
"{.R.s.e.e.y.a.a.a.a.a.a.a.a.a.a.y.a.a.d.a.y.e.e.a.E.;XiXiX3XV.;     X o o o o X o o X o . . F.iXiXiX",
"n :.Y q.d.;.Y :.d.y.y.a.a.a.a.a.a.a.y.y.a.a.a.a.a.e.e.s./.,XtXiX5XB.p f f f f f f f p p h #XiXiXiXiX",
"4 q.I U 5.I U y.y.a.y.a.y.y.a.y.y.a.a.a.a.a.a.a.a.a.a.y.e.e.c./.9XiXiXiXiXiXiXiXiXiXiXiXiXiXiXiXiXiX",
"B.^ g.X.T X.q.a.a.a.a.a.y.a.y.y.y.t.y.a.y.y.a.y.a.y.y.a.a.y.d.` @.iXtXiXiXyXiXiXiXiXiXiXyXiXiXiXiXiX",
"*X4 _ / =.>.,.y.a.a.a.d.d.f.f.f.f.f.f.d.d.d.d.a.a.a.d.y.a.a.j.: C.iXiXiXiXiXiXiXiXiXiXiXiXiXiXiXiXiX",
"iXj             X o # : > , 7 q z b ~ .._ ' :.p.t.a.a.a.d.k.z u iXiXiXiXiXiXiXiXiXiXiXiXiXiXiXiXiXiX",
"iXrXG.C.C.B.k h p i y = * O                       o o % : > $ #XiXiXiXiXiXiXiXiXiXiXiXiXiXiXiXiXiXiX",
"iXiXiXiXiXiXiXiXiXiXiXiXuXtXyXrX#XOXXXH.D.C.M.k g p u y = + F.iXtXiXiXiXiXiXiXiXiXiXiXiXiXiXiXiXiXiX",
"iXiXyXiXyXiXyXiXiXiXiXiXiXiXiX;X~.^..X.X<XqXyXuXiXiXiXiXiXiXiXiXiXyXiXiXiXiXiXiXiXiXiXiXiXiXiXiXiXiX",
"iXiXiXiXiXiXiXiXiXiXiXiX0X].c.e.e.e.w.w.r.e.a.a.c.b.E.].|.=X;X9XiX*XP.A.6XiXiXiXiXiXiXiXiXiXiXiXiXiX",
"iXiXiXiXiXiXiXiXiXiX,XE.s.e.y.a.a.a.y.a.a.a.y.y.e.e.e.w.e.e.y.a.h.x.@.*XiXiXiXiXiXiXiXiXiXiXiXiXiXiX",
"iXiXiXiXiXiXiXiXiXS.` d.y.a.a.a.d.y.y.a.a.a.a.a.a.a.a.a.a.a.y.d.a.> = iXiXiXiXiXiXiXiXiXiXiXiXiXiXiX",
"iXiXiXiXiXiXiXyXiXm.X q.d.t.y.a.t.y.a.a.a.a.y.a.a.a.y.a.a.y.d.>.# + OXiXiXiXiXiXiXiXiXiXiXiXiXiXiXiX",
"iXiXiXiXiXiXiXiXiXiXp X -.X.+.o.o.y.y.y.d.a.a.a.y.d.y.y.a.f./ . y 8XiXiXiXiXiXiXiXiXiXiXiXiXiXiXiXiX",
"iXiXiXiXiXiXiXiXiXiXiXg o ..o.X.i.y.y.y.a.y.a.y.a.a.y.a.a.c   h iXiXiXiXiXiXiXiXiXiXiXiXiXiXiXiXiXiX"
};
