/* XPM */
static char *_7ace29ecbdd4d11ee08d3bbb9f2b796vVmcOJFAEVHXpUMB[] = {
/* columns rows colors chars-per-pixel */
"50 50 168 2 ",
"   c #252525",
".  c #323131",
"X  c #3C3C3C",
"o  c #480900",
"O  c #4A1102",
"+  c #5C1909",
"@  c #5A1D13",
"#  c #6C1A01",
"$  c #631C0A",
"%  c #731F01",
"&  c #6B2104",
"*  c #6D2F04",
"=  c #6E240E",
"-  c #732C0C",
";  c #7D2D0D",
":  c #652816",
">  c #6C2914",
",  c #6C2A1A",
"<  c #752A13",
"1  c #7B2E13",
"2  c #772F1A",
"3  c #7D3214",
"4  c #7E3418",
"5  c #6D3623",
"6  c #753923",
"7  c #663930",
"8  c #7E4114",
"9  c #764C3C",
"0  c #424242",
"q  c #4B4A4A",
"w  c #5B5B5B",
"e  c #646362",
"r  c #6C6B6B",
"t  c #727272",
"y  c #7B7B7B",
"u  c #872902",
"i  c #84340D",
"p  c #963A0B",
"a  c #823013",
"s  c #8A3412",
"d  c #823810",
"f  c #823518",
"g  c #883A1B",
"h  c #943D15",
"j  c #913E18",
"k  c #8C3F24",
"l  c #803F2D",
"z  c #8B430F",
"x  c #8A4518",
"c  c #924416",
"v  c #91451C",
"b  c #98441B",
"n  c #974918",
"m  c #9C4C1B",
"M  c #9C5119",
"N  c #A34E1E",
"B  c #AD5313",
"V  c #A85419",
"C  c #AE5B1F",
"Z  c #8D452B",
"A  c #934622",
"S  c #944A27",
"D  c #9D4D23",
"F  c #985326",
"G  c #9F5829",
"H  c #804232",
"J  c #984E31",
"K  c #8F5338",
"L  c #985335",
"P  c #A95A24",
"I  c #A85628",
"U  c #B95F20",
"Y  c #A45D3A",
"T  c #A8622B",
"R  c #B56225",
"E  c #BA6425",
"W  c #B9662B",
"Q  c #BD682C",
"!  c #AD673B",
"~  c #B46B33",
"^  c #B66A36",
"/  c #BE7639",
"(  c #C3742E",
")  c #C77935",
"_  c #C77B3C",
"`  c #895748",
"'  c #9B5C45",
"]  c #935A49",
"[  c #986658",
"{  c #947259",
"}  c #A56643",
"|  c #A67359",
" . c #B27459",
".. c #866A62",
"X. c #996F64",
"o. c #8B7466",
"O. c #947E6E",
"+. c #857972",
"@. c #957B74",
"#. c #A87560",
"$. c #B27C66",
"%. c #98807B",
"&. c #B4816E",
"*. c #B98776",
"=. c #B98B77",
"-. c #BD8F7F",
";. c #BE9074",
":. c #CF8440",
">. c #D08E4D",
",. c #E19B50",
"<. c #E6A153",
"1. c #EBA858",
"2. c #F3AD5B",
"3. c #E1A768",
"4. c #FFA36B",
"5. c #777C80",
"6. c #7D8081",
"7. c #8A8A8A",
"8. c #959595",
"9. c #9C9C9C",
"0. c #BC9B8B",
"q. c #A09490",
"w. c #A6A19F",
"e. c #9B9FA0",
"r. c #9EA0A1",
"t. c #A5A8A8",
"y. c #ABACAC",
"u. c #ACB0B1",
"i. c #B5B5B5",
"p. c #BEB9B7",
"a. c #B2B6B8",
"s. c #BBBCBD",
"d. c #C49B8C",
"f. c #C49D90",
"g. c #D1AC85",
"h. c #C5A296",
"j. c #FFBB91",
"k. c #C4ACA0",
"l. c #CEADA0",
"z. c #D5B6A8",
"x. c #C1BFBE",
"c. c #C9BDB8",
"v. c #D4BDB4",
"b. c #FFC19B",
"n. c #B9BFC0",
"m. c #BDC4C6",
"M. c #C4C4C4",
"N. c #CCCBCB",
"B. c #D1CECB",
"V. c #CCCED0",
"C. c #D4D4D5",
"Z. c #DBDBDB",
"A. c #E3D3CC",
"S. c #E1D4D0",
"D. c #E3DAD7",
"F. c #DBDEE1",
"G. c #DEE1E2",
"H. c #E3E3E4",
"J. c #EAE5E4",
"K. c #E5E9EA",
"L. c #ECECEC",
"P. c #F0EFEF",
"I. c #EAEFF1",
"U. c #EDF2F4",
"Y. c #F3F3F3",
"T. c #F3F7F9",
"R. c #F7FAFC",
"E. c #FFFFFF",
/* pixels */
"4.j.j.j.j.j.j.j.j.j.j.j.j.j.j.j.j.j.j.j.j.j.j.j.j.j.j.j.j.j.j.j.j.j.j.j.j.j.j.j.j.j.j.j.j.j.j.j.j.4.",
"b.E.E.E.E.E.E.E.E.E.E.E.E.E.E.E.E.E.E.E.E.E.E.E.E.E.E.E.E.E.E.E.E.E.E.E.E.E.E.E.E.E.E.E.E.E.E.E.E.b.",
"b.E.E.E.E.E.E.E.E.E.E.E.E.E.E.R.E.R.E.E.E.E.E.E.E.E.E.R.E.R.E.E.E.E.E.E.E.E.E.R.E.R.E.E.E.E.E.Y.E.j.",
"b.E.E.E.E.E.E.E.E.E.E.E.E.E.E.E.E.E.E.E.E.E.E.E.E.E.E.E.E.E.E.E.E.E.E.E.E.E.E.E.E.E.E.E.E.E.E.E.E.b.",
"j.E.E.E.E.E.E.E.E.E.E.E.E.E.E.E.E.E.E.E.E.E.E.E.E.E.E.E.E.E.E.E.E.E.E.E.E.E.E.E.E.E.E.E.E.E.E.E.E.b.",
"b.E.R.E.E.E.E.E.E.E.E.E.E.E.E.E.E.E.E.E.E.E.E.E.E.E.E.E.E.E.E.E.E.E.E.E.E.E.E.E.E.E.E.E.E.E.E.E.E.b.",
"b.E.E.E.E.E.E.E.E.E.E.E.E.E.E.E.E.E.E.E.E.E.E.E.E.E.E.E.E.E.E.E.E.E.E.E.E.E.E.E.E.E.E.E.E.E.E.E.E.b.",
"b.E.E.E.E.E.E.E.E.E.E.E.E.E.E.E.E.E.E.E.E.E.E.E.E.E.E.E.E.E.E.E.E.E.E.E.E.E.E.E.E.E.E.E.E.E.E.E.E.b.",
"b.E.E.E.E.E.E.E.E.E.E.E.E.E.E.E.E.E.E.E.E.E.E.E.E.E.E.E.E.E.E.E.E.E.E.E.E.E.E.E.E.E.E.E.E.E.E.Y.E.b.",
"b.E.E.E.E.E.E.E.E.E.E.E.E.E.E.E.E.E.E.E.E.E.E.E.E.E.E.E.E.E.E.E.E.E.E.E.E.E.E.E.E.E.E.E.E.E.E.E.E.b.",
"j.E.E.E.E.E.E.E.E.E.E.E.E.E.E.E.E.E.E.E.E.E.E.E.E.E.E.E.E.E.E.E.E.E.E.E.E.E.E.E.E.E.E.E.E.E.E.E.E.b.",
"b.E.E.E.E.E.E.E.E.E.E.E.E.E.E.E.E.E.E.E.E.E.E.E.E.E.E.E.E.E.E.E.E.E.E.E.E.E.E.E.E.E.E.E.E.E.E.E.E.b.",
"b.E.E.E.E.E.E.E.E.E.E.E.E.E.E.E.E.E.E.E.E.E.E.E.E.E.E.E.E.E.E.E.E.E.E.E.E.E.E.E.E.E.E.E.E.E.E.Y.E.b.",
"b.E.E.E.E.E.E.E.E.E.E.E.E.E.E.E.E.E.E.E.E.E.E.E.E.E.E.E.E.E.E.E.E.E.E.E.E.E.E.E.E.E.E.E.E.E.E.E.E.b.",
"b.E.E.E.E.E.E.E.E.E.E.E.E.E.E.E.E.E.E.E.E.E.E.R.E.E.E.E.E.E.E.E.E.E.E.E.E.E.E.E.E.E.E.E.E.E.E.E.E.b.",
"b.E.E.E.E.E.E.E.E.E.E.E.E.E.E.E.E.E.E.E.E.E.E.E.E.E.E.E.E.E.E.E.E.E.E.E.E.E.E.E.E.E.E.E.E.E.E.R.E.b.",
"b.E.E.E.E.E.E.E.E.E.E.E.E.E.E.E.E.R.P.P.J.Z.B.0.c.F.C.Z.G.P.Y.Y.R.E.E.E.E.E.E.E.E.E.E.E.E.E.E.E.E.b.",
"b.E.E.E.E.E.E.E.E.E.E.E.E.E.R.F.m.i.y.r.9.8.| B x o.q.w.u.i.x.x.V.G.L.T.E.E.E.E.E.E.E.E.E.E.E.E.E.b.",
"b.E.E.E.E.E.E.E.E.E.E.E.G.k.{ +.7.+.r H 5 : I E C * : : : 7 ` ~ ~ -.M.V.G.Y.E.E.E.R.E.E.E.E.E.E.E.b.",
"b.E.R.E.E.E.E.E.E.E.Y.a.O.P B 8 4 - & & j D h A } g - = G / x T R V 9 %.p.N.G.R.E.E.E.E.E.E.E.R.E.b.",
"b.E.E.E.E.E.E.E.E.Y.t.y } U W I * 3 s _ 2.2.P ' $.Z 1 3 T ~ ;.{ F 3 + T 1.g.V.H.R.E.E.E.E.E.E.R.E.b.",
"b.E.E.E.E.E.E.E.E.N.6...! W U Q x * b 3.>.m s k Z f N R m < [ ] 6 - 3 F G > ..C.L.E.E.E.E.E.E.E.E.b.",
"j.E.E.E.E.E.E.E.E.N.9 #. .N N N c i s  .$.A 1 ; 1 a M V n 1 < 2 < 3 C R 4 @ O @.Y.R.E.E.E.E.E.E.E.b.",
"b.E.R.E.E.E.E.E.T.T.K 4 J ^ ( P s s s &.&.J g m v 1 < < < < 4 < - T Q W A , o @.E.E.E.E.E.E.E.E.E.b.",
"b.E.E.E.E.E.E.E.Y.H.J.' u ( ,._ h n d S J f b E E z a < D ,.1.A ` =.L f $ $ X.L.P.E.E.E.E.E.E.E.E.b.",
"b.E.E.E.E.E.E.E.E.N.Z.R.z.} p u p E M ; s / <.:.P v 1 1 S ^ G < l H = , [ c.T.H.P.E.E.E.E.E.E.E.E.b.",
"b.E.E.E.E.E.E.E.E.Y.x.Z.R.R.A.h. .Y b s u R ) V % % % # # # = 2 l X.0.D.U.Z.N.H.E.E.E.E.E.E.E.E.E.b.",
"b.E.E.E.E.E.E.E.E.E.H.M.D.P.Y.T.L.J.S.v.l.0.d.*.*.*.-.f.0.k.v.D.L.T.K.C.M.M.Z.E.E.E.E.E.E.E.E.E.E.b.",
"b.E.R.E.E.E.E.E.E.E.E.Z.N.F.J.Z.N.s.s.s.n.m.n.u.a.y.e.a.U.I.K.H.Z.C.s.M.M.Z.R.E.E.E.E.E.E.E.E.E.E.b.",
"b.E.R.E.E.E.E.E.E.E.R.E.H.B.Z.Z.N.p.t.8.5.r w q X .   e C.C.C.C.C.N.M.M.D.R.E.E.E.E.E.E.E.E.E.E.E.b.",
"b.E.E.E.E.E.E.E.E.E.E.E.E.L.C.C.N.s.y.9.7.y r w q X X 9.H.C.Z.Z.N.x.N.H.E.E.E.E.E.E.E.E.E.E.E.E.E.b.",
"b.E.E.E.E.E.E.E.E.E.E.E.E.E.E.K.Z.M.t.8.7.y r w q X 0 N.Z.Z.C.M.M.Z.R.E.E.E.E.R.E.E.E.E.E.E.E.E.E.b.",
"b.E.E.E.E.E.E.E.E.E.E.E.E.E.E.E.R.Y.C.i.7.t w q 0   w Z.C.B.N.F.Y.E.E.E.E.E.E.E.E.E.E.E.E.E.E.E.E.b.",
"b.E.E.E.E.E.E.E.E.E.E.E.E.E.E.E.E.E.E.E.L.N.y.8.7.y a.L.H.U.E.E.E.E.E.E.E.E.E.E.E.E.E.E.E.E.E.E.E.b.",
"b.E.R.E.E.E.E.E.E.E.E.E.E.E.E.E.E.E.E.E.E.E.E.E.E.E.E.E.E.E.E.E.E.E.E.E.E.E.E.E.E.E.E.E.E.E.E.E.E.b.",
"b.E.E.E.E.E.E.E.E.E.E.E.E.E.E.E.E.E.E.E.E.R.E.E.R.E.E.E.E.E.E.E.E.E.E.E.E.E.E.E.E.E.E.E.E.E.E.E.E.b.",
"b.E.E.E.E.E.E.E.E.E.E.E.E.E.E.E.E.E.E.E.E.E.E.E.E.E.E.E.E.E.E.E.E.E.E.E.E.E.E.E.E.E.E.E.E.E.E.E.E.b.",
"b.E.E.E.E.E.E.E.E.E.E.E.E.E.E.E.E.E.E.E.E.E.E.E.E.E.E.E.E.E.E.E.E.E.E.E.E.E.E.E.E.E.E.E.E.E.E.E.E.b.",
"b.E.E.E.E.E.E.E.E.E.E.E.E.E.E.E.E.E.E.E.E.E.E.E.E.E.E.E.E.E.E.E.E.E.E.E.E.E.E.E.E.E.E.E.E.E.E.E.E.b.",
"b.E.Y.E.E.E.E.E.E.E.E.E.E.E.E.E.E.E.E.E.E.E.E.E.E.E.E.E.E.E.E.E.E.E.E.E.E.E.E.E.E.E.E.E.E.E.E.R.E.b.",
"j.E.E.E.E.E.E.E.E.E.E.E.E.E.E.E.E.E.E.E.E.E.E.E.E.E.E.E.E.E.E.E.E.E.E.E.E.E.E.E.E.E.E.E.E.E.E.E.E.b.",
"j.E.E.E.E.E.E.E.E.E.E.E.E.E.E.E.E.E.E.E.E.E.E.E.E.E.E.E.E.E.E.E.E.E.E.E.E.E.E.E.E.E.E.E.E.E.E.E.E.b.",
"b.E.E.E.E.E.E.E.E.E.E.E.E.E.E.E.E.E.E.E.E.E.E.E.E.E.E.E.E.E.E.E.E.E.E.E.E.E.E.E.E.E.E.E.E.E.E.E.E.b.",
"b.E.E.E.E.E.E.E.E.E.E.E.E.E.E.E.E.E.E.E.E.E.E.E.E.E.E.E.E.E.E.E.E.E.E.E.E.E.E.E.E.E.E.E.E.E.E.E.E.b.",
"b.E.E.E.E.E.E.E.E.E.E.E.E.E.E.E.E.E.E.E.E.E.E.E.E.E.E.E.E.E.E.E.E.E.E.E.E.E.E.E.E.E.E.E.E.E.E.E.E.b.",
"b.E.E.E.E.E.E.E.E.E.E.E.E.E.E.E.E.E.E.E.E.E.E.E.E.E.E.E.E.E.E.E.E.E.E.E.E.E.E.E.E.E.E.E.E.E.E.E.E.b.",
"j.E.E.E.E.E.E.E.E.E.E.E.E.E.E.E.E.E.E.E.E.E.E.E.E.E.E.E.E.E.E.E.E.E.E.E.E.E.E.E.E.E.E.E.E.E.E.E.E.b.",
"b.E.E.E.E.E.R.E.R.E.E.E.E.E.E.E.E.E.R.E.R.E.E.E.E.E.E.E.E.E.E.E.E.E.E.E.E.E.Y.E.R.E.E.E.E.E.E.Y.E.b.",
"b.E.E.E.E.E.E.E.E.E.E.E.E.E.E.E.E.E.E.E.E.E.E.E.E.E.E.E.E.E.E.E.E.E.E.E.E.E.E.E.E.E.E.E.E.E.E.E.E.b.",
"4.j.j.j.j.j.j.j.j.j.j.j.j.j.j.j.j.j.j.j.j.j.j.j.j.j.j.j.j.j.j.j.j.j.j.j.j.j.j.j.j.j.j.j.j.j.j.j.j.4."
};
