/* XPM */
static char *b87cb6d6db2b41c297ccf1aec02b240a2q59mgwASIYcAjUN[] = {
/* columns rows colors chars-per-pixel */
"50 50 177 2 ",
"   c #542315",
".  c #572719",
"X  c #5A2A1B",
"o  c #602C16",
"O  c #552920",
"+  c #5B2E22",
"@  c #5D3024",
"#  c #633220",
"$  c #6B3C2A",
"%  c #73432D",
"&  c #6C4337",
"*  c #6F463A",
"=  c #7C574C",
"-  c #814F34",
";  c #895331",
":  c #A2612F",
">  c #AA6A37",
",  c #B7773F",
"<  c #B8763E",
"1  c #F75205",
"2  c #F75807",
"3  c #F6550B",
"4  c #F7590B",
"5  c #F66D18",
"6  c #F7731A",
"7  c #F67337",
"8  c #F67939",
"9  c #9F6A43",
"0  c #996C4E",
"q  c #84655D",
"w  c #A36C44",
"e  c #A86E41",
"r  c #A67046",
"t  c #AE7242",
"y  c #AC7448",
"u  c #BA7A44",
"i  c #B27748",
"p  c #B47B4C",
"a  c #BC7E49",
"s  c #B27C54",
"d  c #8F7169",
"f  c #917771",
"g  c #D37C47",
"h  c #C79E36",
"j  c #F79935",
"k  c #BE8C40",
"l  c #BD824E",
"z  c #BE8451",
"x  c #BB875D",
"c  c #A0847B",
"v  c #B3927B",
"b  c #C0844D",
"n  c #C69849",
"m  c #C18654",
"M  c #C48A53",
"N  c #C38B5B",
"B  c #CF9A50",
"V  c #E18F5D",
"C  c #CBA547",
"Z  c #CEA94A",
"A  c #D2AC46",
"S  c #D3AD4D",
"D  c #D8AF4F",
"F  c #D9B54F",
"G  c #D5A654",
"H  c #D9B357",
"J  c #DDBA52",
"K  c #F6AF49",
"L  c #F7B244",
"P  c #F6B14B",
"I  c #E3BD53",
"U  c #E0BD59",
"Y  c #F6BA52",
"T  c #C48E60",
"R  c #C79366",
"E  c #C99669",
"W  c #CB996D",
"Q  c #C49977",
"!  c #CC9C75",
"~  c #E79B6C",
"^  c #EC9D6A",
"/  c #EA9F70",
"(  c #CEA27C",
")  c #D1A377",
"_  c #D0A47E",
"`  c #FFA36B",
"'  c #EFA577",
"]  c #F6D24E",
"[  c #E6C355",
"{  c #E8C655",
"}  c #EECB56",
"|  c #EEC95D",
" . c #F4CD56",
".. c #F0CE58",
"X. c #F6D354",
"o. c #F6D45A",
"O. c #F9D75B",
"+. c #F7DA5C",
"@. c #FAD95C",
"#. c #E4C66D",
"$. c #F7D764",
"%. c #F7DB60",
"&. c #F7D96C",
"*. c #E7CA72",
"=. c #F8DD79",
"-. c #A48C86",
";. c #AD9895",
":. c #B6A19B",
">. c #BCABA9",
",. c #CCA483",
"<. c #D1A681",
"1. c #D3A986",
"2. c #D4AD8B",
"3. c #DCB68F",
"4. c #D7B292",
"5. c #D9B495",
"6. c #DAB799",
"7. c #DBBA9D",
"8. c #F6AE81",
"9. c #F7B185",
"0. c #FDB68A",
"q. c #FDB98F",
"w. c #FFBB92",
"e. c #C6B8AF",
"r. c #DDBEA4",
"t. c #D1BAAA",
"y. c #CCBCB4",
"u. c #F8DF81",
"i. c #FFC19B",
"p. c #EBD591",
"a. c #F4DD90",
"s. c #F9E087",
"d. c #FBE38D",
"f. c #F9E497",
"g. c #FAE69B",
"h. c #DFC2A9",
"j. c #D2C6BC",
"k. c #E1C6AE",
"l. c #E5C8AD",
"z. c #E8D5A6",
"x. c #E3CAB3",
"c. c #E6CFB9",
"v. c #E3D0BE",
"b. c #FAE7A4",
"n. c #FBEAAE",
"m. c #FBECB3",
"M. c #F2E0BE",
"N. c #FBEDBC",
"B. c #D5CCCB",
"V. c #DAD0C8",
"C. c #DFD6D3",
"Z. c #E9D5C4",
"A. c #ECDCCC",
"S. c #EADED3",
"D. c #E3DBD9",
"F. c #FAEDC3",
"G. c #FAEFCA",
"H. c #FBF1CE",
"J. c #EFE1D4",
"K. c #EDE7DC",
"L. c #EDE8DE",
"P. c #F1E2D3",
"I. c #F3E6DB",
"U. c #F3E8DE",
"Y. c #FDF6DB",
"T. c #EAE4E1",
"R. c #F5EDE4",
"E. c #F3EFED",
"W. c #FEF9E4",
"Q. c #F6F0EC",
"!. c #F9F3EC",
"~. c #FEFBEB",
"^. c #F7F6F4",
"/. c #F9F5F2",
"(. c #FDFAF6",
"). c #F6F6F8",
"_. c #FFFFFE",
/* pixels */
"` w.w.w.w.w.w.w.w.w.q.w.V g ^ 0.w.w.w.w.w.w.w.i.i.i.i.i.q.q.w.w.w.w.w.w.0.8.w.w.w.w.w.w.w.w.w.q.w.` ",
"i._._._._._._._._._._._.y.; r v._._._._._._.).= -.q f )._._._._._._./.,.0 v _._._._._._._._._._._.i.",
"i._._.(._._._._._._.(._._.h.> N Q._._.(._.T.c .   . X & -._._._.)._.7.: w A._.)._.(._._.(._._._._.i.",
"i._._._._.(._._._._._._._._.c.u 1._._._._.q   @ $ $ @ X + D._.(._.A.a R I._._._._._._._._._._.(._.i.",
"w._.(._._._._._._._._._._._._.2.< x._._.C.& . $ p z - O X * ^._.!.N m R._.)._._._._._._._._._._._.i.",
"i._._._._._._._._._._._._._._.R.N z I._.=   - w z z w % X = (._.( , c._._._._._._._._._._._._.(._.i.",
"i._._._._._._._._._._._._._._._.k.u ! _.d . p z w y p p # * _.h., ,._._._._._._._._._._._._._._._.i.",
"i._._._._._._._._._._._._._._._._.W > l.B.X w m i p m r X ;.P.t z R._._._._._._._._._._._._._._._.i.",
"i._._._._._._._._._._._._._._._._.S.a m t.$ o a r 9 y X + S.E , h._._._._._._._._._._._._._._._._.i.",
"i._._._._._._._._._._._._._._._._._.4.u E y.>.,.e i Q d :._ u ( _._._._._._._._._._._._._._._.(._.i.",
"i._.(._._._._._._._._._._._._._._._.E.T i 3._.Q.i x _._.l.u m R._._._._._._._._._._._._._._._._._.i.",
"w._._._._._._._._._._._._._._._._._._.x.u B &.7.z R x.a.M u k._._._._._._._._._._._._._._._._._._.i.",
"i._._._._._._._._._._._._._._._._._._._.! I o.k m z n X.G Q _._._._._._._._._._._._._._._._._.(._.i.",
"i._.(._._._._._._._._._._._._._._._.(._.F.X.@.J n C { @.| I._.(._._._._._._._._._._._._._._._._._.i.",
"i._._._._._._._._._._._._._._._._._._._.m.] o.@...X.@.o.@.W._._._._._._._._._._._._._._._._._._._.i.",
"i._._._._._._._._._._._._._._._._._._._.f.X.o.o.o.o.o.o.X.F._._._._._._._._._._._._._._._._._._._.i.",
"i._.(._._._._._._._._._._._._._._._._._.s.] o.o.o.o.o.o.] n._._._._._._._._._._._._._._._._._.(._.i.",
"w._._._._._._._._._._._._._._._._._._.(.$.o.o.o.X.o.o.o.] g._._._._._._._._._._._._._._._._._._._.i.",
"i._._._._._._._._._._._._._._._._._._.~.o.o.+.+.+.+.+.+.X.u._._._._._._._._._._._._._._._._._._._.i.",
"i._._._._._._._._._._._._._._._._._._.H.o. .K P K K K P X.&.(._._._._._._._._._._._._._._._._.(._.i.",
"i._._._._._._._._._._._._._._._._.(._.N.] Y 7 7 7 7 7 8  .+.W._._.(._._._._._._._._._._._._._._._.i.",
"i._._._._._._._._._._._._._._._._._._.b.]  .4 1 2 2 1 6 O.o.H._._._._._._._._._._._._._._._._.(._.i.",
"i._.(._._._._._._._._._._._._._._._._.s.] +.j 1 4 3 3 L %.] m._._._._._._._._._._._._._._._._._._.i.",
"w._._._._._._._._._._._._._._._._._._.=.X.o.+.j 5 6 L %.o.] g._._._._._._._._._._._._._._._._._._.i.",
"i._._._._._._._._._._._._._._._._._.(.o.o.o.O.+.o.o.+.o.o.X.u._._._._._._._._._._._._._._._._._._.i.",
"i._.(._._._._._._._._._._._._._._._.Y.o.o.o.X.o.o.o.o.o.o.X.&._._._._._._._._._._._._._._._._._._.i.",
"i._._._._._._._._._._._._._._._._._.F.X.o.o.o.O.I ..O.o.o.X.o.~._._._._._._._._._._._._._._._.(._.i.",
"i._._._._._._._._._._._._._._._._._.n.] @.o.O.} F o.o.o.o.o.o.Y._.(._._._._._._._._._._._._._._._.i.",
"i._.(._._._._._._._._._._._._._._._.f.] o.o.O.} J F { O.o.o.X.N._._._._._._._._._._._._._._._.(._.i.",
"w._._._._._._._._._._._._._._._._._.=.X.o.o.O.[ I ..X.O.o.o.X.b._._._._._._._._._._._._._._._._._.i.",
"i._._._._._._._._._._._._._._._._._.$.o.o.o.@.I ..O.o.o.o.O.X.d._._._._._._._._._._._._._._._._._.i.",
"i._._._._._._._._._._._._._._._._.W.o.X.o.o.o.O.X.O.o.o.o.@.X.*._._._._._._._._._._._._._._._._._.i.",
"i._._._._._._._._._._._._._._._._.G...@.@.O.O.O.O.O.O.O.o.[ Z Z ~._._._._._._._._._._._._._._._._.i.",
"i._._._._._._._._._._._._._._._._.z.h F { } } } ....[ F A A A p._._._._._._._._._._._._._._._._._.i.",
"i._.(._._._._._._._._._._._._._._.Y.*.Z C Z Z Z Z Z F F F #.G._._._._._._._._._._._._._._._._.(._.i.",
"w._._._._._._._._._._._._._._._._._._.G.H D J H I U S D M A._.(._._._._._._._._._._._._._._._._._.i.",
"i._._._._._._._._._._._._._._._._._._.^.s m M M.~.(.) a e r._._._._._._._._._._._._._._._._._._._.i.",
"i._.(._._._._._._._._._._._._._._._._.A.l z N )._._.r.a b ,._._._._._._._._._._._._._._._._._._._.i.",
"i._._._._._._._._._._._._._._._._.(._.l.a a 2._._._.I.z l N (._._._._._._._._._._._._._._._.(._._.i.",
"i._._._._._._._._._._._._._._._._._._.4.a a x._.(._.(.W a m J._.(._._._._._._._._._._._._._._._._.i.",
"i._.(._._._._._._._._._._._._._._._._.! a m U._.(._._.7.a a x._._._._._._._._._._._._._._._._._._.i.",
"w._._._._._._._._._._._._._._._._._.Q.N l W (._._._._.A.l a 2._._._._._._._._._._._._._._._._._._.i.",
"i._._._._._._._._._._._._._._._._._.J.z u 6._._._._._.(.R l E (._._._._._._._._._._._._._._._.(._.i.",
"i._._._._._._._._._._._._._._._._._.x.a l Z._._._._._._.4.u m U._.(._._._._._._._._._._._._._._._.i.",
"i._._._._._._._._._._._._._._._._._.6.u N E._._._._._._.Z.l l c._._._._._._._._._._._._._._._._._.i.",
"i._._._._._._._._._._._._._._._._._.! u <._._._._._._._./.N , 5._._._._._._._._._._._._._._._._._.i.",
"i._.(._._._._._._._._._._._._._._./.E u h._._._._._._._._.2.< ( _._._._._._._._._._._._._._.(._._.i.",
"i._.(._._.(._._._.(._._._._.).Q.(.R.P.c.I._.(._.(._._.)._.A.h.S.!.).(.Q.E.(._._.(._._._._._._.(._.i.",
"i._._._._._._._._._._._.E.V.y.e.C.K.K.R._._._._._._._._._._.R.L.K.j.e.j.V.)._._._._._._._._._._._.i.",
"` w.w.w.w.w.w.w.w.w.w.w.q.9.9.8./ ~ / 9.w.w.w.w.w.w.w.w.w.w.' ~ ~ ' 9.9.w.w.w.w.w.w.w.w.w.w.w.w.w.` "
};
